<svg width="18" height="19" viewBox="0 0 18 19" fill="none" xmlns="http://www.w3.org/2000/svg">
<path opacity="0.2" d="M15.173 9.25294L10.3032 14.179C10.1978 14.2843 10.0549 14.3435 9.90594 14.3436H4.51367V8.9513C4.51374 8.80231 4.57291 8.65944 4.6782 8.55403L7.88867 5.38013V10.9686L9.57617 9.28106L15.173 9.25294Z" fill="#00AEEF"/>
<path d="M15.5591 3.28681C14.7152 2.44332 13.5709 1.96948 12.3778 1.96948C11.1846 1.96948 10.0403 2.44332 9.19649 3.28681L4.26758 8.15595C4.16278 8.26013 4.07968 8.38406 4.02308 8.52055C3.96648 8.65705 3.9375 8.80342 3.93781 8.95119V14.1107L1.85234 16.1955C1.80008 16.2477 1.75863 16.3098 1.73034 16.3781C1.70206 16.4464 1.6875 16.5195 1.6875 16.5935C1.6875 16.6674 1.70206 16.7405 1.73034 16.8088C1.75863 16.8771 1.80008 16.9392 1.85234 16.9914C1.95789 17.097 2.10105 17.1563 2.25031 17.1563C2.32422 17.1563 2.39741 17.1417 2.46569 17.1134C2.53398 17.0851 2.59602 17.0437 2.64828 16.9914L4.73375 14.906H9.89328C10.0409 14.9062 10.1871 14.8772 10.3234 14.8208C10.4598 14.7643 10.5836 14.6814 10.6878 14.5769L15.5555 9.65501C15.9743 9.2373 16.3066 8.74114 16.5334 8.19491C16.7602 7.64868 16.8771 7.06309 16.8774 6.47164C16.8778 5.88019 16.7615 5.29447 16.5353 4.74799C16.3091 4.20151 15.9773 3.70498 15.5591 3.28681ZM9.98961 4.08205C10.611 3.46039 11.4504 3.10568 12.3292 3.09334C13.2081 3.081 14.0571 3.41202 14.6957 4.01598C15.3343 4.61994 15.7121 5.4492 15.7487 6.32739C15.7853 7.20559 15.4779 8.06342 14.8918 8.71845H10.922L13.3372 6.30392C13.4427 6.19837 13.502 6.05522 13.502 5.90595C13.502 5.75668 13.4427 5.61353 13.3372 5.50798C13.2316 5.40243 13.0885 5.34314 12.9392 5.34314C12.79 5.34314 12.6468 5.40243 12.5413 5.50798L8.43781 9.61072V5.61556L9.98961 4.08205ZM5.06281 8.954L7.31281 6.7272V10.735L5.06281 12.985V8.954ZM9.89328 13.781H5.85875L9.79625 9.84345H13.7858L9.89328 13.781Z" fill="#00AEEF"/>
</svg>
