<svg width="271" height="236" viewBox="0 0 271 236" fill="none" xmlns="http://www.w3.org/2000/svg">
<g clip-path="url(#clip0_10761_7606)">
<path d="M0 0H229.707C229.779 1.86506 229.553 3.73011 229.713 5.59189C229.91 5.59517 230.303 5.60828 230.503 5.61483C230.638 3.7465 230.605 1.87161 230.621 0H270.089V236H65.6867C65.6998 235.322 66.0308 234.4 65.313 233.971C62.9333 232.155 60.5406 230.32 58.6034 228.015C58.7607 227.343 58.8951 226.668 59.0328 225.996C59.2721 226.003 59.7473 226.013 59.9866 226.019C63.8577 214.219 67.6829 202.403 71.5342 190.596C71.9866 189.141 72.57 187.718 72.7634 186.197C73.0715 184.411 72.6847 182.612 72.2422 180.884C70.918 175.695 69.6889 170.48 68.3089 165.308C68.5154 165.262 68.9251 165.17 69.1283 165.125C88.1657 165.043 107.206 165.125 126.247 165.046C126.394 169.032 126.267 173.021 126.306 177.007C126.26 179.488 126.611 182.146 125.395 184.427C124.801 185.44 124.264 186.529 123.389 187.335C121.786 188.702 119.839 189.56 117.905 190.337C114.086 192.032 110.186 193.536 106.384 195.26C105.771 195.506 106.105 196.296 106.043 196.798C118.987 196.962 131.937 196.811 144.881 196.876C146.959 196.968 148.946 196.234 150.814 195.398C153.836 194.192 156.796 192.845 159.808 191.619C162.375 190.354 165.262 189.662 167.524 187.836C169.163 186.394 170.451 184.45 170.831 182.274C171.061 179.154 170.89 176.017 170.923 172.89C182.69 172.84 194.458 172.932 206.221 172.844C206.294 170.949 206.716 169.091 206.752 167.193C206.887 166.446 206.998 165.695 207.103 164.948C213.465 164.987 219.827 164.944 226.186 164.967C227.055 164.977 227.93 164.987 228.789 164.826C230.87 164.721 232.955 164.839 235.036 164.777C236.531 164.744 237.714 163.364 237.898 161.942C242.965 122.281 248.039 82.6197 253.1 42.9586C253.398 40.3822 251.452 37.6191 248.77 37.4847C244.434 37.4224 240.094 37.4814 235.758 37.4617C236.393 34.8493 237.649 32.3582 239.609 30.4899C243.26 26.8614 244.322 21.0106 242.32 16.2906C240.596 12.0458 236.613 8.75167 232.06 8.04039C229.88 7.81422 227.612 7.85356 225.547 8.66644C220.971 10.2627 217.536 14.5632 216.9 19.3553C216.268 23.3869 217.861 27.5006 220.65 30.4014C222.548 32.3287 224.141 34.7412 224.492 37.4748C223.545 37.4584 222.594 37.4617 221.65 37.4945C220.185 37.5109 218.72 37.4781 217.254 37.5437C217.497 35.5541 217.812 33.571 217.959 31.5683C197.552 31.5781 177.148 31.5879 156.74 31.565C156.642 32.9417 156.062 34.3511 156.491 35.7147C156.52 36.3047 156.402 36.8816 156.33 37.4617C151.748 37.4552 147.166 37.4781 142.583 37.4289C142.19 37.3994 141.8 37.347 141.413 37.2683C141.885 34.7444 142.043 32.1714 142.456 29.6344C140.984 29.6049 139.515 29.5918 138.047 29.6475C138.09 29.9589 138.135 30.2703 138.181 30.5817C139.266 30.5522 140.351 30.5522 141.439 30.5718C139.063 48.7864 136.729 67.0043 134.356 85.2157C134.238 86.0154 134.169 86.8218 134.117 87.6281C133.373 87.6511 132.629 87.6674 131.888 87.6969C130.623 80.6071 129.659 73.396 127.152 66.6077C126.463 64.7591 124.955 63.1529 123.038 62.5892C121.078 62.0746 119.042 62.1631 117.043 62.0352C118.813 60.2718 120.698 58.3149 121.025 55.7157C121.393 53.8375 120.501 52.0806 120.042 50.3172C119.439 46.8853 120.776 43.4011 120.022 39.9791C119.518 37.8256 117.479 36.3768 115.375 36.0326C112.634 35.5836 109.635 35.6098 107.157 37.0192C104.46 38.3828 102.85 41.2902 102.457 44.2107C102.244 45.8201 102.25 47.5474 101.388 48.9798C100.267 50.7269 97.9794 51.2022 96.8354 52.9263C95.3965 55.0536 97.1829 58.0068 95.3997 59.9932C93.3413 62.4449 89.9783 62.8874 87.2938 64.3428C85.6057 65.2114 83.9701 66.5586 83.5178 68.4892C83.1146 70.4198 83.9472 72.3701 85.0747 73.9041C85.337 74.3367 85.8712 74.7891 85.5533 75.3463C84.5503 78.2504 83.5276 81.1512 82.6492 84.0947C80.9316 84.1799 79.2108 84.1537 77.4932 84.1143C78.5421 76.6443 79.414 69.148 80.4465 61.6714C80.5285 61.1469 80.4498 60.6258 80.3515 60.1112C80.1745 59.3343 80.3351 58.5477 80.4564 57.7774C81.0332 54.5389 81.1086 51.2284 81.8166 48.0129L82.0985 48.0096C82.423 47.1246 82.423 46.1708 82.541 45.2464C82.7016 43.9386 82.9868 42.6275 82.8459 41.3C82.7082 40.2773 82.7967 39.2448 82.9802 38.232C83.0065 38.0452 83.0589 37.6781 83.0884 37.4912C77.4736 37.3404 71.8555 37.4027 66.2374 37.4584C63.1628 37.4978 60.0882 37.465 57.0137 37.4748C55.4403 37.4126 54.2243 38.9236 53.9424 40.3527C53.7261 42.1391 53.3852 43.9157 53.3426 45.7184C46.9247 45.8463 40.5035 45.7348 34.0823 45.7742C33.7152 45.7906 33.3547 45.8627 33.0072 45.9905C31.8764 46.4068 31.2274 47.6523 31.2307 48.8159C31.0471 52.5297 31.0045 56.2499 30.9029 59.9669C30.8767 61.7271 30.6177 63.484 30.7488 65.2442C30.8472 66.0898 31.4011 66.7651 31.9944 67.3321C32.8007 67.4436 33.6103 67.6796 34.4298 67.5583C35.1607 67.4927 35.9605 67.2829 36.6259 67.7189C37.193 69.0726 37.6289 70.4853 38.0157 71.9046C38.291 71.9407 38.5631 71.9767 38.8351 72.0161C39.825 70.5247 40.9886 69.1611 42.008 67.6894C44.7777 67.6468 47.554 67.6468 50.3237 67.6894C50.1533 70.5214 49.5502 73.3042 49.3338 76.1329C49.3207 76.2083 49.2945 76.3624 49.2814 76.4411C46.728 76.4902 43.7223 76.1952 41.7196 78.0996C40.0774 79.6369 40.9427 82.0624 41.5491 83.8849C42.326 85.8286 41.8376 88.3459 43.5453 89.857C45.0367 90.6699 44.5778 92.6398 44.6991 94.0591C43.0012 95.4063 40.7526 95.0982 38.7728 95.6521C34.0233 96.8124 29.1493 98.2055 25.2454 101.287C19.4569 105.551 15.6874 112.238 14.5369 119.291C14.0682 122.454 13.6552 125.755 14.632 128.866C16.1299 133.874 19.8076 137.834 23.6098 141.256C25.9108 143.193 28.2971 145.055 30.9193 146.54C30.9226 150.243 30.6472 154.003 31.5552 157.635C32.7614 166.783 33.2727 176.007 33.9348 185.204C34.7018 196.441 35.3082 207.68 35.7343 218.933C35.8163 221.099 35.8917 223.272 35.8622 225.442C36.0523 225.472 36.4292 225.531 36.6161 225.56C36.5997 226.36 36.5964 227.163 36.5472 227.969C36.4227 228.038 36.1768 228.182 36.0556 228.255L35.9015 228.301C35.5508 230.107 35.1148 231.896 34.8592 233.719C34.6887 234.659 35.0919 235.744 36.0916 236H0V0ZM212.62 6.68667C212.63 6.83089 212.649 7.11933 212.659 7.26356C214.062 8.06006 215.52 8.76478 216.9 9.61044C217.054 9.61044 217.369 9.61372 217.523 9.61372C217.507 9.34167 217.49 9.07289 217.477 8.80411C216.196 8.21411 214.983 7.493 213.737 6.83417C213.403 6.59161 212.997 6.67028 212.62 6.68667ZM246.22 6.88006C245.017 7.552 243.814 8.23705 242.572 8.84017C242.618 9.06961 242.71 9.5285 242.756 9.75794C244.316 8.9975 245.807 8.10594 247.354 7.31928C247.358 7.14556 247.364 6.80139 247.367 6.63094C246.967 6.6375 246.561 6.66044 246.22 6.88006ZM209.893 16.2348C209.906 16.5397 209.919 16.8478 209.938 17.1526C211.354 17.1395 212.77 17.1428 214.19 17.1428C214.19 16.8511 214.196 16.5593 214.206 16.2643C212.767 16.1955 211.331 16.2316 209.893 16.2348ZM245.928 16.2447C245.935 16.5462 245.945 16.8511 245.961 17.1559C247.367 17.1264 248.777 17.1592 250.186 17.1297C250.199 16.8445 250.212 16.5626 250.229 16.2807C248.796 16.1791 247.361 16.2283 245.928 16.2447ZM83.5407 29.7327C83.6981 31.1323 82.977 32.5614 83.3965 33.9217C83.5407 33.9021 83.8325 33.866 83.98 33.8463C84.2487 32.7679 84.3536 31.6601 84.4487 30.5522C94.4263 30.5817 104.407 30.5358 114.385 30.5653C114.87 30.6243 115.902 30.5063 115.476 29.736C115.021 29.5819 114.529 29.6213 114.06 29.6082C104.774 29.6246 95.4915 29.6082 86.2056 29.6147C85.3173 29.6278 84.4159 29.5426 83.5407 29.7327Z" fill="white"/>
<path d="M223.266 10.8166C225.81 9.13842 229.022 8.33864 232.034 8.95814C237.744 9.84314 242.32 15.2187 242.428 20.9712C242.543 24.0752 241.395 27.2022 239.308 29.4967C237.334 31.3617 235.83 33.7447 235.158 36.3866C234.738 38.0288 233.352 39.3563 231.726 39.7856C230.618 39.9331 229.497 39.8643 228.389 39.7693C226.963 39.1825 225.698 38.091 225.279 36.5603C224.633 34.1577 223.407 31.896 221.634 30.1359C219.552 28.0283 217.999 25.2815 217.72 22.2954C217.281 17.8409 219.503 13.2389 223.266 10.8166ZM224.128 11.7934C219.608 14.5238 217.733 20.7417 220.051 25.4978C220.634 26.5729 221.155 27.943 222.397 28.3855C222.404 28.1758 222.411 27.7529 222.417 27.5431C220.909 25.7076 219.874 23.3804 220.011 20.9646C219.864 17.9163 221.44 14.9171 223.859 13.1045C224.413 12.603 225.164 12.3703 225.692 11.8327C225.695 10.8134 224.544 11.4656 224.128 11.7934ZM228.76 17.9294C227.983 18.4768 227.013 18.1392 226.137 18.2343C225.613 18.4899 225.046 18.7095 224.676 19.1782C224.138 19.7322 224.272 20.5943 224.263 21.299C224.226 22.4298 225.125 23.2263 225.58 24.1769C227.894 28.5691 228.629 33.6136 228.671 38.527C228.963 38.527 229.261 38.527 229.559 38.527C229.504 33.5382 228.76 28.4216 226.465 23.931C225.905 22.7641 224.757 21.7153 225.085 20.2992C225.374 19.293 226.468 19.0209 227.389 19.0635C226.803 20.2992 225.928 21.7874 226.711 23.1378C227.255 24.3473 229.097 24.3112 229.727 23.1968C230.467 21.7677 229.927 20.0272 229.022 18.8079C229.507 18.2572 230.572 18.5751 231.28 18.5948C230.88 19.5847 230.238 20.532 230.261 21.6431C230.166 22.774 231.221 23.872 232.372 23.7311C233.057 23.7376 233.48 23.1575 233.84 22.6625C233.857 21.7611 233.965 20.8008 233.483 19.9911C233.342 19.5749 232.801 18.9619 233.296 18.5948C234.253 18.4604 235.41 18.9816 235.613 20.0042C235.886 20.6729 235.574 21.3908 235.325 22.0135C232.634 27.2318 230.369 32.8958 230.313 38.8449C230.608 38.8515 230.903 38.8548 231.198 38.8548C231.244 32.9777 233.558 27.4022 236.2 22.2495C236.852 20.9548 236.685 19.1684 235.486 18.2474C234.479 17.582 233.119 17.6639 232.073 18.1785C231.09 17.5852 229.799 17.3263 228.76 17.9294ZM240.163 22.4233C239.612 25.1733 237.836 27.5563 235.502 29.0706C235.512 29.2312 235.528 29.5524 235.535 29.713C236.512 29.7917 237.164 28.9559 237.823 28.3691C239.445 26.7925 240.825 24.6816 240.884 22.3577C240.704 22.3741 240.343 22.4069 240.163 22.4233Z" fill="white"/>
<path d="M231.635 22.797C230.75 21.794 231.244 20.1944 232.133 19.3684C232.792 20.3616 233.211 21.5612 232.828 22.7445C232.428 22.7675 232.031 22.7839 231.635 22.797Z" fill="white"/>
<path d="M227.353 21.2596C227.593 20.7385 227.802 20.1976 228.111 19.7092C228.94 19.6076 228.914 20.7483 229.212 21.2891C229.389 22.22 228.851 23.4394 227.73 23.1116C227.36 22.5544 227.271 21.9119 227.353 21.2596Z" fill="white"/>
<path d="M209.263 40.0807C210.581 40.1528 211.561 41.3099 211.63 42.5947C211.741 44.4106 211.794 46.3216 211.066 48.0293C210.597 48.9831 211.364 49.914 211.525 50.8449C212.551 55.3027 211.738 59.944 210.591 64.3002C208.221 63.7528 206.461 61.8124 204.973 60.0063C205.038 59.7834 205.173 59.3409 205.241 59.118C206.88 55.7452 208.69 52.2019 208.411 48.3309C208.077 48.1997 207.746 48.0686 207.415 47.9408C207.028 47.2852 206.644 46.633 206.261 45.9807C206.798 46.5346 207.346 47.2754 208.237 47.0001C208.486 45.2235 208.162 43.4371 208.309 41.6573C208.336 40.9985 208.883 40.556 209.263 40.0807Z" fill="white"/>
<path d="M230.346 41.6409C230.978 41.0771 232.211 40.5297 232.699 41.5458C231.958 41.854 230.906 42.6275 230.346 41.6409Z" fill="white"/>
<path d="M228.576 43.7289C230.11 43.7682 231.516 43.0569 233.037 43.0078C232.981 43.1782 232.863 43.5158 232.807 43.6862C231.526 44.4401 230.015 44.5811 228.562 44.4729C228.566 44.2861 228.572 43.9157 228.576 43.7289Z" fill="white"/>
<path d="M113.453 44.9678C114.502 44.5679 115.469 43.9943 116.495 43.542C116.315 45.0596 116.089 46.5739 116.066 48.1079C116.351 48.0916 116.918 48.0555 117.203 48.0391C117.38 49.5141 116.393 50.8711 115.059 51.4087C114.115 53.0312 113.129 54.7717 111.398 55.6665C110.425 56.1516 109.061 56.1221 108.307 55.2535C107.186 54.2571 106.731 52.7853 106.334 51.3923C104.974 50.917 104.525 49.265 105.151 48.0424C105.41 48.0555 105.934 48.085 106.196 48.1014C106.59 47.3114 106.54 46.3314 106.744 45.4693C108.976 45.1284 111.287 45.7807 113.453 44.9678Z" fill="white"/>
<path d="M32.0341 49.1666C32.0013 48.1767 32.5388 47.2032 33.4206 46.7345C44.0111 46.7607 54.6049 46.7378 65.1986 46.7444C66.3328 46.5772 67.1161 47.8195 67.0112 48.8323C66.985 50.7957 67.0145 52.7656 66.808 54.7192C66.7589 58.0494 66.6769 61.3796 66.595 64.7066C66.5983 65.2999 66.2541 65.7981 65.9656 66.2865C65.7952 66.375 65.4543 66.5552 65.2839 66.647C57.6106 66.6569 49.9373 66.6503 42.264 66.6503C41.615 66.4962 41.3331 67.1616 40.989 67.5681C40.2121 68.5547 39.5828 69.6691 38.6453 70.5181C38.393 70.0854 38.2258 69.6134 38.0881 69.1349C37.8161 68.3023 37.5407 67.473 37.2326 66.6536C35.7347 66.6536 34.2335 66.6437 32.7355 66.6536C31.9915 66.2602 31.5457 65.431 31.6342 64.5919C31.7653 62.7334 31.5653 60.8486 31.8505 59.0065C31.9259 55.7255 31.9652 52.4444 32.0341 49.1666ZM39.1927 53.1917C39.7762 53.3687 40.3662 53.5621 40.9824 53.5228C46.771 53.4933 52.5628 53.5326 58.3514 53.5097C58.8856 53.4277 59.81 53.4704 59.8985 52.7624C60.0689 52.1232 59.9247 51.0448 59.0167 51.2284C52.6775 51.2218 46.3317 51.1792 39.9925 51.248C38.9895 51.3201 39.0354 52.4608 39.1927 53.1917ZM39.4353 55.5616C38.57 55.9779 38.9305 57.6036 40.0056 57.4365C46.3449 57.4561 52.6939 57.502 59.0299 57.4299C60.2689 57.4725 60.1181 55.4829 58.9741 55.519C52.4612 55.5386 45.945 55.4501 39.4353 55.5616ZM38.8682 61.0879C39.0288 61.7697 39.7139 61.9303 40.3236 61.8713C46.6202 61.8451 52.9201 61.8975 59.2134 61.8484C59.3675 61.3075 59.869 60.7142 59.4625 60.1701C59.1151 59.5408 58.3317 59.5179 57.7024 59.531C52.0154 59.5769 46.3252 59.5047 40.6382 59.5506C39.8286 59.5375 38.3962 60.0292 38.8682 61.0879Z" fill="white"/>
<path d="M175.388 49.4125L175.647 49.3043C177.23 50.2745 179.177 49.0093 180.717 50.0582C181.275 51.0088 180.753 52.0052 180.403 52.923C180.871 52.9984 181.347 52.9984 181.822 52.9197C181.747 53.3753 181.589 53.8047 181.35 54.2046C180.832 54.3685 180.304 54.4963 179.77 54.5783C179.786 57.2529 179.803 59.9309 179.911 62.6023C180.239 63.3693 181.419 63.2152 182.127 63.484C182.11 63.6184 182.078 63.8872 182.061 64.0215C181.229 64.0084 180.419 64.1822 179.613 64.346C177.866 64.4935 176.102 64.4673 174.355 64.3297C173.477 64.0314 172.47 64.074 171.7 63.5004C172.264 63.3004 172.844 63.1398 173.431 63.0022C173.752 62.8678 174.083 62.7662 174.427 62.6973C174.778 61.5894 175.083 60.4684 175.42 59.3605C175.542 58.8754 175.64 58.1871 176.312 58.2625C177.292 58.269 178.049 57.6332 178.806 57.0989C178.842 56.7613 178.879 56.4237 178.915 56.0893C178.4 56.0926 178.013 56.381 177.754 56.8039C176.6 57.6627 175.23 57.4365 173.936 57.1579C173.437 56.3155 173.562 55.319 173.746 54.4078C173.959 53.8473 173.457 53.3655 173.483 52.8214C174.047 51.6479 174.794 50.5728 175.388 49.4125Z" fill="white"/>
<path d="M107.688 56.0401C108.881 56.9153 110.487 57.207 111.821 56.4564C112.156 56.263 112.506 56.1057 112.87 55.9811C112.969 58.1936 112.454 60.3996 112.664 62.6088C112.752 62.7104 112.933 62.9136 113.024 63.0153C114.119 63.0415 115.234 63.0775 116.282 63.4545C115.247 65.2376 113.693 66.7978 111.707 67.4698C110.048 68.1646 108.206 68.1745 106.452 67.9254C106.134 67.7877 105.807 67.6762 105.469 67.5976C104.02 66.9158 102.889 65.7194 102.145 64.3165C102.09 64.0183 102.034 63.72 101.981 63.4217C103.181 63.1955 104.391 63.012 105.617 63.012C105.83 62.6809 106.069 62.3564 106.151 61.9664C106.701 59.9997 107.16 58.0101 107.688 56.0401Z" fill="white"/>
<path d="M49.4219 81.8658C50.0315 81.2201 50.9854 81.1283 51.8245 81.1053C52.3817 82.6688 52.6931 84.4159 54.0173 85.5598C52.7128 86.4973 53.4371 88.1886 53.2241 89.526C52.9389 90.8535 51.477 90.5585 50.474 90.7748C50.0446 91.9843 50.8346 93.3282 50.9821 94.577C49.199 94.6196 47.4159 94.5508 45.636 94.6622C45.8163 93.2233 45.2919 91.8204 45.4426 90.3782C45.6721 90.3552 46.1343 90.3028 46.3637 90.2766C47.5929 89.5522 48.9728 88.3525 48.6778 86.7628C48.2451 86.6546 47.8354 86.4907 47.4323 86.3105C47.0193 85.7237 46.9013 85.0288 46.9537 84.3241C47.5011 84.252 48.2714 84.6585 48.6319 84.0717C48.9663 83.3605 48.822 82.4427 49.4219 81.8658Z" fill="white"/>
<path d="M70.9934 85.0813C76.8705 85.0649 82.7508 85.0518 88.6279 85.0911C88.7328 88.2968 88.7393 91.5189 88.6246 94.7245C87.6413 95.5243 86.6776 96.3536 85.7762 97.2386C84.7929 100.133 84.7863 103.371 83.1442 106.026C81.9773 108.163 80.5056 110.238 78.3783 111.517C77.3261 112.041 76.1461 111.995 75.0087 111.913C73.1502 111.205 71.7506 109.612 70.9345 107.845C70.8492 101.945 70.9246 96.0356 70.8984 90.1324C70.9312 88.4476 70.8164 86.7595 70.9934 85.0813Z" fill="white"/>
<path d="M87.4409 96.9304C88.7487 95.7898 90.0172 94.6098 91.3185 93.4658C91.607 95.2588 89.8796 96.3994 88.9487 97.6843C88.7848 98.2907 89.1748 98.8315 89.365 99.3789C89.8861 100.624 90.2631 102.037 89.8992 103.375C89.2076 104.174 88.6143 106.02 87.2901 105.167C86.8017 104.987 86.3035 104.836 85.8086 104.669C85.6086 104.6 85.2087 104.459 85.0088 104.391C85.4382 102.299 85.943 100.225 86.415 98.1432C86.5067 97.5729 87.0377 97.2746 87.4409 96.9304Z" fill="white"/>
<path d="M200.668 99.3822C200.829 99.2675 201.157 99.0446 201.317 98.9299C202.543 98.8807 203.766 98.8905 204.992 98.9135C205.011 99.0446 205.051 99.3035 205.07 99.4347C213.675 99.4805 222.282 99.415 230.886 99.4674C231.722 100.572 231.237 101.985 231.109 103.23C230.598 107.291 230.054 111.349 229.493 115.404C229.356 116.355 228.497 117.243 227.49 117.144C215.12 117.158 202.75 117.148 190.379 117.148C190.189 117.04 189.806 116.817 189.616 116.705C189.399 115.201 189.596 113.683 189.832 112.195C190.337 108.58 190.792 104.961 191.268 101.342C191.297 100.579 191.868 100.028 192.333 99.4838C195.109 99.3658 197.895 99.5592 200.668 99.3822ZM196.07 105.371C196.099 105.692 196.132 106.013 196.168 106.334C206.11 106.275 216.054 106.282 225.993 106.331C226.032 106.01 226.071 105.689 226.114 105.371C216.097 105.377 206.083 105.377 196.07 105.371ZM195.424 109.629C195.46 109.94 195.499 110.255 195.542 110.569C202.176 110.553 208.81 110.586 215.445 110.553C215.474 110.248 215.51 109.943 215.543 109.642C208.837 109.612 202.13 109.635 195.424 109.629ZM218.696 109.638C218.752 109.986 218.683 110.553 219.201 110.559C221.282 110.484 223.449 110.759 225.478 110.418C225.521 110.232 225.609 109.861 225.652 109.674C223.338 109.57 221.014 109.648 218.696 109.638Z" fill="white"/>
<path d="M87.3164 114.319C87.7753 113.044 88.1719 111.743 88.6144 110.461C88.7455 111.825 88.6668 113.198 88.6996 114.568C88.2702 114.598 87.8408 114.627 87.4147 114.65L87.3164 114.319Z" fill="white"/>
<path d="M110.346 114.558C111.808 114.591 113.276 114.637 114.735 114.47C115.174 114.29 115.636 114.191 116.118 114.168C116.364 116.42 116.941 118.649 116.889 120.927C116.823 121.946 115.895 122.566 115.086 123.015C114.735 123.067 114.404 123.176 114.093 123.333C113.309 123.431 112.523 123.418 111.739 123.379C110.857 123.025 110.274 122.274 109.877 121.445C109.71 121.448 109.369 121.451 109.199 121.455C109.019 120.855 109.16 119.967 108.429 119.714C107.557 119.183 107.675 117.993 107.639 117.112C108.284 116.853 108.93 117.908 109.441 117.341C109.579 116.348 110.323 115.571 110.346 114.558Z" fill="white"/>
<path d="M28.3956 119.875C28.8578 119.524 29.3232 119.173 29.7231 118.754C29.7034 123.438 29.0348 128.092 28.625 132.753C26.9632 130.478 25.9569 127.715 25.7832 124.903C25.8389 122.933 26.8616 121.081 28.3956 119.875Z" fill="white"/>
<path d="M109.176 121.953C109.907 124.103 112.591 124.916 114.571 124.031C114.65 125.663 114.542 127.296 114.568 128.931C115.079 129.046 115.581 129.2 116.089 129.344C115.846 129.725 115.515 130.033 115.102 130.229C114.476 130.567 113.883 130.964 113.267 131.324C112.991 131.527 112.716 131.737 112.447 131.947C109.91 132.193 107.504 131.026 104.99 130.908C105.01 130.757 105.049 130.462 105.069 130.315C105.298 130.305 105.754 130.285 105.983 130.275C107.173 127.555 108.153 124.742 109.176 121.953Z" fill="white"/>
<path d="M175.109 131.613C175.649 130.711 175.863 129.62 176.525 128.8C176.495 129.734 176.351 130.659 176.243 131.59C177.36 131.563 178.521 131.731 179.606 131.386C180.527 131.183 181.582 131.141 182.326 130.501C182.838 131.57 182.048 132.786 182.382 133.92C182.641 133.91 183.162 133.894 183.421 133.884C183.228 134.956 182.723 136.421 181.471 136.578C180.615 138.076 179.711 139.669 178.164 140.554C177.495 141.003 176.659 140.794 175.912 140.797C174.506 139.817 173.916 138.171 173.45 136.598C173.267 136.556 172.906 136.467 172.726 136.424C172.257 135.634 172.054 134.733 172.345 133.838C172.621 133.851 173.171 133.871 173.447 133.881C173.588 133.111 173.735 132.34 173.883 131.573C174.289 131.586 174.699 131.6 175.109 131.613Z" fill="white"/>
<path d="M174.407 142.259C174.561 141.846 174.515 141.282 174.954 141.036C175.259 141.302 175.584 141.544 175.931 141.761C177.186 141.98 178.337 141.557 179.425 140.99C179.281 143.078 179.074 145.173 179.183 147.267C180.215 147.287 181.225 147.52 182.247 147.664C182.149 148.113 181.975 148.539 181.707 148.919C180.799 150.004 179.642 150.906 178.304 151.394C176.947 151.918 175.462 152.04 174.027 151.859C173.676 151.718 173.322 151.614 172.958 151.541C171.3 150.899 169.913 149.47 169.536 147.706C170.152 147.651 170.808 147.693 171.391 147.431C171.962 147.356 172.539 147.307 173.115 147.261C173.555 145.596 174.007 143.934 174.407 142.259Z" fill="white"/>
<path d="M115.391 144.806C115.732 145.304 115.882 145.897 116.089 146.458C116.81 148.011 117.879 149.463 119.327 150.411C119.662 150.512 119.993 150.62 120.327 150.729C121.186 151.096 122.074 151.387 122.962 151.679C123.362 151.846 123.772 152.004 124.175 152.174C124.644 152.338 125.106 152.518 125.578 152.676C126.879 153.239 128.223 153.708 129.515 154.305C130.406 154.777 131.481 154.97 132.255 155.613C132.216 156.484 132.042 157.34 131.924 158.202C128.253 158.14 124.575 158.251 120.907 158.15C120.766 158.087 120.484 157.959 120.343 157.897C118.904 156.92 117.374 156.091 115.938 155.114C115.214 154.58 114.004 154.809 113.614 153.882C113.26 153.013 113.49 152.053 113.303 151.148C113.676 150.388 113.699 149.536 113.929 148.736C114.358 148.48 114.837 148.349 115.338 148.349C115.24 147.169 114.886 145.943 115.391 144.806Z" fill="white"/>
<path d="M168.56 147.854C169.307 150.499 171.641 152.492 174.362 152.83C175.122 152.853 175.912 152.961 176.646 152.699C177.194 152.617 177.764 152.587 178.288 152.374C180.189 151.725 181.841 150.43 182.907 148.726C183.467 148.585 183.995 149.008 184.546 149.093C184.877 149.201 185.211 149.309 185.549 149.414C185.958 149.568 186.375 149.706 186.794 149.857C187.269 150.021 187.741 150.191 188.22 150.362C189.331 150.886 190.449 151.397 191.527 151.991C195.398 154.17 198.974 157.222 200.925 161.293C202.413 164.574 202.777 168.425 201.639 171.87C198.073 171.929 194.507 171.857 190.941 171.91C190.741 169.117 189.456 166.436 187.42 164.522C187.24 164.459 186.873 164.331 186.693 164.269C186.538 165.344 186.611 166.432 186.565 167.514C186.276 168.956 186.486 170.441 186.329 171.903C176.368 171.88 166.406 171.893 156.448 171.897C156.839 170.215 157.645 168.648 157.894 166.934C156.881 166.875 156.117 167.583 155.232 167.934C153.128 168.835 150.916 169.615 148.611 169.717C149.064 166.272 149.477 162.82 149.955 159.379C150.44 159.231 150.932 159.097 151.414 158.943C153.521 157.855 155.085 156.029 156.455 154.144C158.474 151.882 160.641 149.529 163.597 148.539C164.191 148.218 164.908 148.392 165.512 148.09C166.524 147.965 167.544 147.916 168.56 147.854Z" fill="white"/>
<path d="M42.4375 154.977C42.5752 154.872 42.8472 154.655 42.9849 154.55C44.4599 156.189 45.7579 157.989 47.1739 159.683C47.4886 159.956 47.3411 160.388 47.3771 160.749C47.2362 160.745 46.9576 160.739 46.8166 160.736C45.5612 159.13 44.296 157.537 43.0078 155.96C42.7686 155.662 42.5588 155.34 42.4375 154.977Z" fill="white"/>
<path d="M47.0005 170.441C47.0858 168.655 47.0104 166.849 47.3906 165.089C47.9052 165.092 48.4198 165.092 48.9344 165.092C51.5599 170.215 53.9265 175.466 56.4471 180.642C57.3124 182.664 58.5678 184.542 59.0464 186.715C59.3905 188.479 59.2135 190.298 58.8071 192.035C56.7519 202.881 54.7197 213.734 52.6678 224.58C52.481 225.072 52.6678 225.498 53.0644 225.823C53.0022 226.003 52.8842 226.36 52.8252 226.537C52.4744 226.586 52.1237 226.629 51.773 226.675C51.1994 228.838 50.4422 230.949 49.8817 233.116C49.5867 234.079 49.862 235.348 50.8159 235.839C51.7009 235.997 52.6023 235.961 53.4971 236H43.5392C44.3357 235.541 44.8831 234.633 44.6569 233.699C44.3193 232.04 44.0473 230.369 43.69 228.717C43.6965 228.176 43.0803 228.225 42.7263 228.091C42.7067 227.252 42.6608 226.416 42.5723 225.586C43.0443 225.524 43.5097 225.442 43.9817 225.364C44.1587 218.307 44.7127 211.272 45.0667 204.225C45.7517 192.966 46.2696 181.7 47.0005 170.441Z" fill="white"/>
<path d="M52.4674 227.481C53.8572 227.632 54.8438 228.674 55.6796 229.694C56.2073 229.287 56.7711 228.936 57.3513 228.615C57.82 228.838 58.3641 228.986 58.6919 229.422C59.9964 230.982 61.6157 232.227 63.2119 233.47L63.1431 233.597C59.7965 233.571 56.4663 233.224 53.1196 233.191C52.3526 233.119 51.3496 233.404 50.8711 232.608C51.543 230.942 51.9134 229.182 52.4674 227.481Z" fill="white"/>
<path d="M36.6224 228.976C38.6775 228.936 40.736 228.969 42.7944 228.963C43.1648 230.49 43.3681 232.054 43.7909 233.571C41.1916 233.683 38.5858 233.535 35.9865 233.647C35.9963 233.85 36.0094 234.259 36.0193 234.466C38.553 234.551 41.0933 234.486 43.627 234.492C43.4992 235.495 42.3487 235.266 41.6243 235.302C39.7363 235.2 37.8122 235.498 35.9504 235.089C35.4194 233.027 36.5011 231.024 36.6224 228.976Z" fill="white"/>
<path d="M50.5107 233.945C53.2247 234.125 55.942 234.21 58.6626 234.269C60.0819 234.443 61.511 234.492 62.9401 234.495C63.4219 234.633 63.6186 233.807 64.0971 234.174C64.6937 234.361 64.933 234.905 64.9657 235.498C60.5801 235.639 56.1944 235.213 51.8055 235.161C51.0778 235.272 50.7631 234.446 50.5107 233.945Z" fill="white"/>
<path d="M229.707 0H230.621C230.605 1.87161 230.638 3.7465 230.503 5.61483C230.303 5.60828 229.91 5.59517 229.713 5.59189C229.553 3.73011 229.779 1.86506 229.707 0Z" fill="#202D61"/>
<path d="M212.62 6.68664C212.997 6.67025 213.404 6.59159 213.738 6.83414C214.983 7.49297 216.196 8.21409 217.478 8.80409C217.491 9.07286 217.507 9.34164 217.524 9.6137C217.37 9.6137 217.055 9.61042 216.901 9.61042C215.521 8.76475 214.062 8.06003 212.659 7.26353C212.65 7.11931 212.63 6.83086 212.62 6.68664Z" fill="#202D61"/>
<path d="M246.22 6.88003C246.561 6.66042 246.968 6.63748 247.368 6.63092C247.364 6.80136 247.358 7.14553 247.355 7.31925C245.807 8.10592 244.316 8.99748 242.756 9.75792C242.71 9.52848 242.618 9.06959 242.572 8.84014C243.815 8.23703 245.017 7.55198 246.22 6.88003Z" fill="#202D61"/>
<path d="M225.547 8.66644C227.612 7.85356 229.881 7.81422 232.06 8.04039C236.613 8.75167 240.596 12.0458 242.32 16.2906C244.322 21.0106 243.26 26.8614 239.609 30.4899C237.649 32.3582 236.393 34.8493 235.758 37.4617C240.094 37.4814 244.434 37.4224 248.77 37.4847C251.452 37.6191 253.399 40.3822 253.1 42.9586C248.039 82.6197 242.965 122.281 237.898 161.942C237.714 163.364 236.531 164.744 235.036 164.777C232.955 164.839 230.87 164.721 228.789 164.826C227.93 164.987 227.055 164.977 226.186 164.967C219.828 164.944 213.465 164.987 207.103 164.948C206.998 165.695 206.887 166.446 206.753 167.193C206.464 168.999 206.317 170.828 206.002 172.631C187.709 172.621 169.415 172.634 151.122 172.631C149.854 172.634 148.582 172.555 147.32 172.716C147.674 170.163 148.008 167.606 148.333 165.049C140.971 165.036 133.609 165.046 126.247 165.046C107.206 165.125 88.1658 165.043 69.1284 165.125C68.9252 165.171 68.5155 165.262 68.309 165.308C69.6889 170.481 70.9181 175.695 72.2423 180.884C72.6848 182.612 73.0716 184.411 72.7635 186.197C72.5701 187.718 71.9866 189.141 71.5343 190.596C67.6829 202.403 63.8577 214.219 59.9867 226.019C59.7474 226.013 59.2721 226.003 59.0329 225.996C57.1154 225.845 55.2011 225.639 53.2771 225.583C53.1263 225.898 52.9755 226.216 52.8248 226.537C52.8838 226.36 53.0018 226.003 53.064 225.823C52.6674 225.498 52.4806 225.072 52.6674 224.58C54.7193 213.734 56.7515 202.881 58.8067 192.035C59.2131 190.298 59.3901 188.479 59.046 186.715C58.5674 184.542 57.312 182.664 56.4467 180.642C53.9261 175.466 51.5595 170.215 48.934 165.092C48.4194 165.092 47.9048 165.092 47.3902 165.089C47.01 166.849 47.0854 168.655 47.0001 170.441C46.2692 181.7 45.7513 192.966 45.0662 204.225C44.7122 211.272 44.1583 218.307 43.9813 225.364C43.5093 225.442 43.0439 225.524 42.5719 225.587C40.5921 225.505 38.5926 225.328 36.6161 225.56C36.4293 225.531 36.0524 225.472 35.8622 225.442C35.8917 223.272 35.8164 221.099 35.7344 218.933C35.3083 207.68 34.7019 196.441 33.9349 185.204C33.2728 176.007 32.7615 166.783 31.5552 157.635C30.6473 154.003 30.9226 150.244 30.9194 146.54C28.2971 145.055 25.9109 143.193 23.6099 141.256C19.8077 137.834 16.13 133.874 14.6321 128.866C13.6553 125.755 14.0683 122.455 14.537 119.291C15.6875 112.238 19.457 105.551 25.2455 101.287C29.1494 98.2055 34.0234 96.8125 38.7729 95.6521C40.7527 95.0982 43.0012 95.4063 44.6991 94.0591C44.5779 92.6398 45.0368 90.6699 43.5454 89.857C41.8376 88.346 42.326 85.8286 41.5492 83.8849C40.9428 82.0624 40.0775 79.6369 41.7196 78.0996C43.7224 76.1952 46.7281 76.4902 49.2815 76.4411C49.2946 76.3624 49.3208 76.2083 49.3339 76.1329C50.4484 75.815 51.5989 75.2676 52.7821 75.5888C53.6311 75.8904 54.4079 76.6836 54.2965 77.6506C54.3292 78.9584 53.4213 79.9712 52.5822 80.8595C52.9001 81.5216 53.1591 82.21 53.3689 82.9147C53.6114 83.8751 54.421 84.5273 54.8635 85.3861C55.1651 86.0122 54.4931 86.4186 54.208 86.8841C54.067 88.087 54.244 89.3621 53.7589 90.506C53.264 91.391 52.1233 91.4172 51.2514 91.6631C51.4317 92.4727 51.6087 93.2856 51.7496 94.105C52.9591 95.167 54.5947 94.7475 56.0501 94.9671C58.079 95.2981 60.2522 95.1801 62.0976 96.2388C66.0735 98.3268 68.0926 102.617 69.9741 106.475C70.1609 99.6018 69.9774 92.7251 70.0659 85.8516C70.1019 85.3828 70.2527 84.9338 70.3773 84.4847C72.3898 83.839 74.5335 84.252 76.6083 84.1438C77.3655 78.8338 77.9883 73.5042 78.6995 68.1843C78.9814 65.6539 79.4567 63.1431 79.6042 60.5996C79.791 60.4783 80.1647 60.2324 80.3515 60.1112C80.4499 60.6258 80.5285 61.1469 80.4466 61.6714C79.4141 69.148 78.5422 76.6443 77.4933 84.1143C79.2109 84.1537 80.9317 84.1799 82.6493 84.0947C83.5277 81.1512 84.5504 78.2504 85.5534 75.3463C85.8713 74.7891 85.337 74.3367 85.0748 73.9041C83.9473 72.3701 83.1147 70.4198 83.5179 68.4892C83.9702 66.5586 85.6058 65.2114 87.2939 64.3428C89.9784 62.8875 93.3414 62.4449 95.3998 59.9932C97.1829 58.0068 95.3965 55.0536 96.8355 52.9263C97.9794 51.2022 100.267 50.7269 101.388 48.9798C102.25 47.5474 102.244 45.8201 102.457 44.2107C102.85 41.2902 104.46 38.3828 107.157 37.0192C109.635 35.6098 112.634 35.5836 115.375 36.0326C117.479 36.3768 119.518 37.8256 120.022 39.9791C120.776 43.4011 119.439 46.8853 120.042 50.3172C120.501 52.0806 121.393 53.8375 121.025 55.7157C120.698 58.3149 118.813 60.2718 117.043 62.0352C119.042 62.1631 121.078 62.0746 123.038 62.5892C124.956 63.1529 126.463 64.7591 127.152 66.6077C129.659 73.396 130.623 80.6071 131.888 87.6969C132.629 87.6674 133.373 87.6511 134.117 87.6281C134.169 86.8218 134.238 86.0155 134.356 85.2157C136.729 67.0043 139.063 48.7864 141.439 30.5718C140.351 30.5522 139.266 30.5522 138.181 30.5817C138.135 30.2703 138.09 29.9589 138.047 29.6475C139.515 29.5918 140.984 29.6049 142.456 29.6344C142.043 32.1714 141.885 34.7444 141.413 37.2683C141.8 37.347 142.19 37.3994 142.583 37.4289C147.166 37.4781 151.748 37.4552 156.33 37.4617C156.307 37.6617 156.258 38.0616 156.235 38.2615C151.292 38.2418 146.35 38.2943 141.407 38.1959C141.2 39.1072 141.079 40.0348 140.971 40.9624C138.958 56.7908 136.841 72.6093 134.858 88.4377C133.845 88.6606 132.806 88.6016 131.777 88.5983C117.718 88.5983 103.66 88.5983 89.6014 88.5951C89.6047 90.3126 89.5752 92.0335 89.6408 93.751C90.1357 93.3478 90.6175 92.9316 91.1026 92.5153C91.5222 92.8824 92.3679 93.0332 92.3023 93.7379C92.322 95.4981 90.8142 96.6814 89.9292 98.0383C90.0996 99.1659 90.7126 100.182 90.8994 101.313C90.9027 102.122 91.0305 102.978 90.6962 103.742C90.4209 104.299 89.9554 104.735 89.6408 105.269C89.5195 105.695 89.7817 106.102 89.8866 106.508C89.3556 108.219 89.6899 110.032 89.5981 111.792C89.5031 112.978 89.8931 114.339 89.1524 115.378C88.3526 115.912 86.8251 115.122 86.5334 116.374C84.8847 120.547 82.5214 124.903 78.2603 126.873C75.2087 128.102 71.5343 128.132 68.6892 126.352C67.5158 125.726 66.6144 124.69 65.395 124.149C64.4051 128.21 66.693 132.029 66.7193 136.038C66.7815 138.696 65.041 141.131 62.6286 142.157C64.3396 149.578 66.2964 156.943 68.109 164.341C78.1849 164.354 88.2608 164.276 98.3367 164.302C104.453 164.272 110.573 164.364 116.686 164.259C117.895 164.371 119.088 164.105 120.295 164.105C129.249 164.122 138.201 164.092 147.153 164.118C147.576 164.033 148.169 164.263 148.497 163.918C149.283 157.353 150.204 150.804 151.011 144.239C151.063 143.717 151.266 143.229 151.437 142.741C151.804 142.921 151.978 143.193 151.958 143.563C151.427 148.487 150.571 153.38 150.188 158.317C152.977 157.71 154.524 155.003 156.249 152.977C158.412 150.709 160.765 148.326 163.905 147.539C166.072 147.149 168.255 146.815 170.451 146.658C170.959 144.639 171.559 142.446 170.753 140.423C170.291 138.879 168.996 137.791 168.445 136.3C167.495 133.297 168.206 129.944 169.953 127.374C171.946 124.405 175.587 122.982 179.042 122.733C179.465 121.674 179.953 120.642 180.471 119.626C180.327 120.163 180.173 120.698 180.022 121.235C180.599 119.593 181.609 118.154 183.1 117.223C183.91 117.177 184.844 117.092 185.453 117.751C187.23 119.56 187.512 122.828 185.689 124.71C185.342 125.152 184.657 125.67 185.096 126.286C186.299 128.2 187.515 130.197 187.915 132.458C188.145 133.933 188.187 135.523 189.016 136.818C189.987 138.234 191.639 139.188 193.369 139.197C196.162 139.463 199.322 139.502 201.449 141.62C203.717 144.317 204.383 147.992 204.334 151.424C204.16 154.141 203.727 156.888 202.619 159.392C202.314 160.178 201.767 161.004 202.101 161.876C203.344 165.053 203.406 168.612 202.645 171.91C203.524 171.9 204.409 171.897 205.294 171.887C207.044 158.848 208.647 145.786 210.388 132.743C210.696 130.8 210.824 128.83 211.23 126.902L211.892 126.935C211.945 128.453 211.561 129.938 211.413 131.442C210.066 142.318 208.509 153.167 207.251 164.053C214.216 164.03 221.181 164.059 228.143 164.04C229.828 164.066 231.336 162.614 231.398 160.932C236.315 122.9 241.156 84.8584 246.079 46.8296C246.305 44.8072 246.882 42.5324 245.712 40.6903C244.627 38.8154 242.31 38.1009 240.251 38.2517C238.436 38.3729 236.554 37.9763 234.797 38.5598C234.951 39.4382 235.322 40.3134 235.017 41.2049C234.807 41.9719 235.541 42.8438 234.951 43.5289C234.355 44.2533 233.886 45.0694 233.312 45.8069C231.913 47.0066 229.854 46.9345 228.16 46.5576C226.508 46.1937 225.888 44.4565 224.984 43.2372C225.144 41.7196 224.61 40.0512 225.485 38.6843C225.338 38.5762 225.043 38.3566 224.895 38.2451C223.899 38.2517 222.899 38.3041 221.906 38.2058C221.843 38.0288 221.716 37.6748 221.65 37.4945C222.594 37.4617 223.545 37.4584 224.492 37.4748C224.141 34.7412 222.548 32.3287 220.65 30.4014C217.861 27.5006 216.268 23.3869 216.9 19.3553C217.536 14.5632 220.971 10.2627 225.547 8.66644ZM223.266 10.8167C219.503 13.2389 217.281 17.8409 217.72 22.2954C217.999 25.2815 219.552 28.0283 221.634 30.1359C223.407 31.8961 224.633 34.1577 225.279 36.5603C225.698 38.0911 226.963 39.1826 228.389 39.7693C229.497 39.8643 230.618 39.9332 231.726 39.7857C233.352 39.3563 234.738 38.0288 235.158 36.3866C235.83 33.7447 237.334 31.3618 239.307 29.4967C241.395 27.2023 242.543 24.0753 242.428 20.9712C242.32 15.2187 237.744 9.84317 232.034 8.95817C229.022 8.33867 225.81 9.13844 223.266 10.8167ZM225.96 39.7693C225.534 40.0807 225.869 40.6117 225.96 41.0017C226.206 41.5491 225.947 42.1194 225.718 42.6177C225.855 42.952 225.996 43.2863 226.144 43.6207C226.327 43.6895 226.701 43.8272 226.885 43.8993C226.944 44.2467 227.006 44.5942 227.068 44.9449C228.058 45.8496 229.468 46.0626 230.766 45.9938C231.424 45.7545 232.142 45.6201 232.735 45.2268C233.089 44.7941 233.027 44.1091 233.522 43.7747C233.761 43.4994 234.184 43.3224 234.247 42.9225C234.433 42.3751 233.893 41.8802 234.053 41.3361C234.191 40.8149 234.276 40.2773 234.25 39.7365C233.938 39.7857 233.65 39.884 233.381 40.0282C231.926 40.9591 230.08 40.8772 228.448 40.6281C227.534 40.5691 226.875 39.6546 225.96 39.7693ZM113.454 44.9678C111.287 45.7807 108.976 45.1284 106.744 45.4693C106.541 46.3314 106.59 47.3114 106.197 48.1014C105.935 48.085 105.41 48.0555 105.151 48.0424C104.525 49.265 104.974 50.917 106.334 51.3923C106.731 52.7853 107.187 54.2571 108.308 55.2535C109.062 56.1221 110.425 56.1516 111.399 55.6665C113.129 54.7717 114.116 53.0312 115.06 51.4087C116.394 50.8711 117.381 49.5141 117.204 48.0391C116.918 48.0555 116.351 48.0916 116.066 48.1079C116.089 46.5739 116.315 45.0596 116.496 43.542C115.47 43.9943 114.503 44.5679 113.454 44.9678ZM107.688 56.0402C107.16 58.0101 106.702 59.9997 106.151 61.9664C106.069 62.3564 105.83 62.681 105.617 63.012C104.391 63.012 103.181 63.1956 101.982 63.4217C102.034 63.72 102.09 64.0183 102.145 64.3166C102.89 65.7194 104.02 66.9158 105.469 67.5976C105.807 67.6763 106.135 67.7877 106.452 67.9254C108.206 68.1745 110.048 68.1647 111.707 67.4698C113.693 66.7978 115.247 65.2376 116.283 63.4545C115.234 63.0776 114.119 63.0415 113.024 63.0153C112.933 62.9137 112.752 62.7104 112.664 62.6088C112.454 60.3996 112.969 58.1937 112.87 55.9812C112.507 56.1057 112.156 56.2631 111.821 56.4565C110.487 57.2071 108.881 56.9153 107.688 56.0402ZM117.308 63.0481C116.732 64.9918 115.214 66.4701 113.595 67.6009C111.549 68.7645 109.163 69.2332 106.829 68.912C104.089 68.4039 101.769 66.3357 101.015 63.6413C99.1201 63.6217 97.2616 64.0019 95.39 64.2051C92.417 64.5886 89.7817 66.6995 88.7295 69.4987C86.7629 74.2843 85.065 79.1911 83.6031 84.1504C85.1371 84.1373 86.6744 84.1471 88.2116 84.1471C88.5493 84.2717 88.8836 84.393 89.2245 84.5142C89.7489 85.4812 89.5752 86.5956 89.6342 87.6478C103.398 87.6806 117.164 87.6609 130.928 87.6609C129.816 80.6923 128.738 73.6582 126.349 66.9912C125.89 65.6736 124.949 64.546 123.746 63.8446C121.776 62.8022 119.455 63.1136 117.308 63.0481ZM49.4224 81.8658C48.8226 82.4427 48.9668 83.3604 48.6325 84.0717C48.2719 84.6584 47.5016 84.252 46.9543 84.3241C46.9018 85.0288 47.0198 85.7237 47.4328 86.3105C47.836 86.4907 48.2457 86.6546 48.6784 86.7628C48.9734 88.3525 47.5934 89.5522 46.3642 90.2766C46.1348 90.3028 45.6726 90.3552 45.4432 90.3782C45.2924 91.8204 45.8169 93.2233 45.6366 94.6622C47.4164 94.5508 49.1995 94.6196 50.9826 94.577C50.8351 93.3282 50.0452 91.9843 50.4746 90.7748C51.4776 90.5584 52.9395 90.8535 53.2246 89.526C53.4377 88.1886 52.7133 86.4973 54.0179 85.5598C52.6936 84.4159 52.3823 82.6688 51.825 81.1053C50.9859 81.1283 50.0321 81.2201 49.4224 81.8658ZM70.9935 85.0813C70.8165 86.7595 70.9312 88.4476 70.8984 90.1323C70.9246 96.0356 70.8493 101.945 70.9345 107.845C71.7506 109.612 73.1503 111.205 75.0088 111.913C76.1461 111.995 77.3261 112.041 78.3783 111.517C80.5056 110.238 81.9773 108.163 83.1442 106.026C84.7864 103.371 84.7929 100.133 85.7763 97.2386C86.6776 96.3536 87.6413 95.5243 88.6246 94.7245C88.7394 91.5188 88.7328 88.2968 88.6279 85.0911C82.7509 85.0518 76.8705 85.0649 70.9935 85.0813ZM87.4414 96.9305C87.0382 97.2746 86.5072 97.5729 86.4154 98.1432C85.9434 100.225 85.4386 102.299 85.0093 104.391C85.2092 104.46 85.6091 104.6 85.809 104.669C86.304 104.836 86.8022 104.987 87.2906 105.168C88.6148 106.02 89.2081 104.174 89.8997 103.375C90.2635 102.037 89.8866 100.625 89.3654 99.379C89.1753 98.8316 88.7853 98.2907 88.9491 97.6843C89.88 96.3995 91.6074 95.2588 91.319 93.4658C90.0177 94.6098 88.7492 95.7898 87.4414 96.9305ZM30.7751 99.084C25.6126 101.349 21.286 105.41 18.5884 110.356C16.2152 114.568 15.0484 119.413 14.9336 124.225C14.7075 128.069 16.4742 131.701 18.7162 134.713C21.9317 138.925 26.0977 142.288 30.4441 145.268C30.7686 145.379 31.0996 145.458 31.4405 145.501C31.788 144.907 32.0731 144.258 32.0109 143.554C30.8571 142.816 29.641 142.043 29.0445 140.751C28.1169 139.371 28.2381 137.663 28.2939 136.084C28.4905 136.103 28.8839 136.149 29.0805 136.169C28.5692 138.991 30.1819 142.288 33.0958 142.977C35.3804 143.967 37.8453 144.448 40.3102 144.717C43.3684 144.747 46.4691 144.979 49.4847 144.366C53.4738 143.652 57.3186 142.338 61.2814 141.508C63.8741 141.161 66.0145 138.657 65.7785 136.021C66.0047 133.081 64.4248 130.406 64.3789 127.496C64.3658 125.759 64.3035 123.985 64.8149 122.304C65.9031 122.812 66.6111 123.831 67.578 124.52C69.8069 126.332 72.8323 127.532 75.7069 126.748C79.2764 126.021 82.151 123.32 83.8063 120.167C85.9369 116.338 87.0939 112.084 88.5394 107.977C88.7361 107.488 88.7197 106.96 88.6673 106.449C87.189 106.334 85.9467 105.354 84.4651 105.318C83.8915 106.761 83.0033 108.045 82.1281 109.317C80.676 111.208 78.5684 113.031 76.0314 112.903C74.0385 112.936 72.3275 111.605 71.2164 110.051C68.9252 106.875 67.6862 103.053 65.2213 99.9886C63.8807 98.4513 62.2844 97.0058 60.2882 96.429C55.1159 95.4194 49.8092 95.403 44.5484 95.6062C39.8382 96.1766 35.151 97.2189 30.7751 99.084ZM87.3168 114.319L87.2611 114.145C87.2676 114.352 87.2808 114.762 87.2873 114.968C87.7691 114.889 88.3624 115.001 88.7 114.568C88.6673 113.198 88.7459 111.825 88.6148 110.461C88.1723 111.743 87.7757 113.044 87.3168 114.319ZM175.109 131.613C174.699 131.6 174.289 131.586 173.883 131.573C173.735 132.34 173.588 133.111 173.447 133.881C173.172 133.871 172.621 133.851 172.346 133.838C172.054 134.733 172.257 135.634 172.726 136.424C172.906 136.467 173.267 136.556 173.45 136.598C173.916 138.171 174.506 139.817 175.912 140.797C176.659 140.794 177.495 141.003 178.164 140.554C179.711 139.669 180.616 138.076 181.471 136.578C182.723 136.421 183.228 134.956 183.421 133.884C183.162 133.894 182.641 133.91 182.382 133.92C182.048 132.786 182.838 131.57 182.326 130.501C181.582 131.141 180.527 131.183 179.606 131.386C178.521 131.731 177.361 131.563 176.243 131.59C176.351 130.659 176.495 129.734 176.525 128.8C175.863 129.62 175.65 130.711 175.109 131.613ZM174.407 142.259C174.008 143.934 173.555 145.596 173.116 147.261C172.539 147.307 171.962 147.356 171.392 147.431C170.808 147.693 170.153 147.651 169.537 147.707C169.914 149.47 171.3 150.899 172.959 151.542C173.322 151.614 173.676 151.719 174.027 151.859C175.463 152.04 176.948 151.918 178.305 151.394C179.642 150.906 180.799 150.004 181.707 148.919C181.976 148.539 182.15 148.113 182.248 147.664C181.225 147.52 180.216 147.287 179.183 147.267C179.075 145.173 179.281 143.078 179.426 140.99C178.337 141.557 177.187 141.98 175.932 141.761C175.584 141.544 175.26 141.302 174.955 141.036C174.516 141.282 174.561 141.846 174.407 142.259ZM168.56 147.854C167.544 147.916 166.524 147.965 165.512 148.09C164.908 148.392 164.191 148.218 163.597 148.539C160.641 149.529 158.474 151.882 156.455 154.144C155.085 156.029 153.521 157.855 151.414 158.943C150.932 159.097 150.44 159.231 149.955 159.379C149.477 162.82 149.064 166.272 148.611 169.717C150.916 169.615 153.128 168.835 155.232 167.934C156.117 167.583 156.881 166.875 157.894 166.934C157.645 168.648 156.839 170.215 156.448 171.897C166.406 171.893 176.368 171.88 186.329 171.903C186.486 170.441 186.276 168.956 186.565 167.514C186.611 166.432 186.538 165.344 186.693 164.269C186.873 164.331 187.24 164.459 187.42 164.522C189.456 166.436 190.741 169.117 190.941 171.91C194.507 171.857 198.073 171.929 201.639 171.87C202.777 168.425 202.413 164.574 200.925 161.293C198.974 157.222 195.398 154.17 191.527 151.991C190.449 151.397 189.331 150.886 188.22 150.362C187.741 150.191 187.269 150.021 186.794 149.857C186.375 149.706 185.958 149.568 185.549 149.414C185.211 149.309 184.877 149.201 184.546 149.093C183.995 149.008 183.467 148.585 182.907 148.726C181.841 150.43 180.189 151.725 178.288 152.374C177.764 152.587 177.193 152.617 176.646 152.699C175.912 152.961 175.122 152.853 174.362 152.83C171.641 152.492 169.307 150.499 168.56 147.854ZM42.4375 154.977C42.5587 155.34 42.7685 155.662 43.0078 155.96C44.296 157.537 45.5612 159.13 46.8166 160.736C46.9575 160.739 47.2361 160.746 47.3771 160.749C47.341 160.388 47.4885 159.956 47.1739 159.684C45.7579 157.989 44.4599 156.189 42.9849 154.551C42.8472 154.655 42.5751 154.872 42.4375 154.977ZM47.4525 162.204C47.3705 162.902 47.3607 163.614 47.3705 164.322C47.7278 164.335 48.0851 164.354 48.4456 164.374C48.3637 163.561 48.0457 162.781 47.4525 162.204ZM150.411 170.353L150.168 170.536C149.677 170.559 149.185 170.579 148.7 170.599C148.447 170.975 148.061 171.556 148.621 171.88C150.893 171.933 153.167 171.89 155.439 171.89C155.816 170.795 156.144 169.681 156.583 168.609C156.373 168.622 155.95 168.652 155.74 168.665C154.039 169.422 152.266 170.104 150.411 170.353ZM187.368 169.35C187.302 170.192 187.283 171.041 187.312 171.89C188.053 171.893 188.797 171.923 189.544 171.89C190.413 171.326 189.574 170.172 189.521 169.36C188.803 169.337 188.082 169.333 187.368 169.35Z" fill="#202D61"/>
<path d="M224.128 11.7935C224.545 11.4657 225.695 10.8134 225.692 11.8328C225.164 12.3704 224.414 12.6031 223.86 13.1046C221.441 14.9172 219.864 17.9164 220.012 20.9647C219.874 23.3804 220.91 25.7076 222.417 27.5432C222.411 27.753 222.404 28.1758 222.398 28.3856C221.155 27.9431 220.634 26.573 220.051 25.4979C217.733 20.7418 219.608 14.5239 224.128 11.7935Z" fill="#202D61"/>
<path d="M209.893 16.2348C211.332 16.2315 212.767 16.1955 214.206 16.2643C214.196 16.5593 214.19 16.851 214.19 17.1428C212.77 17.1428 211.354 17.1395 209.938 17.1526C209.919 16.8478 209.906 16.5397 209.893 16.2348Z" fill="#202D61"/>
<path d="M245.929 16.2447C247.361 16.2283 248.797 16.1791 250.229 16.2807C250.213 16.5626 250.2 16.8445 250.187 17.1297C248.777 17.1592 247.368 17.1264 245.962 17.1559C245.945 16.8511 245.935 16.5462 245.929 16.2447Z" fill="#202D61"/>
<path d="M228.759 17.9294C229.798 17.3263 231.09 17.5853 232.073 18.1785C233.119 17.6639 234.479 17.582 235.485 18.2474C236.685 19.1684 236.852 20.9548 236.2 22.2495C233.558 27.4022 231.244 32.9777 231.198 38.8548C230.903 38.8548 230.608 38.8515 230.313 38.8449C230.369 32.8958 232.633 27.2318 235.325 22.0135C235.574 21.3908 235.885 20.6729 235.613 20.0043C235.41 18.9816 234.253 18.4604 233.296 18.5948C232.801 18.9619 233.341 19.5749 233.482 19.9911C233.964 20.8008 233.856 21.7611 233.84 22.6625C233.479 23.1575 233.056 23.7376 232.371 23.7311C231.221 23.872 230.165 22.774 230.26 21.6431C230.237 20.532 230.88 19.5847 231.28 18.5948C230.572 18.5751 229.506 18.2572 229.021 18.8079C229.926 20.0272 230.467 21.7677 229.726 23.1968C229.097 24.3113 227.255 24.3473 226.711 23.1378C225.927 21.7874 226.802 20.2993 227.389 19.0635C226.468 19.0209 225.373 19.293 225.085 20.2993C224.757 21.7153 225.904 22.7641 226.465 23.931C228.759 28.4216 229.503 33.5382 229.559 38.527C229.261 38.527 228.962 38.527 228.671 38.527C228.628 33.6136 227.894 28.5691 225.58 24.1769C225.124 23.2263 224.226 22.4298 224.262 21.299C224.272 20.5943 224.137 19.7322 224.675 19.1783C225.045 18.7095 225.612 18.4899 226.137 18.2343C227.012 18.1392 227.982 18.4768 228.759 17.9294ZM231.634 22.7969C232.03 22.7838 232.427 22.7674 232.827 22.7445C233.21 21.5612 232.791 20.3615 232.132 19.3684C231.244 20.1944 230.749 21.7939 231.634 22.7969ZM227.353 21.2596C227.271 21.9119 227.36 22.5544 227.73 23.1116C228.851 23.4394 229.388 22.22 229.211 21.2891C228.913 20.7483 228.939 19.6076 228.11 19.7093C227.802 20.1976 227.592 20.7385 227.353 21.2596Z" fill="#202D61"/>
<path d="M240.163 22.4233C240.343 22.4069 240.704 22.3741 240.884 22.3577C240.825 24.6817 239.445 26.7926 237.823 28.3692C237.164 28.9559 236.512 29.7917 235.535 29.7131C235.528 29.5525 235.512 29.2312 235.502 29.0706C237.836 27.5563 239.612 25.1733 240.163 22.4233Z" fill="#202D61"/>
<path d="M83.5409 29.7327C84.4161 29.5426 85.3175 29.6278 86.2058 29.6147C95.4917 29.6082 104.774 29.6246 114.06 29.6082C114.529 29.6213 115.021 29.582 115.476 29.736C115.902 30.5063 114.87 30.6243 114.385 30.5653C104.407 30.5358 94.4264 30.5817 84.4489 30.5522C84.3538 31.6601 84.2489 32.768 83.9802 33.8464C83.8327 33.866 83.5409 33.9021 83.3967 33.9217C82.9772 32.5615 83.6983 31.1323 83.5409 29.7327Z" fill="#202D61"/>
<path d="M156.741 31.565C177.148 31.5879 197.552 31.5781 217.96 31.5683C217.812 33.571 217.497 35.5541 217.255 37.5437C216.704 41.0017 216.557 44.5417 215.767 47.9539L215.223 48.085C215.147 47.4688 215.141 46.846 215.236 46.2331C215.734 42.6537 216.137 39.058 216.642 35.4787C216.816 34.4462 216.891 33.4006 216.894 32.3549C200.099 32.4008 183.304 32.3517 166.508 32.3812C163.506 32.5188 160.48 32.1616 157.488 32.5024C157.347 33.4891 157.206 34.4757 157.095 35.4656C156.944 35.5278 156.642 35.6524 156.491 35.7147C156.062 34.3511 156.642 32.9417 156.741 31.565Z" fill="#202D61"/>
<path d="M66.2373 37.4585C71.8554 37.4027 77.4735 37.3405 83.0884 37.4912C83.0589 37.6781 83.0064 38.0452 82.9802 38.232C77.4375 38.2124 71.8948 38.2419 66.3553 38.2156C66.3258 38.0255 66.2668 37.6486 66.2373 37.4585Z" fill="#202D61"/>
<path d="M207.408 41.6212C207.545 40.5133 208.329 39.3366 209.528 39.2481C210.997 39.3268 212.121 40.6051 212.429 41.9785C212.8 44.2598 212.518 46.5936 211.872 48.8028C213.622 53.9948 212.8 59.6162 211.433 64.7951C211.151 64.6247 210.876 64.4509 210.59 64.3002C211.738 59.944 212.551 55.3027 211.525 50.8449C211.364 49.914 210.597 48.9831 211.066 48.0293C211.793 46.3216 211.741 44.4106 211.629 42.5947C211.561 41.3098 210.581 40.1528 209.263 40.0807C208.883 40.5559 208.335 40.9984 208.309 41.6573C208.162 43.4371 208.486 45.2235 208.237 47.0001C207.345 47.2754 206.798 46.5346 206.26 45.9807C206.644 46.6329 207.027 47.2852 207.414 47.9408C207.745 48.0686 208.076 48.1997 208.411 48.3308C208.689 52.2019 206.88 55.7452 205.241 59.118C204.887 59.7473 203.979 59.6162 204.402 58.7771C205.913 55.7353 207.473 52.6051 207.634 49.1437C206.264 48.3439 205.795 46.7542 204.867 45.5611C204.52 45.2169 204.677 44.7318 204.687 44.3057C205.756 44.3811 206.621 45.0137 207.427 45.6594C207.424 44.3123 207.329 42.9651 207.408 41.6212Z" fill="#202D61"/>
<path d="M82.1579 41.4573C82.3316 41.418 82.6725 41.3393 82.8462 41.3C82.9872 42.6275 82.702 43.9386 82.5414 45.2464C82.4234 46.1708 82.4234 47.1246 82.0989 48.0096L81.817 48.0129C81.7121 48.0063 81.5023 47.9998 81.3975 47.9965C81.4892 45.8004 81.9219 43.637 82.1579 41.4573Z" fill="#202D61"/>
<path d="M178.606 43.8567C180.196 43.2208 182.284 42.975 183.69 44.1451C184.759 45.1809 183.608 46.8559 184.392 48.0227C184.949 48.8258 186.113 48.9602 186.601 49.8321C187.545 53.2705 184.287 57.253 180.694 56.817C180.685 58.646 180.724 60.475 180.793 62.304C181.94 62.6023 183.09 62.8973 184.231 63.2218C184.398 63.4349 184.736 63.8675 184.903 64.0839C179.934 65.5589 174.375 66.0735 169.576 63.7397C169.616 63.6086 169.697 63.3464 169.74 63.2152C170.992 62.6285 172.415 62.5236 173.667 61.9369C174.221 60.77 174.437 59.472 174.703 58.2166C173.929 58.197 173.093 57.8167 172.887 57.0137C172.726 56.0336 172.828 55.0339 172.838 54.0473C171.835 52.5166 173.647 51.2514 174.018 49.8288C172.162 49.4814 171.225 47.2918 171.703 45.5939C172.139 44.2009 173.631 43.3388 175.044 43.3617C176.283 43.2339 177.371 44.4926 178.606 43.8567ZM175.388 49.4125C174.794 50.5729 174.047 51.648 173.483 52.8214C173.457 53.3655 173.959 53.8474 173.746 54.4079C173.562 55.3191 173.437 56.3155 173.936 57.1579C175.23 57.4365 176.6 57.6627 177.754 56.8039C178.013 56.3811 178.4 56.0926 178.915 56.0894C178.879 56.4237 178.842 56.7613 178.806 57.0989C178.049 57.6332 177.292 58.2691 176.312 58.2625C175.64 58.1871 175.542 58.8755 175.42 59.3606C175.083 60.4685 174.778 61.5895 174.427 62.6974C174.083 62.7662 173.752 62.8678 173.431 63.0022C172.844 63.1399 172.264 63.3005 171.7 63.5004C172.47 64.074 173.477 64.0314 174.355 64.3297C176.102 64.4674 177.866 64.4936 179.613 64.3461C180.419 64.1822 181.229 64.0085 182.061 64.0216C182.078 63.8872 182.11 63.6184 182.127 63.484C181.419 63.2152 180.239 63.3693 179.911 62.6023C179.803 59.9309 179.786 57.253 179.77 54.5783C180.304 54.4964 180.832 54.3685 181.35 54.2046C181.589 53.8047 181.747 53.3754 181.822 52.9197C181.347 52.9984 180.871 52.9984 180.403 52.923C180.753 52.0052 181.275 51.0088 180.717 50.0582C179.177 49.0094 177.23 50.2746 175.647 49.3044L175.388 49.4125Z" fill="#202D61"/>
<path d="M31.2306 48.8159C31.2273 47.6523 31.8763 46.4068 33.0071 45.9905C44.1254 46.0265 55.2436 45.9806 66.3618 46.0036C67.4435 46.6723 68.0171 47.8981 67.9024 49.1601C67.6664 53.8571 67.7123 58.5608 67.4304 63.2545C67.5189 64.7558 67.4664 66.588 65.9259 67.3681C58.0264 67.4861 50.1204 67.3583 42.2177 67.4206C42.1653 67.4894 42.0604 67.6238 42.0079 67.6894C40.9885 69.1611 39.8249 70.5247 38.835 72.016C38.563 71.9767 38.2909 71.9406 38.0156 71.9046C37.6288 70.4853 37.1929 69.0726 36.6258 67.7189C35.9604 67.2829 35.1606 67.4927 34.4297 67.5583C33.6103 67.6795 32.8006 67.4435 31.9943 67.3321C31.401 66.765 30.8471 66.0898 30.7488 65.2442C30.6176 63.484 30.8766 61.7271 30.9028 59.9669C31.0044 56.2499 31.047 52.5296 31.2306 48.8159ZM32.0336 49.1666C31.9648 52.4444 31.9255 55.7255 31.8501 59.0065C31.5649 60.8486 31.7649 62.7334 31.6338 64.5919C31.5453 65.431 31.991 66.2603 32.7351 66.6536C34.233 66.6438 35.7343 66.6536 37.2322 66.6536C37.5403 67.473 37.8156 68.3023 38.0877 69.1349C38.2254 69.6134 38.3925 70.0854 38.6449 70.5181C39.5824 69.6691 40.2117 68.5547 40.9885 67.5681C41.3327 67.1616 41.6146 66.4963 42.2636 66.6503C49.9369 66.6503 57.6101 66.6569 65.2834 66.647C65.4539 66.5553 65.7948 66.375 65.9652 66.2865C66.2537 65.7981 66.5978 65.2999 66.5945 64.7066C66.6765 61.3797 66.7584 58.0494 66.8076 54.7192C67.0141 52.7656 66.9846 50.7957 67.0108 48.8323C67.1157 47.8195 66.3323 46.5772 65.1982 46.7444C54.6044 46.7378 44.0106 46.7608 33.4201 46.7345C32.5384 47.2033 32.0009 48.1768 32.0336 49.1666Z" fill="#202D61"/>
<path d="M153.111 59.3081C153.187 58.6198 153.403 57.961 153.646 57.3152C153.787 57.4562 154.072 57.7381 154.213 57.879C153.423 63.72 152.711 69.5709 151.918 75.4119C151.371 79.3091 150.915 83.2195 150.407 87.1201C150.22 88.8311 149.857 90.529 149.925 92.2596C152.849 92.1515 155.773 92.2727 158.697 92.1974C159.231 88.8737 159.864 85.573 160.765 82.328C161.047 81.5511 160.981 80.0696 162.188 80.4105C161.198 84.3012 159.942 88.1952 159.729 92.2269C176.236 92.1974 192.746 92.2269 209.253 92.2433C209.617 90.9354 209.646 89.5751 209.738 88.228C210.391 84.3602 210.767 80.4498 211.328 76.5689C211.433 76.4509 211.643 76.2182 211.748 76.1035C211.862 76.2313 212.088 76.4902 212.203 76.6181C211.485 82.0461 210.761 87.4741 210.096 92.9086C189.682 92.9512 169.268 92.9054 148.854 92.9217C149.073 89.9095 149.634 86.93 149.952 83.9275C151.007 75.72 152.082 67.519 153.111 59.3081Z" fill="#202D61"/>
<path d="M190.446 101.005C190.636 99.6215 191.918 98.353 193.37 98.5071C195.857 98.5234 198.345 98.4907 200.833 98.5398C200.794 98.7496 200.709 99.1692 200.669 99.3822C197.896 99.5592 195.11 99.3658 192.334 99.4838C191.868 100.028 191.298 100.579 191.269 101.342C190.793 104.961 190.338 108.58 189.833 112.195C189.597 113.683 189.4 115.201 189.617 116.705C189.807 116.817 190.19 117.04 190.38 117.148C202.751 117.148 215.121 117.158 227.491 117.145C228.498 117.243 229.356 116.355 229.494 115.404C230.055 111.349 230.599 107.292 231.11 103.23C231.238 101.985 231.723 100.572 230.887 99.4674C222.283 99.415 213.675 99.4805 205.071 99.4347C205.052 99.3035 205.012 99.0446 204.993 98.9135C205.006 98.8152 205.032 98.6218 205.045 98.5234C213.4 98.5038 221.758 98.5136 230.113 98.5169C231.018 98.3563 231.588 99.1134 232.208 99.6215C232.274 100.736 232.264 101.857 232.06 102.958C231.52 106.97 230.936 110.979 230.477 115.001C230.359 115.663 230.117 116.296 229.946 116.948C229.379 117.344 228.829 117.833 228.111 117.898C215.265 117.843 202.42 117.977 189.577 117.846C188.469 117.033 188.456 115.653 188.643 114.414C189.282 109.95 189.794 105.469 190.446 101.005Z" fill="#202D61"/>
<path d="M99.0615 100.13C104.693 100.123 110.324 100.192 115.955 100.094C116.178 100.316 116.401 100.539 116.624 100.769C116.126 101.005 115.608 101.113 115.06 101.087C109.8 101.064 104.539 101.074 99.2779 101.08L99.1238 100.851C99.1107 100.67 99.0779 100.31 99.0615 100.13Z" fill="#202D61"/>
<path d="M128.312 100.166C132.281 100.116 136.254 100.172 140.223 100.136C140.194 100.838 140.168 101.542 140.089 102.244C138.175 116.676 136.372 131.121 134.441 145.553C133.845 150.083 133.399 154.646 132.596 159.143C113.064 159.074 93.5313 159.152 73.999 159.107C74.7365 152.725 75.6346 146.363 76.4344 139.987C76.4869 139.283 76.6737 138.607 76.9884 137.981C77.1621 138.286 77.3325 138.594 77.5062 138.902C76.6737 144.406 76.0771 149.945 75.3134 155.462C75.261 155.511 75.1528 155.606 75.1004 155.655C75.2118 156.507 75.0315 157.356 74.8742 158.195C79.958 158.192 85.0386 158.192 90.1224 158.189C91.2991 158.192 92.4759 158.192 93.6526 158.192C101.981 158.186 110.314 158.202 118.646 158.176C118.583 158.048 118.459 157.789 118.397 157.661C116.928 156.96 115.692 155.812 114.103 155.37C112.982 155.085 112.51 153.836 112.549 152.784C112.342 151.374 112.775 150.017 112.942 148.641C113.359 148.237 113.811 147.874 114.211 147.457C114.273 146.268 114.09 144.986 114.971 144.035C115.27 144.032 115.863 144.022 116.161 144.019C116.876 146.209 117.839 148.66 120.055 149.712C123.795 151.02 127.509 152.426 131.127 154.049C131.56 154.239 132.042 154.255 132.511 154.311C133.022 149.712 133.674 145.127 134.202 140.531C134.369 140.033 134.549 139.528 134.523 138.997C134.54 137.558 134.844 136.149 134.985 134.72C136.116 125.985 137.26 117.253 138.375 108.514C138.679 106.033 139.112 103.561 139.246 101.064C135.874 101.074 132.501 101.096 129.131 101.06C128.961 101.021 128.623 100.942 128.453 100.903C128.42 100.72 128.348 100.352 128.312 100.166ZM115.391 144.806C114.886 145.943 115.24 147.169 115.338 148.349C114.837 148.349 114.358 148.48 113.929 148.736C113.699 149.535 113.677 150.388 113.303 151.148C113.49 152.053 113.26 153.013 113.614 153.882C114.004 154.809 115.214 154.58 115.938 155.114C117.374 156.091 118.905 156.92 120.344 157.897C120.484 157.959 120.766 158.087 120.907 158.149C124.575 158.251 128.253 158.14 131.924 158.202C132.042 157.34 132.216 156.484 132.255 155.612C131.481 154.97 130.406 154.777 129.515 154.305C128.223 153.708 126.879 153.239 125.578 152.676C125.106 152.518 124.644 152.338 124.175 152.174C123.772 152.004 123.362 151.846 122.962 151.679C122.074 151.387 121.186 151.096 120.327 150.729C119.993 150.62 119.662 150.512 119.327 150.411C117.879 149.463 116.81 148.011 116.089 146.458C115.882 145.897 115.732 145.304 115.391 144.806Z" fill="#202D61"/>
<path d="M196.07 105.371C206.084 105.377 216.098 105.377 226.114 105.371C226.072 105.689 226.032 106.01 225.993 106.331C216.055 106.282 206.11 106.275 196.169 106.334C196.133 106.013 196.1 105.692 196.07 105.371Z" fill="#202D61"/>
<path d="M113.723 108.37C115.099 108.278 116.787 107.865 117.902 108.937C118.403 109.337 118.79 110.051 118.466 110.681C118.108 111.389 116.928 112.097 117.928 112.815C117.561 113.418 116.843 113.952 117.092 114.742C117.368 116.699 117.708 118.656 117.807 120.632C117.892 122.091 116.679 123.13 115.555 123.828C115.483 125.316 115.48 126.807 115.489 128.299C116.283 128.459 117.076 128.64 117.876 128.774C117.866 128.974 117.84 129.367 117.826 129.564C116.174 130.551 114.552 131.59 112.929 132.625C112.218 133.166 111.281 132.927 110.478 132.793C107.796 132.255 105.115 131.714 102.434 131.187C102.421 131.003 102.391 130.636 102.375 130.452C103.322 130.072 104.293 129.751 105.289 129.525C106.351 127.391 107 125.08 107.924 122.887C108.209 122.163 108.655 121.153 107.928 120.544C106.859 119.58 106.364 117.898 107.043 116.581C107.226 116.489 107.593 116.312 107.777 116.22C107.685 114.788 106.489 113.555 106.705 112.139C108.403 110.599 110.628 109.733 112.693 108.77C113.038 108.639 113.379 108.504 113.723 108.37ZM110.347 114.558C110.324 115.571 109.58 116.348 109.442 117.341C108.931 117.908 108.285 116.853 107.639 117.112C107.675 117.993 107.557 119.183 108.429 119.714C109.16 119.967 109.019 120.855 109.199 121.455C109.37 121.452 109.711 121.448 109.878 121.445C110.274 122.274 110.858 123.025 111.74 123.379C112.523 123.418 113.31 123.431 114.093 123.333C114.404 123.176 114.736 123.067 115.086 123.015C115.896 122.566 116.823 121.946 116.889 120.927C116.941 118.649 116.365 116.42 116.119 114.168C115.637 114.191 115.175 114.29 114.736 114.47C113.277 114.637 111.808 114.591 110.347 114.558ZM109.176 121.953C108.154 124.742 107.174 127.555 105.984 130.275C105.754 130.285 105.299 130.305 105.069 130.315C105.05 130.462 105.01 130.757 104.991 130.908C107.505 131.026 109.911 132.193 112.448 131.947C112.716 131.737 112.992 131.527 113.267 131.324C113.883 130.964 114.477 130.567 115.103 130.229C115.516 130.033 115.847 129.725 116.089 129.344C115.581 129.2 115.08 129.046 114.568 128.931C114.542 127.296 114.65 125.663 114.572 124.031C112.592 124.916 109.907 124.103 109.176 121.953Z" fill="#202D61"/>
<path d="M195.425 109.629C202.131 109.635 208.837 109.612 215.544 109.642C215.511 109.943 215.475 110.248 215.445 110.553C208.811 110.586 202.177 110.553 195.543 110.569C195.5 110.255 195.461 109.94 195.425 109.629Z" fill="#202D61"/>
<path d="M218.696 109.638C221.014 109.648 223.338 109.57 225.652 109.674C225.609 109.861 225.521 110.232 225.478 110.418C223.449 110.759 221.282 110.484 219.201 110.559C218.683 110.553 218.752 109.986 218.696 109.638Z" fill="#202D61"/>
<path d="M159.264 113.959C166.15 113.804 173.043 113.949 179.933 113.883C180.727 113.922 181.69 113.693 182.215 114.476C181.467 114.578 180.713 114.617 179.963 114.611C173.158 114.562 166.35 114.657 159.549 114.565C159.477 114.414 159.336 114.109 159.264 113.959Z" fill="#202D61"/>
<path d="M29.0251 118.279C29.5003 117.882 30.1067 117.748 30.7131 117.728C30.7656 120.117 30.2739 122.461 30.2968 124.851C29.8773 127.974 29.8576 131.154 29.2611 134.258C29.2971 134.566 28.7465 134.618 28.6514 134.353C26.3045 131.324 24.5443 127.515 25.0786 123.602C25.3998 121.278 27.2223 119.583 29.0251 118.279ZM28.3957 119.875C26.8617 121.081 25.8391 122.933 25.7833 124.903C25.9571 127.715 26.9633 130.478 28.6252 132.753C29.0349 128.092 29.7036 123.438 29.7232 118.754C29.3233 119.173 28.8579 119.524 28.3957 119.875Z" fill="#202D61"/>
<path d="M153.912 123.202C154.082 123.267 154.42 123.399 154.59 123.464C153.872 128.6 153.289 133.76 152.538 138.893C152.368 138.873 152.033 138.834 151.866 138.814C151.909 135.69 152.65 132.616 152.938 129.508C153.282 127.411 153.276 125.241 153.912 123.202Z" fill="#202D61"/>
<path d="M51.7725 226.675C53.3458 226.353 54.6897 227.271 55.7451 228.33C56.6564 227.956 57.6331 227.825 58.6034 228.015C60.5405 230.32 62.9333 232.155 65.313 233.971C66.0308 234.4 65.6997 235.321 65.6866 236H53.4966C52.6017 235.961 51.7004 235.997 50.8154 235.839C49.8615 235.348 49.5862 234.079 49.8812 233.116C50.4417 230.949 51.1989 228.838 51.7725 226.675ZM52.4674 227.481C51.9134 229.182 51.543 230.942 50.8711 232.607C51.3496 233.404 52.3526 233.119 53.1196 233.191C56.4662 233.224 59.7965 233.571 63.1431 233.597L63.2119 233.47C61.6156 232.227 59.9964 230.982 58.6919 229.421C58.3641 228.986 57.82 228.838 57.3512 228.615C56.7711 228.936 56.2073 229.287 55.6796 229.694C54.8437 228.674 53.8571 227.632 52.4674 227.481ZM50.5105 233.945C50.7629 234.446 51.0776 235.272 51.8052 235.161C56.1942 235.213 60.5799 235.639 64.9655 235.498C64.9328 234.905 64.6935 234.361 64.0969 234.174C63.6184 233.807 63.4217 234.633 62.9399 234.495C61.5108 234.492 60.0816 234.443 58.6624 234.269C55.9418 234.21 53.2245 234.125 50.5105 233.945Z" fill="#202D61"/>
<path d="M35.9015 228.301L36.0556 228.255C38.2746 228.11 40.5166 228.422 42.7259 228.091C43.0799 228.225 43.6961 228.176 43.6895 228.717C44.0468 230.369 44.3189 232.04 44.6565 233.699C44.8826 234.633 44.3353 235.541 43.5388 236H36.0916C35.0919 235.744 34.6888 234.659 34.8592 233.719C35.1149 231.896 35.5508 230.107 35.9015 228.301ZM36.6226 228.976C36.5014 231.024 35.4197 233.027 35.9507 235.089C37.8125 235.499 39.7365 235.2 41.6245 235.302C42.3489 235.266 43.4994 235.495 43.6273 234.492C41.0935 234.486 38.5533 234.551 36.0195 234.466C36.0097 234.26 35.9966 233.85 35.9868 233.647C38.586 233.535 41.1919 233.683 43.7911 233.571C43.3683 232.054 43.1651 230.49 42.7947 228.963C40.7363 228.969 38.6778 228.936 36.6226 228.976Z" fill="#202D61"/>
<path d="M157.487 32.5024C160.48 32.1615 163.505 32.5188 166.507 32.3812C183.303 32.3517 200.098 32.4008 216.893 32.3549C216.89 33.4005 216.815 34.4462 216.641 35.4787C216.136 39.058 215.733 42.6537 215.235 46.233C215.14 46.846 215.146 47.4688 215.222 48.085C215.271 48.6652 215.32 49.2519 215.271 49.8386C214.245 57.148 213.38 64.4837 212.393 71.803C212.177 73.2354 212.131 74.6973 211.747 76.1034C211.642 76.2182 211.433 76.4509 211.328 76.5689C210.767 80.4498 210.39 84.3602 209.738 88.2279C209.548 89.4604 209.42 90.6994 209.197 91.9253C203.491 91.9843 197.784 91.9187 192.077 91.958C191.251 91.9843 190.422 91.958 189.619 91.7581C189.039 87.3462 190.039 82.9114 191.733 78.8502C194.834 79.4042 198.056 78.9322 200.98 77.8144C204.71 76.4214 207.778 73.4943 209.577 69.9674C210.446 68.3449 210.947 66.5618 211.433 64.7951C212.799 59.6162 213.622 53.9948 211.872 48.8028C212.518 46.5936 212.799 44.2598 212.429 41.9785C212.121 40.6051 210.997 39.3268 209.528 39.2481C208.329 39.3366 207.545 40.5133 207.407 41.6212C207.329 42.9651 207.424 44.3123 207.427 45.6594C206.621 45.0137 205.755 44.3811 204.687 44.3057C204.677 44.7318 204.52 45.2169 204.867 45.5611C205.795 46.7542 206.264 48.3439 207.634 49.1437C207.473 52.605 205.913 55.7353 204.402 58.7771C204.14 58.8033 203.874 58.8295 203.615 58.859C202.756 61.0125 201.547 63.1693 199.475 64.3624C196.745 65.939 193.408 65.549 190.461 64.8934C188.383 64.3133 186.095 64.4411 184.23 63.2218C183.09 62.8973 181.939 62.6023 180.792 62.304C180.723 60.475 180.684 58.646 180.694 56.817C184.286 57.2529 187.544 53.2704 186.6 49.832C186.112 48.9602 184.948 48.8258 184.391 48.0227C183.608 46.8558 184.758 45.1809 183.689 44.1451C182.283 42.9749 180.195 43.2208 178.606 43.8567C177.37 44.4925 176.282 43.2339 175.043 43.3617C173.63 43.3388 172.139 44.2008 171.703 45.5939C171.224 47.2918 172.162 49.4813 174.017 49.8288C173.646 51.2513 171.834 52.5165 172.837 54.0473C172.827 55.0339 172.725 56.0336 172.886 57.0137C173.092 57.8167 173.928 58.1969 174.702 58.2166C174.436 59.472 174.22 60.77 173.666 61.9369C172.414 62.5236 170.991 62.6285 169.739 63.2152C169.697 63.3463 169.615 63.6085 169.575 63.7397C169.195 63.6807 168.808 63.638 168.431 63.6807C163.741 64.3723 159.044 66.3455 155.927 70.0264C154.583 71.9341 152.891 73.6844 152.2 75.9625C152.128 75.8248 151.987 75.5495 151.918 75.4118C152.711 69.5708 153.422 63.72 154.212 57.879C154.071 57.738 153.786 57.4562 153.645 57.3152C153.878 56.5908 153.999 55.8337 154.094 55.0798C154.819 49.478 155.576 43.873 156.235 38.2615C156.258 38.0615 156.307 37.6617 156.33 37.4617C156.402 36.8815 156.52 36.3047 156.49 35.7147C156.641 35.6524 156.943 35.5278 157.094 35.4655C157.205 34.4757 157.346 33.489 157.487 32.5024Z" fill="#CADDFE"/>
<path d="M225.96 39.7693C226.875 39.6546 227.534 40.5691 228.448 40.6281C230.081 40.8772 231.926 40.9591 233.381 40.0282C233.65 39.884 233.938 39.7857 234.25 39.7365C234.276 40.2773 234.191 40.8149 234.053 41.3361C233.893 41.8802 234.433 42.3751 234.247 42.9225C234.184 43.3224 233.761 43.4994 233.522 43.7747C233.027 44.1091 233.089 44.7941 232.735 45.2268C232.142 45.6201 231.424 45.7545 230.766 45.9938C229.468 46.0626 228.058 45.8496 227.068 44.9449C227.006 44.5942 226.944 44.2467 226.885 43.8993C226.701 43.8272 226.327 43.6895 226.144 43.6207C225.996 43.2863 225.855 42.952 225.718 42.6177C225.947 42.1195 226.206 41.5491 225.96 41.0017C225.869 40.6117 225.534 40.0807 225.96 39.7693ZM230.346 41.6409C230.906 42.6275 231.959 41.854 232.699 41.5458C232.211 40.5297 230.979 41.0771 230.346 41.6409ZM228.576 43.7288C228.573 43.9157 228.566 44.2861 228.563 44.4729C230.015 44.5811 231.526 44.4401 232.808 43.6862C232.863 43.5158 232.981 43.1782 233.037 43.0077C231.516 43.0569 230.11 43.7682 228.576 43.7288Z" fill="#CADDFE"/>
<path d="M239.307 46.528C239.415 45.8954 239.408 45.0268 240.202 44.8564C240.234 45.4234 240.274 45.9938 240.218 46.5641C235.39 83.2654 230.578 119.967 225.763 156.668C225.776 157.242 225.435 157.602 224.894 157.727C224.835 156.275 225.088 154.842 225.307 153.416C226.619 143.177 227.982 132.943 229.316 122.704C229.555 120.789 229.923 118.885 229.946 116.948C230.116 116.296 230.359 115.663 230.477 115.001C230.935 110.979 231.519 106.97 232.06 102.958C232.263 101.857 232.273 100.736 232.207 99.6215C232.928 96.3929 233.148 93.0856 233.656 89.8242C235.491 75.3856 237.471 60.9667 239.307 46.528Z" fill="#CADDFE"/>
<path d="M39.4347 55.5616C45.9444 55.4501 52.4606 55.5386 58.9735 55.519C60.1175 55.4829 60.2683 57.4725 59.0293 57.4299C52.6933 57.502 46.3443 57.4561 40.005 57.4365C38.9299 57.6036 38.5694 55.9779 39.4347 55.5616Z" fill="#CADDFE"/>
<path d="M38.8677 61.0879C38.3957 60.0292 39.8281 59.5375 40.6377 59.5506C46.3246 59.5047 52.0148 59.5769 57.7018 59.531C58.3311 59.5179 59.1145 59.5408 59.462 60.1701C59.8684 60.7142 59.3669 61.3075 59.2128 61.8484C52.9195 61.8975 46.6196 61.8451 40.323 61.8713C39.7133 61.9303 39.0283 61.7697 38.8677 61.0879Z" fill="#CADDFE"/>
<path d="M117.308 63.048C119.455 63.1136 121.776 62.8022 123.745 63.8445C124.948 64.546 125.889 65.6735 126.348 66.9912C128.738 73.6582 129.816 80.6923 130.927 87.6609C117.164 87.6609 103.397 87.6805 89.6336 87.6478C89.5746 86.5956 89.7484 85.4811 89.2239 84.5142C88.883 84.3929 88.5487 84.2716 88.2111 84.1471C86.6738 84.1471 85.1365 84.1373 83.6025 84.1504C85.0644 79.1911 86.7623 74.2843 88.729 69.4987C89.7812 66.6995 92.4165 64.5886 95.3894 64.2051C97.261 64.0019 99.1195 63.6216 101.014 63.6413C101.768 66.3356 104.089 68.4039 106.829 68.912C109.163 69.2332 111.549 68.7645 113.594 67.6009C115.213 66.47 116.731 64.9918 117.308 63.048Z" fill="#CADDFE"/>
<path d="M99.0605 100.13C105.006 99.9263 110.969 100.248 116.918 99.9755L116.803 100.539C120.16 100.592 123.516 100.546 126.872 100.556C127.42 100.543 127.941 100.729 128.452 100.903C128.623 100.942 128.96 101.021 129.131 101.06C132.5 101.096 135.873 101.074 139.246 101.064C139.112 103.561 138.679 106.033 138.374 108.514C137.26 117.253 136.116 125.985 134.985 134.72C134.844 136.149 134.539 137.558 134.523 138.997C134.549 139.528 134.369 140.033 134.202 140.531C134.126 140.036 134.044 139.548 133.959 139.06C131.904 136.267 130.258 132.95 127.154 131.141C124.365 129.426 121.071 129.02 117.875 128.774C117.075 128.64 116.282 128.459 115.489 128.299C115.479 126.807 115.482 125.316 115.554 123.828C116.679 123.13 117.891 122.091 117.806 120.632C117.708 118.656 117.367 116.699 117.092 114.742C116.842 113.952 117.56 113.418 117.927 112.815C116.928 112.097 118.108 111.389 118.465 110.681C118.789 110.051 118.403 109.337 117.901 108.937C116.787 107.865 115.099 108.278 113.722 108.37C113.378 108.504 113.037 108.639 112.693 108.77C110.628 109.733 108.402 110.599 106.704 112.139C106.488 113.555 107.684 114.788 107.776 116.22C107.593 116.312 107.225 116.489 107.042 116.581C106.363 117.898 106.858 119.58 107.927 120.544C108.655 121.153 108.209 122.163 107.924 122.887C106.999 125.08 106.35 127.391 105.288 129.525C104.292 129.751 103.322 130.072 102.374 130.452C100.716 131.137 98.8802 131.272 97.2479 132.049C93.8816 133.474 90.617 135.248 87.9947 137.837C85.1791 140.407 82.6552 143.304 80.7246 146.602C78.5449 149.919 77.2469 153.754 76.6864 157.668C76.6799 158.379 75.6867 158.205 75.2409 158.117C75.0705 157.248 75.3229 156.343 75.313 155.462C76.0767 149.945 76.6733 144.406 77.5059 138.902C77.3321 138.594 77.1617 138.286 76.988 137.981C77.4305 136.378 77.4764 134.707 77.7353 133.071C77.9123 131.006 78.558 128.958 78.2597 126.873C82.5208 124.903 84.8841 120.547 86.5329 116.374C86.8246 115.122 88.352 115.912 89.1518 115.378C89.8926 114.339 89.5025 112.978 89.5976 111.792C89.6894 110.032 89.355 108.219 89.886 106.508C89.7811 106.102 89.5189 105.695 89.6402 105.269C89.9549 104.735 90.4203 104.299 90.6956 103.742C91.03 102.978 90.9021 102.122 90.8989 101.313C90.9447 101.136 91.0365 100.779 91.0824 100.598C93.7538 100.674 96.4973 100.254 99.1228 100.851L99.2769 101.08C104.538 101.074 109.799 101.064 115.059 101.087C115.607 101.113 116.125 101.005 116.623 100.769C116.4 100.539 116.177 100.316 115.954 100.093C110.323 100.192 104.692 100.123 99.0605 100.13Z" fill="#CADDFE"/>
<path d="M90.1221 158.189C90.9448 155.675 92.6296 153.525 94.298 151.509C94.3242 153.754 93.9145 155.97 93.6522 158.192C92.4755 158.192 91.2988 158.192 90.1221 158.189Z" fill="#CADDFE"/>
<path d="M53.9425 40.3527C54.2244 38.9236 55.4405 37.4125 57.0138 37.4748C60.0884 37.465 63.1629 37.4978 66.2375 37.4584C66.267 37.6485 66.326 38.0255 66.3555 38.2156C71.8949 38.2418 77.4377 38.2123 82.9804 38.232C82.7968 39.2448 82.7083 40.2773 82.846 41.3C82.6723 41.3393 82.3314 41.418 82.1576 41.4573C81.9216 43.637 81.489 45.8004 81.3972 47.9965C81.5021 47.9998 81.7119 48.0063 81.8168 48.0129C81.1088 51.2284 81.0334 54.5389 80.4565 57.7774C80.3352 58.5477 80.1746 59.3343 80.3516 60.1112C80.1648 60.2324 79.7911 60.4783 79.6043 60.5995C79.4568 63.1431 78.9815 65.6539 78.6996 68.1843C77.9883 73.5042 77.3655 78.8338 76.6084 84.1438C74.5335 84.252 72.3899 83.839 70.3773 84.4847C70.2528 84.9338 70.102 85.3828 70.0659 85.8515C69.9774 92.725 70.161 99.6018 69.9742 106.475C68.0927 102.617 66.0736 98.3268 62.0977 96.2388C60.2523 95.1801 58.0791 95.2981 56.0502 94.967C54.5948 94.7474 52.9592 95.167 51.7497 94.105C51.6088 93.2855 51.4318 92.4726 51.2515 91.663C52.1234 91.4172 53.264 91.391 53.759 90.506C54.2441 89.362 54.0671 88.087 54.208 86.884C54.4932 86.4186 55.1652 86.0121 54.8636 85.3861C54.4211 84.5273 53.6115 83.875 53.3689 82.9146C53.1592 82.2099 52.9002 81.5216 52.5823 80.8595C53.4214 79.9712 54.3293 78.9584 54.2965 77.6505C54.408 76.6836 53.6312 75.8904 52.7822 75.5888C51.5989 75.2676 50.4484 75.815 49.334 76.1329C49.5503 73.3042 50.1534 70.5214 50.3239 67.6894C54.739 67.7779 59.1575 67.6861 63.5727 67.7418C64.3692 67.7385 65.2181 67.8107 65.9261 67.3682C67.4667 66.588 67.5191 64.7558 67.4306 63.2545C67.7125 58.5608 67.6666 53.8572 67.9026 49.1601C68.0173 47.8982 67.4437 46.6723 66.362 46.0036C66.267 45.9348 66.0736 45.8004 65.9753 45.7348C61.7666 45.6594 57.5514 45.6857 53.3427 45.7184C53.3853 43.9157 53.7262 42.1391 53.9425 40.3527Z" fill="#98B9FE"/>
<path d="M217.255 37.5437C218.72 37.4781 220.185 37.5109 221.65 37.4945C221.716 37.6748 221.844 38.0288 221.906 38.2058C222.899 38.3041 223.899 38.2517 224.895 38.2451C225.043 38.3566 225.338 38.5762 225.485 38.6843C224.61 40.0512 225.144 41.7196 224.984 43.2372C225.888 44.4565 226.508 46.1937 228.16 46.5576C229.855 46.9345 231.913 47.0066 233.313 45.807C233.886 45.0695 234.355 44.2533 234.952 43.5289C235.542 42.8438 234.807 41.972 235.017 41.205C235.322 40.3134 234.952 39.4382 234.798 38.5598C236.554 37.9763 238.436 38.373 240.252 38.2517C242.31 38.1009 244.628 38.8155 245.712 40.6903C246.883 42.5325 246.306 44.8072 246.08 46.8296C241.156 84.8584 236.315 122.9 231.398 160.932C231.336 162.614 229.828 164.066 228.144 164.04C221.182 164.059 214.216 164.03 207.251 164.053C208.51 153.167 210.067 142.318 211.414 131.442C211.561 129.938 211.945 128.453 211.892 126.935C211.61 125.26 212.119 123.618 212.282 121.963C212.417 120.737 212.528 119.508 212.669 118.285C217.917 118.131 223.171 118.243 228.422 118.243C228.344 118.157 228.186 117.987 228.111 117.898C228.829 117.833 229.379 117.344 229.946 116.948C229.923 118.885 229.556 120.789 229.317 122.704C227.983 132.943 226.619 143.177 225.308 153.416C225.089 154.842 224.836 156.275 224.895 157.727C225.436 157.602 225.777 157.242 225.764 156.668C230.579 119.967 235.391 83.2654 240.219 46.5641C240.275 45.9938 240.235 45.4235 240.203 44.8564C239.409 45.0268 239.416 45.8955 239.308 46.5281C237.472 60.9667 235.492 75.3856 233.657 89.8242C233.149 93.0856 232.929 96.3929 232.208 99.6215C231.589 99.1134 231.018 98.3563 230.114 98.5169C221.758 98.5136 213.4 98.5038 205.045 98.5234C205.032 98.6218 205.006 98.8152 204.993 98.9135C203.767 98.8906 202.544 98.8807 201.318 98.9299C201.158 99.0446 200.83 99.2675 200.669 99.3822C200.709 99.1692 200.794 98.7496 200.833 98.5398C198.345 98.4907 195.857 98.5234 193.37 98.5071C191.918 98.353 190.636 99.6215 190.446 101.005C189.794 105.469 189.282 109.95 188.643 114.414C186.847 114.129 185.028 114.283 183.222 114.257C182.369 114.345 181.815 113.441 180.957 113.568C173.913 113.588 166.866 113.555 159.822 113.588C159.681 113.68 159.402 113.867 159.264 113.959C158.055 114.46 156.724 114.06 155.465 114.221C154.666 117.145 154.793 120.291 153.912 123.202C153.276 125.241 153.282 127.41 152.938 129.508C152.65 132.616 151.909 135.69 151.866 138.814C152.007 140.135 151.909 141.489 151.437 142.741C151.267 143.229 151.063 143.717 151.011 144.239C150.205 150.804 149.284 157.353 148.497 163.918C148.169 164.263 147.576 164.033 147.153 164.118C138.201 164.092 129.25 164.122 120.295 164.105C119.089 164.105 117.896 164.371 116.686 164.259C110.573 164.364 104.453 164.272 98.337 164.302C88.2611 164.276 78.1852 164.354 68.1093 164.341C66.2967 156.943 64.3399 149.578 62.6289 142.157C65.0414 141.131 66.7818 138.696 66.7196 136.038C66.6933 132.029 64.4055 128.21 65.3953 124.149C66.6147 124.69 67.5161 125.726 68.6895 126.352C71.5346 128.132 75.209 128.102 78.2606 126.873C78.5589 128.958 77.9132 131.006 77.7362 133.071C77.4772 134.707 77.4314 136.379 76.9889 137.981C76.6742 138.607 76.4874 139.283 76.4349 139.987C75.6351 146.363 74.737 152.725 73.9995 159.107C93.5318 159.153 113.064 159.074 132.596 159.143C133.399 154.646 133.845 150.083 134.442 145.553C136.372 131.121 138.175 116.676 140.089 102.244C140.168 101.542 140.194 100.838 140.224 100.136C136.254 100.172 132.282 100.116 128.312 100.166C128.348 100.352 128.42 100.72 128.453 100.903C127.942 100.729 127.421 100.543 126.873 100.556C123.517 100.546 120.16 100.592 116.804 100.539L116.919 99.9755C110.97 100.248 105.007 99.9263 99.0614 100.13C99.0778 100.31 99.1106 100.67 99.1237 100.851C96.4982 100.254 93.7547 100.674 91.0833 100.598C91.0374 100.779 90.9456 101.136 90.8997 101.313C90.7129 100.182 90.1 99.1659 89.9295 98.0383C90.8145 96.6813 92.3223 95.4981 92.3026 93.7379C92.3682 93.0332 91.5225 92.8824 91.103 92.5153C90.6179 92.9316 90.136 93.3478 89.6411 93.751C89.5755 92.0334 89.605 90.3126 89.6017 88.5951C103.66 88.5983 117.719 88.5983 131.777 88.5983C132.806 88.6016 133.845 88.6606 134.858 88.4377C136.841 72.6093 138.959 56.7908 140.971 40.9624C141.079 40.0348 141.201 39.1072 141.407 38.196C146.35 38.2943 151.293 38.2418 156.236 38.2615C155.577 43.8731 154.82 49.4781 154.095 55.0798C154 55.8337 153.879 56.5908 153.646 57.3152C153.404 57.961 153.187 58.6198 153.112 59.3081C152.083 67.519 151.008 75.7199 149.952 83.9275C149.634 86.9299 149.074 89.9094 148.854 92.9217C148.871 93.0069 148.907 93.1774 148.923 93.2626C169.268 93.2266 189.617 93.2266 209.962 93.2593C209.995 93.1708 210.063 92.9938 210.096 92.9086C210.762 87.4741 211.486 82.0461 212.204 76.6181C212.089 76.4902 211.863 76.2313 211.748 76.1034C212.132 74.6973 212.178 73.2354 212.394 71.803C213.38 64.4837 214.246 57.1481 215.272 49.8386C215.321 49.2519 215.272 48.6652 215.223 48.085L215.767 47.9539C216.557 44.5417 216.704 41.0017 217.255 37.5437Z" fill="#98B9FE"/>
<path d="M39.1927 53.1918C39.0354 52.4608 38.9895 51.3202 39.9925 51.248C46.3317 51.1792 52.6775 51.2218 59.0167 51.2284C59.9247 51.0448 60.0689 52.1232 59.8984 52.7624C59.8099 53.4704 58.8856 53.4278 58.3513 53.5097C52.5628 53.5327 46.7709 53.4933 40.9824 53.5228C40.3662 53.5622 39.7762 53.3688 39.1927 53.1918Z" fill="#98B9FE"/>
<path d="M47.4523 162.204C48.0455 162.781 48.3635 163.561 48.4454 164.374C48.0849 164.354 47.7276 164.335 47.3703 164.322C47.3605 163.614 47.3703 162.902 47.4523 162.204Z" fill="#98B9FE"/>
<path d="M126.247 165.046C133.609 165.046 140.971 165.036 148.333 165.049C148.008 167.606 147.674 170.163 147.32 172.716C147.694 172.847 148.077 172.929 148.47 172.955C155.931 172.939 163.394 172.909 170.854 172.968C170.907 176.066 170.992 179.176 170.831 182.274C170.451 184.45 169.163 186.394 167.524 187.836C165.263 189.662 162.375 190.354 159.808 191.619C156.796 192.845 153.836 194.192 150.814 195.398C148.946 196.234 146.959 196.968 144.881 196.876C131.937 196.811 118.987 196.962 106.043 196.798C106.105 196.296 105.771 195.506 106.384 195.26C110.186 193.536 114.087 192.032 117.905 190.337C119.839 189.56 121.786 188.702 123.389 187.335C124.264 186.528 124.802 185.44 125.395 184.427C126.611 182.146 126.26 179.488 126.306 177.007C126.267 173.021 126.395 169.032 126.247 165.046Z" fill="#98B9FE"/>
<path d="M33.0068 45.9905C33.3543 45.8626 33.7148 45.7905 34.0819 45.7741C40.5031 45.7348 46.9243 45.8463 53.3422 45.7184C57.5508 45.6856 61.7661 45.6594 65.9747 45.7348C66.0731 45.8004 66.2665 45.9348 66.3615 46.0036C55.2433 45.9807 44.1251 46.0265 33.0068 45.9905Z" fill="#00AEEF"/>
<path d="M203.616 58.859C203.875 58.8295 204.14 58.8033 204.402 58.7771C203.979 59.6162 204.887 59.7473 205.241 59.118C205.172 59.3409 205.038 59.7834 204.973 60.0063C206.461 61.8123 208.221 63.7528 210.591 64.3002C210.876 64.4509 211.151 64.6247 211.433 64.7951C210.948 66.5618 210.446 68.3449 209.578 69.9674C207.778 73.4943 204.71 76.4214 200.98 77.8144C198.056 78.9321 194.834 79.4042 191.734 78.8502C190.039 82.9114 189.039 87.3462 189.619 91.7581C190.423 91.958 191.252 91.9843 192.078 91.958C197.784 91.9187 203.491 91.9843 209.198 91.9253C209.42 90.6994 209.548 89.4604 209.738 88.2279C209.647 89.5751 209.617 90.9354 209.253 92.2432C192.746 92.2268 176.236 92.1973 159.729 92.2268C159.942 88.1952 161.198 84.3012 162.188 80.4104C160.981 80.0695 161.047 81.5511 160.765 82.3279C159.864 85.5729 159.231 88.8737 158.697 92.1973C155.773 92.2727 152.849 92.1514 149.926 92.2596C149.857 90.5289 150.221 88.831 150.407 87.12C150.915 83.2195 151.371 79.3091 151.918 75.4118C151.987 75.5495 152.128 75.8248 152.2 75.9625C152.892 73.6844 154.583 71.9341 155.927 70.0264C159.044 66.3455 163.741 64.3723 168.432 63.6807C168.809 63.638 169.196 63.6807 169.576 63.7397C174.374 66.0734 179.934 65.5588 184.903 64.0838C184.736 63.8675 184.398 63.4348 184.231 63.2218C186.096 64.4411 188.384 64.3133 190.462 64.8934C193.409 65.549 196.745 65.939 199.476 64.3624C201.547 63.1693 202.757 61.0125 203.616 58.859Z" fill="#00AEEF"/>
<path d="M42.2176 67.4206C50.1203 67.3583 58.0263 67.4862 65.9258 67.3682C65.2178 67.8107 64.3688 67.7386 63.5723 67.7418C59.1571 67.6861 54.7387 67.7779 50.3235 67.6894C47.5538 67.6468 44.7775 67.6468 42.0078 67.6894C42.0603 67.6238 42.1651 67.4894 42.2176 67.4206Z" fill="#00AEEF"/>
<path d="M148.854 92.9217C169.268 92.9053 189.682 92.9512 210.096 92.9086C210.063 92.9938 209.994 93.1708 209.961 93.2593C189.616 93.2265 169.268 93.2265 148.922 93.2626C148.906 93.1774 148.87 93.0069 148.854 92.9217Z" fill="#00AEEF"/>
<path d="M30.7751 99.0839C35.1509 97.2189 39.8382 96.1765 44.5483 95.6062C49.8092 95.403 55.1159 95.4194 60.2882 96.4289C62.2844 97.0058 63.8807 98.4513 65.2213 99.9886C67.6862 103.053 68.9252 106.875 71.2163 110.051C72.3275 111.605 74.0385 112.936 76.0314 112.903C78.5684 113.031 80.676 111.208 82.1281 109.317C83.0032 108.045 83.8915 106.76 84.4651 105.318C85.9467 105.354 87.189 106.334 88.6672 106.449C88.7197 106.96 88.7361 107.488 88.5394 107.977C87.0939 112.084 85.9369 116.338 83.8063 120.167C82.151 123.32 79.2764 126.021 75.7069 126.748C72.8323 127.532 69.8069 126.332 67.578 124.519C66.6111 123.831 65.9031 122.812 64.8148 122.304C64.3035 123.985 64.3658 125.758 64.3789 127.496C64.4248 130.406 66.0047 133.081 65.7785 136.021C66.0145 138.657 63.8741 141.161 61.2814 141.508C57.3186 142.337 53.4737 143.652 49.4847 144.366C46.4691 144.979 43.3683 144.747 40.3102 144.717C37.8453 144.448 35.3804 143.967 33.0958 142.977C30.1818 142.288 28.5692 138.991 29.0805 136.169C28.8838 136.149 28.4905 136.103 28.2938 136.083C28.2381 137.663 28.1168 139.371 29.0444 140.751C29.641 142.042 30.8571 142.816 32.0108 143.554C32.0731 144.258 31.7879 144.907 31.4405 145.501C31.0996 145.458 30.7685 145.379 30.444 145.268C26.0977 142.288 21.9317 138.925 18.7162 134.713C16.4742 131.701 14.7074 128.069 14.9336 124.224C15.0483 119.413 16.2152 114.568 18.5883 110.356C21.2859 105.41 25.6126 101.349 30.7751 99.0839ZM29.0248 118.279C27.222 119.583 25.3995 121.278 25.0783 123.602C24.544 127.515 26.3042 131.324 28.6511 134.353C28.7462 134.618 29.2968 134.566 29.2608 134.258C29.8573 131.154 29.877 127.974 30.2966 124.851C30.2736 122.461 30.7653 120.117 30.7128 117.728C30.1064 117.748 29.5001 117.882 29.0248 118.279Z" fill="#00AEEF"/>
<path d="M159.821 113.588C166.865 113.555 173.912 113.588 180.956 113.568C181.815 113.441 182.369 114.345 183.221 114.257C185.027 114.283 186.846 114.129 188.642 114.414C188.456 115.653 188.469 117.033 189.577 117.846C202.419 117.977 215.265 117.843 228.11 117.898C228.186 117.987 228.343 118.157 228.422 118.243C223.171 118.243 217.916 118.131 212.669 118.285C212.528 119.508 212.416 120.737 212.282 121.963C212.118 123.618 211.61 125.26 211.892 126.935L211.23 126.902C210.823 128.83 210.695 130.8 210.387 132.743C208.647 145.786 207.044 158.848 205.294 171.887C204.409 171.896 203.524 171.9 202.645 171.91C203.406 168.612 203.343 165.052 202.101 161.876C201.767 161.004 202.314 160.178 202.619 159.392C203.727 156.888 204.159 154.141 204.333 151.423C204.382 147.992 203.717 144.317 201.449 141.62C199.321 139.502 196.162 139.463 193.369 139.197C191.638 139.188 189.986 138.234 189.016 136.818C188.187 135.523 188.144 133.933 187.915 132.458C187.515 130.197 186.299 128.2 185.096 126.286C184.657 125.67 185.342 125.152 185.689 124.71C187.512 122.828 187.23 119.56 185.453 117.751C184.843 117.092 183.909 117.177 183.1 117.223C181.608 118.154 180.599 119.593 180.022 121.235C180.173 120.698 180.327 120.163 180.471 119.626C179.953 120.642 179.465 121.674 179.042 122.733C175.587 122.982 171.945 124.405 169.953 127.374C168.205 129.944 167.494 133.297 168.445 136.3C168.995 137.791 170.29 138.879 170.752 140.423C171.559 142.446 170.959 144.638 170.451 146.658C168.255 146.815 166.072 147.149 163.905 147.539C160.765 148.326 158.411 150.709 156.248 152.977C154.524 155.003 152.977 157.71 150.188 158.317C150.571 153.38 151.426 148.487 151.957 143.563C151.977 143.193 151.803 142.921 151.436 142.741C151.908 141.489 152.007 140.135 151.866 138.814C152.033 138.834 152.367 138.873 152.538 138.893C153.288 133.76 153.872 128.6 154.59 123.464C154.419 123.398 154.081 123.267 153.911 123.202C154.793 120.291 154.665 117.144 155.465 114.221C156.723 114.06 158.054 114.46 159.264 113.958C159.336 114.109 159.477 114.414 159.549 114.565C166.35 114.657 173.158 114.562 179.963 114.611C180.713 114.617 181.467 114.578 182.215 114.476C181.69 113.693 180.727 113.922 179.933 113.883C173.043 113.949 166.15 113.804 159.264 113.958C159.401 113.867 159.68 113.68 159.821 113.588Z" fill="#00AEEF"/>
<path d="M87.2607 114.145L87.3165 114.319L87.4148 114.65C87.8409 114.627 88.2703 114.598 88.6997 114.568C88.3621 115.001 87.7688 114.889 87.287 114.968C87.2804 114.762 87.2673 114.352 87.2607 114.145Z" fill="#00AEEF"/>
<path d="M117.875 128.774C121.071 129.02 124.365 129.426 127.155 131.141C130.259 132.95 131.904 136.267 133.959 139.06C134.044 139.548 134.126 140.036 134.202 140.531C133.674 145.127 133.022 149.712 132.51 154.311C132.042 154.255 131.56 154.239 131.127 154.049C127.509 152.427 123.795 151.02 120.055 149.712C117.839 148.66 116.875 146.209 116.161 144.019C115.863 144.022 115.269 144.032 114.971 144.035C114.089 144.986 114.273 146.268 114.211 147.457C113.811 147.874 113.358 148.238 112.942 148.641C112.775 150.017 112.342 151.374 112.549 152.784C112.509 153.836 112.981 155.085 114.102 155.37C115.692 155.812 116.928 156.96 118.396 157.661C118.459 157.789 118.583 158.048 118.645 158.176C110.313 158.202 101.981 158.186 93.6524 158.192C93.9146 155.97 94.3244 153.754 94.2981 151.509C92.6298 153.525 90.945 155.675 90.1223 158.189C85.0384 158.192 79.9579 158.192 74.874 158.195C75.0314 157.356 75.2116 156.507 75.1002 155.655C75.1526 155.606 75.2608 155.511 75.3132 155.462C75.3231 156.343 75.0707 157.248 75.2411 158.117C75.6869 158.205 76.6801 158.379 76.6866 157.668C77.2471 153.754 78.5451 149.919 80.7249 146.602C82.6555 143.304 85.1794 140.407 87.995 137.837C90.6172 135.248 93.8819 133.474 97.2481 132.049C98.8805 131.272 100.716 131.137 102.375 130.452C102.391 130.636 102.42 131.003 102.434 131.186C105.115 131.714 107.796 132.255 110.477 132.793C111.28 132.927 112.218 133.166 112.929 132.625C114.552 131.59 116.174 130.551 117.826 129.564C117.839 129.367 117.865 128.974 117.875 128.774Z" fill="#00AEEF"/>
<path d="M206.001 172.631C206.316 170.828 206.464 168.999 206.752 167.193C206.716 169.091 206.293 170.949 206.221 172.844C194.457 172.932 182.69 172.84 170.923 172.89C170.89 176.017 171.06 179.153 170.831 182.274C170.991 179.176 170.906 176.066 170.854 172.968C163.394 172.909 155.93 172.939 148.47 172.955C148.076 172.929 147.693 172.847 147.319 172.716C148.581 172.555 149.853 172.634 151.122 172.631C169.415 172.634 187.708 172.621 206.001 172.631Z" fill="#00AEEF"/>
<path d="M150.411 170.353C152.266 170.104 154.039 169.422 155.74 168.665C155.95 168.651 156.373 168.622 156.583 168.609C156.143 169.681 155.816 170.795 155.439 171.89C153.167 171.89 150.892 171.933 148.621 171.88C148.06 171.556 148.447 170.975 148.7 170.598C149.185 170.579 149.676 170.559 150.168 170.536L150.411 170.353Z" fill="#00AEEF"/>
<path d="M187.368 169.35C188.082 169.333 188.804 169.337 189.521 169.359C189.574 170.172 190.413 171.326 189.544 171.89C188.797 171.923 188.053 171.893 187.312 171.89C187.283 171.041 187.302 170.192 187.368 169.35Z" fill="#00AEEF"/>
<path d="M36.6162 225.56C38.5927 225.328 40.5921 225.505 42.5719 225.586C42.6604 226.416 42.7063 227.252 42.7259 228.091C40.5167 228.422 38.2747 228.11 36.0557 228.255C36.1769 228.182 36.4228 228.038 36.5473 227.969C36.5965 227.163 36.5998 226.36 36.6162 225.56Z" fill="#00AEEF"/>
<path d="M52.8246 226.537C52.9754 226.216 53.1262 225.898 53.277 225.583C55.201 225.639 57.1152 225.845 59.0327 225.996C58.8951 226.668 58.7607 227.343 58.6034 228.015C57.6331 227.825 56.6564 227.956 55.7451 228.33C54.6897 227.271 53.3458 226.353 51.7725 226.675C52.1232 226.629 52.4739 226.586 52.8246 226.537Z" fill="#00AEEF"/>
</g>
<defs>
<clipPath id="clip0_10761_7606">
<rect width="270.089" height="236" fill="white"/>
</clipPath>
</defs>
</svg>
