<svg width="320" height="387" viewBox="0 0 320 387" fill="none" xmlns="http://www.w3.org/2000/svg">
<g clip-path="url(#clip0_10684_1251)">
<path d="M210.638 65.312H213.268C217.078 65.7565 220.996 67.1838 223.537 70.1828C226.544 73.7148 227.73 78.4383 227.891 82.9878C227.907 85.2478 227.773 87.6016 226.758 89.6634C226.311 90.6007 225.875 91.5432 225.446 92.4885C225.902 92.8393 226.831 93.19 226.491 93.9345C225.867 95.4822 223.974 95.6321 222.541 95.7285C221.858 97.3673 222.011 99.1935 221.995 100.931C221.965 101.845 222.246 102.728 222.766 103.475C223.015 103.374 223.272 103.288 223.534 103.216C224.946 103.719 226.156 104.712 227.642 105.026C231.15 105.797 234.642 106.64 238.12 107.543C240.814 108.311 243.567 109.013 246.044 110.362C247.021 110.871 247.704 111.758 248.261 112.681C250.336 116.023 252.232 119.469 254.125 122.916C257.135 128.496 260.094 134.106 262.913 139.786C264.932 143.874 266.951 147.971 268.644 152.21C269.045 153.372 269.736 154.655 269.177 155.887C268.175 158.316 266.635 160.468 265.195 162.651C261.856 167.511 258.227 172.162 254.535 176.754C254.553 176.945 254.594 177.319 254.612 177.51C254.492 177.341 254.374 177.175 254.262 177.006C253.889 177.55 253.445 178.037 253.078 178.583C253.124 179.855 253.622 181.071 253.6 182.351C253.571 183.302 252.976 184.166 252.168 184.635C248.135 186.919 244.097 189.198 240.07 191.493C240.067 191.945 240.067 192.401 240.072 192.856C240.217 192.853 240.503 192.845 240.648 192.842C240.498 192.974 240.345 193.102 240.195 193.228C240.329 197.006 240.635 200.777 240.616 204.558C240.926 207.937 240.551 211.335 240.862 214.714C240.889 219.448 240.865 224.185 240.876 228.92C240.629 232.125 240.779 235.344 240.739 238.557C240.782 239.818 240.61 241.103 240.876 242.351C241.872 246.21 242.734 250.13 242.921 254.125C243.484 263.406 244.429 272.655 245.136 281.926C245.468 286.791 246.014 291.641 246.25 296.509C246.933 296.525 247.621 296.576 248.301 296.68C248.231 299.454 247.621 302.177 247.278 304.925C246.26 305.051 245.235 305.099 244.217 305.206C244.22 306.068 244.217 306.936 244.217 307.803C244.407 307.828 244.79 307.876 244.98 307.9C245.687 311.268 246.397 314.653 246.638 318.091C246.716 318.916 246.614 320.1 245.57 320.207C241.848 321.037 238.018 321.302 234.216 321.409C237.1 321.693 240.005 321.527 242.897 321.572C248.898 321.564 254.896 321.588 260.897 321.559C259.183 320.584 258.043 318.737 258.018 316.755C257.997 307.024 258.016 297.291 258.01 287.557C257.978 285.46 259.119 283.364 261.026 282.426C262.212 281.733 263.62 281.77 264.946 281.808C263.792 279.451 263.208 276.75 263.703 274.144C264.033 271.212 266.113 268.596 265.538 265.554C265.069 262.306 262.437 260.051 260.07 258.056C258.139 256.34 255.801 254.733 254.985 252.157C254.315 250.184 255.617 248.374 256.246 246.587C257.119 244.242 257.914 241.54 256.816 239.127C255.898 236.806 253.525 235.579 252.259 233.499C251.354 232.154 250.936 230.339 251.627 228.818C252.334 227.243 254.063 226.435 255.689 226.186C258.409 225.613 261.307 226.333 263.548 227.95C264.156 227.179 264.932 226.496 265.91 226.258C268.55 225.53 271.552 226.389 273.458 228.349C274.626 229.461 275.392 230.92 275.887 232.438C276.607 231.796 277.507 231.306 278.501 231.324C281.093 231.105 283.671 232.58 284.922 234.838C286.325 237.132 286.638 239.923 286.309 242.552C286.025 244.239 285.342 245.822 284.74 247.412C284.812 247.53 284.954 247.766 285.024 247.881C284.159 248.711 283.286 249.637 283.058 250.861C282.785 251.825 283.002 252.813 283.138 253.78L283.114 253.866C282.442 255.395 283.026 257.315 284.255 258.396C283.891 256.883 282.82 255.483 283.114 253.866C284.049 256.993 285.57 259.952 286.089 263.195C286.563 265.8 285.763 268.574 284.027 270.567C283.422 271.236 282.755 271.844 282.126 272.489C279.695 274.956 278.099 278.313 278.067 281.805C279.952 281.811 281.837 281.808 283.725 281.808C283.079 278.83 285.002 275.836 287.57 274.452C288.692 273.785 290.138 273.807 291.11 272.872C293.429 270.805 294.73 267.806 295.346 264.815C295.654 262.649 295.734 260.172 294.307 258.356C293.193 256.999 292.634 255.151 293.116 253.426C294.259 249.046 297.754 245.894 299.866 242.019C301.575 238.704 301.564 234.452 299.481 231.303C298.26 229.407 296.195 228.157 294.007 227.712C292.963 227.442 291.825 227.664 290.912 228.221C289.752 229.029 289.174 230.486 289.195 231.871C288.979 234.281 290.438 236.431 290.419 238.825C290.521 240.605 289.902 242.381 288.845 243.803C287.819 245.233 286.633 246.563 285.254 247.661C285.246 247.565 285.23 247.372 285.222 247.276C286.981 245.583 288.788 243.787 289.672 241.454C290.387 239.451 289.932 237.269 289.305 235.306C288.684 233.408 288.467 231.206 289.402 229.375C290.09 227.956 291.713 227.147 293.258 227.251C296.024 227.452 298.653 229.078 300.046 231.48C302.207 235.07 301.883 239.848 299.604 243.302C297.893 245.966 295.753 248.36 294.374 251.231C293.598 252.792 293.011 254.637 293.598 256.361C293.932 257.515 294.971 258.273 295.376 259.395C296.05 261.023 295.986 262.839 295.796 264.558C295.317 267.404 294.133 270.168 292.24 272.363C291.464 273.269 290.443 273.962 289.268 274.2C286.071 275.076 283.366 278.399 284.116 281.808C285.977 281.859 288.009 281.513 289.691 282.536C291.386 283.452 292.473 285.348 292.422 287.276C292.411 297.192 292.427 307.113 292.414 317.028C292.403 318.94 291.169 320.549 289.632 321.564C299.491 321.586 309.351 321.562 319.21 321.575C319.497 321.575 319.759 321.661 320 321.832V322.212C319.968 322.253 319.904 322.336 319.872 322.376H30.2894C29.9494 321.931 30.2894 321.532 30.7902 321.583C56.9009 321.54 83.0116 321.618 109.122 321.543C114.258 321.61 119.394 321.551 124.53 321.572C127.639 321.671 130.716 321.09 133.771 320.6C153.728 317.087 172.357 306.39 185.385 290.864C185.028 288.687 184.522 286.505 184.52 284.293C184.493 283.706 185.004 283.495 185.457 283.318C185.071 280.988 184.707 278.651 184.343 276.318C184.206 276.369 183.931 276.471 183.791 276.525C181.689 275.231 179.539 274.018 177.437 272.722C175.565 271.445 175.849 268.178 178.029 267.386C179.954 266.606 181.63 268.103 183.143 269.072C182.155 263.53 181.18 257.976 179.812 252.511C178.588 247.019 177.242 241.545 176.414 235.978C176.12 234.447 176.556 232.931 176.942 231.464C179.759 221.047 183.009 210.754 186.164 200.439C184.311 201.165 182.667 202.897 180.53 202.517C178.634 202.188 177.59 199.74 178.556 198.107C179.148 196.945 180.476 196.54 181.534 195.933C182.884 195.29 184.169 194.521 185.508 193.855C186.284 194.685 186.678 195.775 187.296 196.714C188.606 192.601 189.923 188.486 191.147 184.343C180.366 168.523 164.362 156.307 146.169 150.29C140.061 148.199 133.696 146.935 127.294 146.172C129.661 145.859 132.06 145.752 134.448 145.778C145.331 145.615 156.219 147.602 166.41 151.402C166.643 149.642 166.737 147.779 167.701 146.228C173.043 136.612 178.99 127.353 184.611 117.903C186.306 115.158 188.052 112.181 190.968 110.579C191.567 110.25 192.127 109.771 192.837 109.712L192.947 109.795C192.422 110.328 191.677 110.563 191.064 110.976C187.864 112.866 186.086 116.286 184.212 119.354C179.427 127.275 174.526 135.129 169.883 143.133C168.986 144.758 167.926 146.322 167.339 148.095C166.766 150.365 166.565 152.888 167.583 155.067C168.143 156.321 169.559 156.744 170.705 157.279C177.153 159.946 183.957 161.601 190.475 164.075C191.717 164.581 193.083 164.766 194.269 165.409L194.165 165.417C192.419 165.46 190.871 164.442 189.192 164.091C190.74 165.457 192.403 166.686 193.91 168.103C194.261 168.4 194.583 168.791 195.054 168.903C195.284 168.036 195.552 167.174 195.721 166.293C195.482 165.851 194.757 165.966 194.331 165.773C194.556 165.693 194.781 165.612 195.006 165.532C197.571 166.252 200.128 167.04 202.771 167.436C203.427 167.677 203.513 166.825 203.724 166.408C204.571 163.717 205.663 161.066 205.974 158.241C203.323 156.832 200.495 155.785 197.753 154.564C193.525 152.732 189.259 150.976 185.109 148.981C183.341 148.526 181.478 148.718 179.769 149.318C179.917 148.7 180.656 148.662 181.167 148.518C182.525 148.178 183.931 148.346 185.291 148.574C188.376 144.244 191.233 139.74 193.75 135.054C195.871 130.89 197.954 126.541 198.388 121.829C198.519 117.408 197.512 113.035 195.978 108.908C195.032 109.018 194.173 109.433 193.279 109.722C193.23 109.634 193.131 109.455 193.083 109.366C194.32 108.833 195.64 108.584 196.955 108.319C201.21 106.986 205.612 106.244 209.958 105.296C211.768 104.988 212.232 102.988 212.625 101.494C209.69 102.458 206.225 101.855 203.995 99.6541C200.653 96.3766 199.298 91.5727 199.183 86.9991C198.543 85.7218 197.67 84.557 197.172 83.202C195.461 79.1024 195.801 74.1807 198.219 70.4319C198.945 69.3929 199.903 68.4503 201.116 68.0085C202.011 67.6363 203.06 67.8719 203.901 67.3391C205.966 66.1716 208.309 65.6387 210.638 65.312ZM215.715 79.6165C213.611 81.1214 211.198 82.3211 208.593 82.5701C206.362 82.6665 204.123 82.4496 201.933 82.0345C200.953 81.673 200.043 82.4978 199.37 83.103C199.242 84.3026 199.51 85.5103 199.611 86.7072C199.582 91.0345 200.841 95.5304 203.743 98.8213C205.275 100.591 207.58 101.601 209.918 101.55C213.589 101.365 216.69 99.1025 219.614 97.0969C219.242 99.2498 218.374 101.341 217.038 103.079C215.616 104.672 214.01 106.174 212.063 107.101C212.901 109.168 213.571 111.308 214.505 113.332C217.212 110.199 219.89 107.034 222.651 103.947C222.137 103.282 221.706 102.533 221.641 101.676C221.507 100.066 221.606 98.4465 221.759 96.8425C222.171 95.5143 222.686 94.2183 223.077 92.8821C223.556 91.4923 223.392 89.9205 222.761 88.6057C223.427 88.1478 224.241 87.6498 224.367 86.7742C224.565 85.446 223.971 83.8956 222.766 83.2261C222.145 82.8861 221.545 83.3734 220.983 83.5983C220.332 84.5757 220.993 85.7111 220.709 86.7661C220.193 86.9482 219.657 87.0419 219.113 86.975C218.23 84.4017 217.402 81.8096 216.559 79.2256C216.259 79.3193 215.962 79.4211 215.715 79.6165ZM223.441 103.58C220.57 107.015 217.56 110.336 214.695 113.774C216.112 114.789 217.491 115.86 218.923 116.853C221.282 113.155 223.773 109.538 226.199 105.88C226.301 105.623 226.74 105.307 226.459 105.036C225.43 104.6 224.431 104.099 223.441 103.58ZM210.076 105.778C209.669 109.007 210.264 112.28 211.096 115.394C212.079 114.741 213.196 114.32 214.154 113.629C213.043 110.909 212.036 108.145 211.011 105.39C210.676 105.468 210.365 105.599 210.076 105.778ZM226.742 105.706C224.228 109.53 221.647 113.311 219.146 117.148C218.741 117.142 218.366 116.998 218.002 116.848C217.713 118.149 217.469 119.601 216.5 120.586C216.454 124.747 216.637 128.917 216.366 133.067C216.369 135.568 216.388 138.069 216.361 140.57C216.061 142.514 216.404 144.49 216.13 146.434C216.005 151.487 215.046 156.473 214.216 161.448C214.944 161.764 215.624 162.177 216.326 162.546C218.522 163.411 220.841 163.896 223.101 164.56C222.627 163.106 222.123 161.663 221.655 160.209C221.349 159.079 221.893 157.884 222.83 157.234C224.394 156.08 226.049 155.057 227.658 153.972C227.899 153.755 228.526 153.563 228.17 153.139C227.851 152.408 227.447 151.474 228.156 150.823C231.177 148.874 234.229 146.967 237.266 145.042C237.459 143.382 237.587 141.713 237.716 140.048C235.903 138.101 234.891 135.544 234.176 133.019C233.587 130.491 233.485 127.883 233.504 125.302C233.447 123.864 233.94 122.383 233.41 120.99C232.192 117.389 233.643 113.311 236.385 110.815C238.072 109.439 240.329 109.238 242.413 109.115C237.668 107.805 232.896 106.579 228.089 105.518C227.645 105.435 226.965 105.087 226.742 105.706ZM196.353 108.903C197.804 112.467 198.69 116.294 198.76 120.147C198.787 122.594 199.636 124.967 199.504 127.433C199.587 129.5 199.215 131.551 198.738 133.552C199.593 137.82 200.541 142.075 201.304 146.362C201.419 146.782 201.296 147.216 201.215 147.631C200.621 150.028 199.986 152.411 199.32 154.789C201.36 155.63 203.371 156.556 205.39 157.44L205.54 157.386C206.884 153.86 208.127 150.29 209.302 146.702C209.937 144.458 210.183 142.131 210.537 139.831C211.442 133.305 212.213 126.758 213.019 120.219C212.162 118.765 212.133 116.99 211.934 115.354C211.742 115.472 211.353 115.707 211.161 115.825C210.338 115.52 210.502 114.505 210.266 113.819C209.79 111.187 209.23 108.467 209.707 105.797C205.213 106.635 200.733 107.586 196.353 108.903ZM236.688 111.069C234.516 112.997 233.228 115.935 233.386 118.843C233.576 121.555 235.183 123.829 236.519 126.097C240.471 132.414 244.761 138.508 248.925 144.68C248.853 144.742 248.711 144.865 248.641 144.927C245.385 140.292 242.292 135.539 239.041 130.906C238.441 135.52 238.155 140.176 237.668 144.806C238.15 144.822 238.615 144.959 239.052 145.165C239.17 145.433 239.293 145.698 239.421 145.966C240.688 145.211 241.842 144.273 243.144 143.575C244.199 143.052 245.374 143.489 246.255 144.137C246.614 144.667 246.959 145.232 247.045 145.883C247.84 150.435 248.737 154.971 249.517 159.529C250.009 158.998 250.419 158.393 250.936 157.884L250.928 157.761C252.141 156.358 253.26 154.875 254.425 153.429C252.609 150.638 250.714 147.899 248.778 145.189L249.166 145.045C251.083 147.712 252.963 150.43 254.677 153.244C255.807 152.89 256.969 152.625 258.16 152.738C258.583 152.797 259.339 152.682 259.384 153.303C257.842 152.995 256.184 153.072 254.736 153.707C251.297 157.863 247.982 162.126 244.686 166.397C243.205 168.467 241.502 170.392 240.284 172.636C243.717 175.29 247.016 178.123 250.494 180.718C251.431 180.013 252.117 179.047 252.885 178.174C257.488 172.516 261.952 166.732 266.012 160.667C267.136 158.779 268.585 156.961 269.016 154.762C268.261 151.573 266.689 148.638 265.35 145.66C261.807 138.115 257.893 130.751 253.967 123.398C251.868 119.676 249.894 115.871 247.527 112.309C246.59 110.78 244.82 110.006 243.117 109.706C240.916 109.425 238.492 109.664 236.688 111.069ZM195.879 131.597C193.094 137.67 189.415 143.28 185.671 148.796C190.044 150.861 194.508 152.732 198.971 154.591C199.502 152.494 200.104 150.416 200.61 148.311C200.768 147.613 201.039 146.89 200.846 146.167C199.756 140.227 198.406 134.342 197.287 128.408C196.701 129.417 196.42 130.566 195.879 131.597ZM242.739 144.223C241.684 144.98 240.61 145.706 239.513 146.4C239.582 147.002 239.657 147.602 239.724 148.207C239.529 148.52 239.387 148.884 239.071 149.099C236.334 151.08 233.581 153.043 230.842 155.019C230.389 155.429 229.774 155.252 229.23 155.241C228.855 154.885 228.561 154.46 228.424 153.959C226.691 155.067 224.999 156.243 223.28 157.37C222.343 157.943 221.716 159.154 222.102 160.235C222.603 161.703 223.077 163.181 223.588 164.646C224.027 164.809 224.45 165.013 224.857 165.248C224.892 165.816 224.573 166.268 224.273 166.716C224.635 167.913 225.125 169.067 225.492 170.264C225.69 170.96 226.472 171.204 226.866 171.763C227.696 172.995 228.204 174.406 228.885 175.721C229.136 176.513 229.583 177.234 229.771 178.051C229.243 178.206 228.692 178.182 228.151 178.171C228.697 179.821 229.284 181.459 229.824 183.111C230.285 183.433 230.992 183.304 231.546 183.427C232.738 183.567 233.913 183.877 235.118 183.92C236.117 183.227 237.226 182.678 238.131 181.856C237.448 181.684 236.744 181.266 236.042 181.599C234.743 182.051 232.85 182.571 231.959 181.159C232.939 179.748 234.877 179.719 236.272 178.921C237.228 178.281 238.208 177.633 239.336 177.341C240.728 177.054 241.588 175.785 242.335 174.687C241.537 174.221 240.873 173.573 240.166 172.992C239.791 172.781 239.922 172.336 240.131 172.06C242.873 167.797 246.22 163.963 249.195 159.874C248.354 155.132 247.487 150.392 246.598 145.658C246.515 145.039 246.054 144.592 245.661 144.15L245.599 144.193C244.785 143.564 243.548 143.615 242.739 144.223ZM206.228 159.336C205.987 161.288 205.219 163.127 204.662 165.005C205.743 165.296 206.882 165.304 207.963 165.599C207.907 164.681 207.875 163.735 208.22 162.865C207.854 162.678 207.626 162.332 207.38 162.022C207.208 161.13 207.682 160.407 208.368 159.893C207.637 159.78 206.938 159.534 206.228 159.336ZM209.206 160.147C208.555 160.286 207.907 160.763 207.787 161.443C207.789 162.316 208.74 162.734 209.458 162.927C210.617 163.245 211.87 162.953 212.842 162.268C212.976 161.866 213.38 161.411 213.019 161.012C212.135 159.909 210.483 159.756 209.206 160.147ZM211.308 163.417C210.949 164.292 210.491 165.227 210.585 166.191C211.112 167.248 211.602 168.328 212.194 169.353C213.115 170.55 214.31 171.533 215.108 172.829C215.841 174.355 215.825 176.08 216.149 177.708C216.246 178.342 216.738 178.774 217.167 179.205C217.566 178.857 217.435 178.265 217.55 177.801C217.785 175.292 217.127 172.84 216.805 170.371L216.899 170.183L217.145 170.226C218.187 172.114 219.443 173.978 219.81 176.147C220.144 177.394 220.359 179.215 222.008 179.301C221.997 178.08 221.762 176.878 221.566 175.678C221.293 173.956 220.401 172.433 219.82 170.813C219.914 170.772 220.104 170.692 220.201 170.652C220.744 172.001 221.398 173.311 221.823 174.706C222.051 175.702 222.201 176.717 222.321 177.735C222.568 178.741 223.401 179.676 224.434 179.885C224.324 178.329 223.949 176.813 223.65 175.29C223.218 173.68 222.53 172.157 222.032 170.572C222.043 170.411 222.064 170.09 222.075 169.929C222.72 170.566 222.715 171.57 223.157 172.334C223.907 172.925 225.021 173.081 225.5 173.988C226.228 175.244 226.67 176.8 227.998 177.582C228.368 177.831 228.823 177.756 229.246 177.745C228.344 175.807 227.586 173.782 226.429 171.977C224.592 170.304 222.549 168.871 220.557 167.393C219.901 166.6 219.545 165.562 218.693 164.932C217.132 163.711 215.547 162.412 213.643 161.781C213.161 162.667 212.299 163.253 211.308 163.417ZM208.319 165.559C208.895 165.679 209.476 165.77 210.057 165.886C210.231 165.055 210.502 164.252 210.745 163.441C210.006 163.615 209.289 163.251 208.601 163.24C208.255 163.947 208.368 164.79 208.319 165.559ZM217.684 163.639C218.249 164.041 218.822 164.437 219.346 164.892C219.869 165.345 220.056 166.1 220.645 166.48C221.791 166.536 223.095 167.152 224.083 166.284C224.204 166.006 224.327 165.728 224.453 165.452C222.53 164.788 220.525 164.405 218.581 163.8C218.289 163.698 217.986 163.663 217.684 163.639ZM196.149 166.317C195.664 168.536 194.856 170.703 194.658 172.974C196.32 173.801 198.227 173.683 200.024 173.889C202.897 173.897 205.773 173.905 208.649 173.884C209.865 173.667 211.102 173.833 212.328 173.71C213.238 173.576 214.149 173.804 215.049 173.929C214.451 171.908 212.483 170.762 211.426 169.008C209.848 170.28 208.29 171.584 206.815 172.968C206.233 171.651 205.618 170.349 204.991 169.053C204.667 168.36 204.439 167.602 203.912 167.029C203.834 167.2 203.682 167.543 203.604 167.712C201.041 167.905 198.621 166.809 196.149 166.317ZM220.709 166.884C221.681 167.685 222.718 168.405 223.759 169.112C223.733 168.448 223.642 167.792 223.577 167.133C222.616 167.305 221.649 167.056 220.709 166.884ZM217.544 171.892C217.633 172.773 217.71 173.672 217.967 174.524C218.219 174.572 218.72 174.674 218.969 174.722C218.527 173.763 218.061 172.813 217.544 171.892ZM223.376 172.957C223.781 174.015 224.121 175.11 224.268 176.238C224.56 175.309 224.217 174.361 224.26 173.415C224.041 173.3 223.596 173.07 223.376 172.957ZM195.003 173.605C190.395 188.175 185.837 202.761 181.416 217.389C179.911 222.552 178.297 227.688 177.014 232.912C176.342 235.135 177.113 237.43 177.437 239.647C178.492 245.008 179.716 250.331 180.969 255.649C182.045 260.356 182.851 265.117 183.679 269.873C184.263 273.627 185.018 277.36 185.443 281.136C190.488 278.522 195.533 275.901 200.591 273.309C199.914 268.058 199.258 262.807 198.661 257.547C197.994 252.412 197.019 247.289 195.306 242.394C194.941 240.603 194.484 238.835 194.039 237.063C193.913 236.431 193.678 235.673 194.154 235.129C199.515 226.997 204.841 218.822 209.449 210.234C209.642 209.53 209.5 208.767 209.65 208.047C209.741 204.574 210.02 201.111 210.103 197.636C210.242 196.672 210.29 195.681 210.092 194.722C209.519 192.382 209.04 190.02 208.475 187.677C208.394 187.23 208.17 186.764 208.411 186.325C208.526 186.501 208.625 186.689 208.705 186.887C210.82 196.013 212.759 205.181 215.113 214.251C216.725 220.493 218.254 226.756 220.102 232.934C221.714 237.272 223.154 241.717 223.757 246.322C224.011 249.83 224.788 253.271 225.254 256.755C227.125 269.225 228.986 281.695 230.81 294.171C235.67 292.73 240.56 291.383 245.43 289.97C244.582 279.178 243.604 268.392 242.777 257.604C242.557 253.858 242.346 250.087 241.462 246.427C241.114 244.338 240.177 242.33 240.335 240.18C240.399 236.961 240.201 233.732 240.477 230.526C240.463 227.484 240.474 224.442 240.471 221.401C240.415 218.195 240.605 214.979 240.335 211.785C240.321 209.648 240.372 207.511 240.316 205.377C240.078 203.851 240.294 202.306 240.163 200.777C239.954 199.456 240.185 198.115 239.949 196.797C239.992 195.638 239.78 194.495 239.807 193.338C239.732 192.797 239.671 192.251 239.654 191.707C238.332 192.478 237.009 193.249 235.635 193.927C234.891 193.774 234.053 193.93 233.426 193.389C232.261 192.655 232.304 191.102 231.619 190.076C229.262 191.008 226.898 191.919 224.541 192.853C223.966 193.062 223.398 193.432 222.758 193.303C222.471 193.158 222.38 192.816 222.209 192.572C223.51 190.135 224.667 187.535 224.932 184.756C224.938 183.286 225.015 181.805 224.782 180.345C223.834 180.388 223.028 179.799 222.445 179.108C222.34 180.161 220.883 179.596 220.407 179.071C219.609 177.895 219.443 176.436 219.025 175.105C218.666 175.051 218.31 175.003 217.954 174.958C218.246 176.511 218.01 178.136 217.633 179.657C217.001 179.719 216.508 179.304 216.181 178.816C215.223 177.502 215.689 175.766 215.124 174.302C214.379 174.216 213.64 174.12 212.896 174.05C211.385 174.264 209.856 174.058 208.346 174.288C205.663 174.31 202.98 174.288 200.3 174.299C198.524 174.165 196.722 174.122 195.003 173.605ZM224.938 176.27C225.053 179.245 225.537 182.22 225.294 185.203C224.927 187.878 223.818 190.379 222.597 192.762C223.184 193.118 223.81 192.692 224.375 192.494C225.615 191.945 226.919 191.557 228.143 190.973C227.018 185.663 226.003 180.329 224.814 175.033C224.766 175.448 224.737 175.884 224.938 176.27ZM239.435 177.718C238.254 178.013 237.263 178.728 236.256 179.373C234.976 180 233.364 180.169 232.355 181.24C233.723 182.142 235.322 181.387 236.717 180.964C237.448 181.269 238.267 181.414 238.915 181.893C237.852 182.597 236.803 183.32 235.726 184.003C235.458 184.15 235.191 184.37 234.867 184.33C232.987 184.132 231.126 183.596 229.225 183.701C228.986 184.295 230.17 185.149 229.206 185.374C228.775 185.99 229.68 186.343 230.012 186.748C229.591 186.834 229.182 186.975 228.871 187.278C229.292 187.664 229.653 188.215 230.29 188.237C232.127 188.622 233.964 189.061 235.836 189.257C238.056 188.089 240.115 186.595 242.035 184.983C242.953 183.73 243.749 182.38 244.662 181.119C243.569 179.604 242.445 178.104 241.451 176.522C240.865 177.046 240.222 177.552 239.435 177.718ZM246.44 178.115C245.958 179.497 245.42 180.884 244.504 182.043C243.497 183.369 242.865 185.021 241.465 186.009C239.671 187.34 237.876 188.719 235.852 189.683C235.086 189.538 234.312 189.468 233.552 189.318C232.965 189.19 232.379 189.069 231.787 188.997C232.082 189.988 232.505 190.939 232.783 191.94C233.118 192.853 234.023 193.488 235.001 193.493C235.442 193.442 235.908 193.448 236.294 193.188C241.315 190.333 246.335 187.479 251.364 184.64C252.125 184.244 252.931 183.717 253.142 182.822C253.375 181.518 252.853 180.244 252.733 178.956C252.06 179.729 251.38 180.501 250.628 181.197C249.152 180.278 247.835 179.14 246.44 178.115ZM205.01 218.728C202.423 223.339 199.44 227.717 196.604 232.173C196.449 233.496 196.666 234.84 196.497 236.168C195.75 236.147 195.003 236.15 194.256 236.15C194.743 238.356 195.298 240.552 195.849 242.74L195.836 242.804C198.516 250.36 199.14 258.41 200.088 266.309C200.171 266.167 200.34 265.886 200.423 265.744C206.164 250.875 207.856 234.42 205.01 218.728ZM265.677 226.737C264.314 227.176 263.401 228.593 263.489 230.01C263.602 231.595 264.37 233.076 265.412 234.251C266.445 235.67 267.559 237.25 267.524 239.087C267.704 241.797 266.344 244.258 265.168 246.604C264.442 247.977 264.539 249.699 265.315 251.035C267.053 253.975 269.993 256.056 271.418 259.205C272.304 260.897 272.441 262.94 271.911 264.767C271.52 266.347 270.526 267.693 270.157 269.281C268.729 273.667 270.331 278.728 273.675 281.792C275.006 281.837 276.34 281.792 277.673 281.808C277.657 280.959 277.906 280.124 277.818 279.275C277.579 277.864 276.872 276.471 275.659 275.662C274.205 274.222 273.814 271.962 274.511 270.069C274.778 271.327 274.342 272.687 274.942 273.879C275.185 274.519 275.657 275.028 276.133 275.512C276.784 274.152 277.695 272.926 278.23 271.512C278.95 269.702 278.908 267.677 278.444 265.811C277.009 266.946 275.295 268.138 275.001 270.09C274.87 269.876 274.746 269.664 274.629 269.453L274.645 269.386C275.092 268.499 275.63 267.651 276.374 266.984C276.921 266.355 277.823 266.084 278.171 265.281C278.878 264.202 279.162 262.94 279.411 261.698C279.598 260.289 279.601 258.876 279.411 257.47C279.084 255.802 278.637 254.045 277.405 252.797C276.693 251.964 275.601 251.581 274.926 250.711C274.251 249.977 274.034 248.979 273.817 248.041C273.52 244.036 275.325 240.313 275.93 236.425C276.144 233.836 275.319 231.172 273.681 229.155C271.79 226.909 268.507 225.739 265.677 226.737ZM275.394 240.571C274.736 243.31 273.71 246.186 274.46 249.011C274.69 249.463 274.786 250.336 275.435 250.301C276.447 248.323 277.585 246.234 277.435 243.939C277.44 242.276 276.653 240.774 275.949 239.32C275.491 239.558 275.55 240.145 275.394 240.571ZM222.822 244.073C220.72 262.997 212.154 281.146 198.888 294.803C201.363 296.522 203.845 298.249 206.105 300.249C206.662 300.734 207.123 301.318 207.457 301.982C205.813 305.019 203.328 307.474 201.119 310.093C197.303 314.101 193.67 318.397 189.083 321.559C196.663 321.591 204.244 321.564 211.825 321.572C214.765 321.519 217.71 321.688 220.645 321.473C220.024 321.315 219.162 321.398 218.87 320.705C218.372 319.792 218.133 318.605 218.623 317.644C219.231 316.552 220.501 316.174 221.604 315.788C224.814 314.581 228.081 313.504 231.185 312.029C232.896 311.279 234.334 309.946 235.14 308.256C235.161 307.463 235.001 306.687 234.904 305.908L235.295 305.742C235.346 306.486 235.512 307.225 235.52 307.977C237.186 307.605 237.756 309.697 239.065 310.205C240.712 309.611 242.174 308.601 243.821 308.007C243.816 307.078 243.818 306.146 243.818 305.219C240.977 305.458 238.131 305.568 235.279 305.501L235.284 305.589C235.223 305.632 235.1 305.717 235.038 305.76C234.92 305.701 234.685 305.581 234.567 305.519C233.158 305.495 231.731 305.533 230.352 305.193C230.108 302.646 229.321 300.07 229.803 297.516C230.025 297.502 230.467 297.478 230.689 297.465C230.515 295.869 230.424 294.265 230.175 292.677C228.001 277.882 225.827 263.088 223.529 248.312C223.462 246.874 223.224 245.457 223.034 244.036L222.822 244.073ZM194.02 281.84C190.986 282.574 187.907 283.128 184.9 283.969C184.913 286.408 185.409 288.829 185.891 291.215C188.721 290.877 191.565 290.441 194.307 289.64C197.137 288.392 199.807 286.788 202.444 285.182C202.249 283.283 202.327 281.366 201.987 279.481C199.269 280.046 196.671 281.042 194.02 281.84ZM259.298 284.472C258 286.312 258.519 288.676 258.412 290.778C258.412 293.325 258.412 295.874 258.412 298.421C258.412 300.962 258.409 303.503 258.412 306.047C258.409 308.591 258.412 311.137 258.412 313.684C258.471 315.341 258.19 317.068 258.824 318.654C259.395 320.062 260.629 321.243 262.139 321.559C270.62 321.596 279.103 321.554 287.583 321.578C289.203 321.72 290.644 320.533 291.402 319.192C292.403 317.524 291.895 315.518 292.018 313.686C292.015 311.137 292.018 308.588 292.018 306.041C292.018 303.5 292.018 300.959 292.018 298.421C292.015 295.871 292.018 293.325 292.018 290.778C292.004 289.445 292.039 288.111 292.01 286.78C291.935 285.581 291.327 284.518 290.548 283.639C289.592 282.788 288.352 282.212 287.059 282.212C279.205 282.204 271.354 282.215 263.5 282.207C261.842 282.218 260.19 283.05 259.298 284.472ZM195.247 289.686C193.57 290.494 191.685 290.626 189.899 291.068C190.529 294.171 191.163 297.277 191.621 300.413C192.834 299.934 194.154 300.26 195.418 300.108C196.339 298.222 196.677 296.094 197.793 294.305C197.258 292.516 197.113 290.628 197.086 288.77C196.473 289.075 195.865 289.394 195.247 289.686ZM240.096 297.384C236.744 297.596 233.372 297.51 230.028 297.898C229.996 300.266 230.298 302.638 230.786 304.952C233.646 305.225 236.524 305.061 239.395 305.107C241.872 304.93 244.346 304.775 246.823 304.587C247.203 303.324 247.251 301.993 247.479 300.702C247.623 299.465 247.91 298.225 247.902 296.985C245.299 296.843 242.696 297.24 240.096 297.384ZM187.238 305.04C177.737 312.005 166.814 317.018 155.338 319.682C151.712 320.477 148.046 321.23 144.332 321.42C145.933 321.661 147.559 321.546 149.173 321.572C162.045 321.554 174.917 321.607 187.789 321.546C186.373 320.946 185.186 319.385 185.936 317.821C187.438 314.396 189.31 311.14 190.668 307.651C191.498 305.854 191.873 303.83 191.42 301.88C189.966 302.852 188.681 304.052 187.238 305.04Z" fill="#202D61"/>
<path d="M79.9456 78.5723C80.3258 78.4251 80.7382 78.4358 81.1372 78.4277C84.8004 78.4411 88.4608 78.4277 92.124 78.4331C94.0627 78.417 95.6988 80.2781 95.6104 82.1819C95.597 85.7487 95.6158 89.3181 95.5997 92.8876C95.5997 94.8423 93.8163 96.5829 91.8616 96.5132C88.3832 96.5052 84.9048 96.5052 81.4264 96.5132C80.0072 96.5855 78.521 95.8277 77.8784 94.5344C77.4928 93.7873 77.383 92.9277 77.391 92.095C77.4098 88.7906 77.383 85.4836 77.4017 82.1793C77.4285 80.6101 78.4514 79.0945 79.9456 78.5723ZM84.5647 89.4145C83.8846 88.7665 83.2607 88.0596 82.5296 87.4651C81.9271 86.9805 81.4853 86.2762 80.7195 86.0245C80.0018 86.2039 79.6537 86.8118 79.7769 87.524C81.1158 88.7263 82.3556 90.0331 83.6409 91.2943C84.0238 91.6772 84.6129 91.5139 85.0976 91.5621C87.7137 88.8977 90.3835 86.2869 93.005 83.6252C93.8458 82.9344 92.8095 81.7776 91.9178 82.0266C89.4891 84.5116 86.9988 86.9349 84.5647 89.4145Z" fill="#202D61"/>
<path d="M210.665 84.865C210.869 83.9707 211.908 84.3911 212.547 84.4366C212.604 84.541 212.716 84.7472 212.772 84.8516C212.071 84.7258 211.359 84.6883 210.665 84.865Z" fill="#202D61"/>
<path d="M201.946 86.7528C202.203 86.0592 202.83 85.6603 203.534 85.5264C203.299 86.1155 202.578 86.6216 201.946 86.7528Z" fill="#202D61"/>
<path d="M211.678 86.8733C211.828 86.8358 212.125 86.7582 212.275 86.7207C212.409 86.8064 212.679 86.9778 212.813 87.0635C213.081 87.6927 213.18 88.4639 212.564 88.9245C212.304 88.8254 212.045 88.7263 211.788 88.6273C211.498 88.081 211.501 87.4571 211.678 86.8733Z" fill="#202D61"/>
<path d="M203.03 88.3431C204.053 88.1851 204.345 89.8373 203.512 90.2898C202.516 90.3327 202.259 88.8385 203.03 88.3431Z" fill="#202D61"/>
<path d="M206.624 89.3209C206.696 89.2701 206.844 89.1656 206.916 89.1147C207.168 89.902 207.567 90.716 207.32 91.5595C206.592 91.8032 205.59 91.9799 205.427 92.8823C205.588 93.8544 206.742 93.8892 207.521 93.8195C207.623 94.3471 207.036 94.2239 206.704 94.2346C205.88 94.1998 204.857 93.5491 205.125 92.5985C205.135 92.1004 205.631 91.8514 205.981 91.5917C206.335 91.4872 206.68 91.3694 207.034 91.2516C207.01 90.5848 206.774 89.9609 206.624 89.3209Z" fill="#202D61"/>
<path d="M211.763 95.5224C211.954 95.1529 211.868 94.5531 212.369 94.4111C212.484 96.4917 210.301 98.0555 208.347 97.8788C208.363 97.7878 208.395 97.6057 208.411 97.5146C209.763 97.4825 211.26 96.872 211.763 95.5224Z" fill="#202D61"/>
<path d="M77.7423 110.097C78.326 108.793 79.7051 107.896 81.1323 107.888C84.7071 107.883 88.2846 107.893 91.8593 107.883C93.2973 107.834 94.6415 108.769 95.2681 110.036C95.6885 110.962 95.6082 111.996 95.6082 112.986C95.6002 116.101 95.6082 119.215 95.6055 122.329C95.6403 124.019 94.3336 125.558 92.7109 125.933C88.7639 126.003 84.8115 125.944 80.8618 125.963C78.8803 125.947 77.3486 123.997 77.3995 122.091C77.3861 118.869 77.4102 115.645 77.3888 112.424C77.3754 111.634 77.4825 110.844 77.7423 110.097ZM78.4438 109.752C78.0074 110.389 77.7824 111.139 77.7985 111.91C77.8039 115.386 77.7824 118.859 77.8092 122.334C77.8467 123.973 79.2097 125.545 80.8913 125.564C84.7285 125.556 88.5657 125.569 92.4029 125.558C92.7591 125.633 93.0081 125.358 93.1206 125.06L93.0349 125.47C94.2292 124.881 95.2092 123.727 95.2012 122.342C95.2065 118.773 95.2012 115.201 95.2039 111.631C95.2547 109.945 93.8302 108.359 92.1325 108.29C88.4693 108.29 84.8062 108.29 81.1457 108.29C80.0826 108.279 78.9606 108.79 78.4438 109.752Z" fill="#202D61"/>
<path d="M114.103 155.549C116.154 155.597 118.211 155.461 120.254 155.619C120.211 157.386 120.286 159.159 120.216 160.926C120.104 162.704 118.219 164.236 116.454 163.741C115.038 163.457 114.009 162.075 114.076 160.645C114.087 159.022 114.068 157.397 114.09 155.774L114.103 155.549Z" fill="#202D61"/>
<path d="M78.6445 166.29C80.2967 165.055 82.2113 164.215 84.0455 163.288C84.0804 163.35 84.1527 163.473 84.1875 163.537C84.8917 164.956 85.7084 166.319 86.3752 167.757C86.8706 168.759 86.6831 169.996 86.0271 170.882C84.9158 172.384 82.3907 172.459 81.2339 170.965C80.1923 169.508 79.6407 167.773 78.6445 166.29Z" fill="#202D61"/>
<path d="M154.561 164.509C155.586 164.865 156.489 165.484 157.436 166.001C158.291 166.518 159.209 166.954 159.954 167.637C158.84 169.324 157.878 171.105 156.799 172.81C155.961 174.117 154.062 174.404 152.758 173.678C151.339 172.904 150.857 170.955 151.628 169.565C152.56 167.856 153.709 166.266 154.561 164.509Z" fill="#202D61"/>
<path d="M115.798 180.294C116.425 179.427 117.89 179.403 118.489 180.324C119.855 182.214 121.148 184.156 122.501 186.057C122.929 186.745 123.564 187.385 123.593 188.244C122.776 198.5 122.019 208.764 121.194 219.02C121.044 221.612 120.744 224.196 120.64 226.791C124.139 227.929 126.375 231.902 125.441 235.477C139.044 245.811 152.708 256.061 166.346 266.346C167.259 267.104 168.544 267.696 168.815 268.957C169.549 271.643 170.256 274.339 170.992 277.025C170.885 277.901 170.231 278.784 169.27 278.739C166.544 278.576 163.826 278.187 161.098 278.053C160.592 277.909 160.045 277.788 159.681 277.384C146.78 265.334 133.948 253.212 121.068 241.143C120.838 240.921 120.581 240.878 120.299 241.017C118.302 241.716 116.053 241.296 114.261 240.241C112.363 239.108 111.104 237.081 110.74 234.918C110.729 234.219 110.729 233.52 110.743 232.821C111.08 230.847 112.127 229.013 113.747 227.819C112.772 214.714 111.709 201.614 110.721 188.51C110.697 187.966 110.796 187.396 111.144 186.962C112.713 184.753 114.216 182.495 115.798 180.294ZM116.192 227.074C113.605 227.76 111.599 230.09 111.187 232.719C111.024 234.101 111.118 235.55 111.731 236.819C112.778 239.197 115.252 240.782 117.815 240.961C119.866 241.034 121.93 240.217 123.36 238.739C124.536 237.411 125.227 235.686 125.272 233.911C125.256 231.977 124.49 230.076 123.087 228.737C121.288 227.045 118.567 226.317 116.192 227.074ZM125.379 235.957C124.763 238.048 123.216 239.786 121.253 240.712C123.363 242.82 125.58 244.815 127.741 246.866C138.085 256.599 148.445 266.317 158.795 276.045C159.537 276.559 160.01 277.537 161.001 277.609C163.66 277.826 166.317 278.112 168.976 278.337C169.792 278.468 170.644 277.764 170.537 276.923C169.835 274.238 169.093 271.563 168.384 268.879C168.258 268.427 167.929 268.071 167.58 267.779C153.506 257.183 139.435 246.579 125.379 235.957Z" fill="#202D61"/>
<path d="M49.502 196.23C50.3294 194.342 51.4353 192.561 52.6563 190.904C54.0595 191.879 55.6608 192.548 57.0077 193.603C57.9342 194.297 58.3117 195.555 58.0359 196.664C57.6182 198.377 55.6179 199.457 53.9577 198.782C52.4207 198.024 51.047 196.972 49.502 196.23Z" fill="#202D61"/>
<path d="M39.7715 229.999L40.0285 229.996C41.6031 229.999 43.1776 229.975 44.7494 229.999C46.3239 230.001 47.8315 231.337 47.8154 232.952C47.9547 234.636 46.423 236.203 44.7441 236.149C43.1803 236.163 41.6138 236.149 40.05 236.147L39.7715 236.144C39.7768 234.096 39.7742 232.047 39.7715 229.999Z" fill="#202D61"/>
<path d="M189.193 234.789C189.404 232.987 190.705 231.45 192.213 230.534C192.344 231.075 191.761 231.281 191.445 231.595C190.341 232.639 189.326 234.09 189.64 235.697C189.254 235.584 189.112 235.143 189.193 234.789Z" fill="#202D61"/>
<path d="M238.256 237.293C238.35 237.328 238.54 237.403 238.634 237.44C238.406 238.517 238.128 239.601 238.184 240.712C238.138 241.636 238.521 242.507 238.607 243.417C238.508 243.385 238.305 243.323 238.205 243.291C237.576 241.342 237.721 239.245 238.256 237.293Z" fill="#202D61"/>
<path d="M46.8701 266.306C48.699 265.506 50.3753 264.392 52.2283 263.642C54.1482 263.104 56.1432 264.705 56.095 266.679C56.0253 267.932 55.2033 269.067 54.0384 269.528C52.5951 270.331 51.0661 270.982 49.6791 271.881C48.5303 270.152 47.569 268.266 46.8701 266.306Z" fill="#202D61"/>
<path d="M77.5143 293.293C78.5747 291.737 81.1185 291.675 82.286 293.135C83.151 294.061 83.2554 295.526 82.6368 296.613C81.5979 298.402 80.4598 300.134 79.4771 301.955C78.5238 301.583 77.6776 301.005 76.8127 300.472C75.9237 299.899 74.9704 299.403 74.21 298.659C75.3989 296.926 76.3522 295.041 77.5143 293.293Z" fill="#202D61"/>
<path d="M147.687 296.688C147.821 294.715 150.245 293.507 151.964 294.38C153.254 294.905 153.68 296.348 154.309 297.465C155.131 298.978 155.868 300.536 156.73 302.025C155.024 303.182 153.161 304.159 151.219 304.855C150.625 303.49 149.824 302.231 149.192 300.89C148.544 299.556 147.446 298.268 147.687 296.688Z" fill="#202D61"/>
<path d="M114.085 305.225C114.095 303.286 116.272 301.787 118.082 302.483C119.389 302.842 120.225 304.17 120.235 305.487C120.243 307.675 120.254 309.863 120.227 312.053L120.168 312.206C118.147 312.195 116.125 312.2 114.103 312.203L114.09 311.975C114.074 309.726 114.076 307.474 114.085 305.225Z" fill="#202D61"/>
<path d="M99.6587 79.8334C99.9693 79.2764 100.666 79.2095 101.233 79.2309C120.786 79.2497 140.342 79.2202 159.895 79.247C160.492 79.1774 160.891 79.6192 161.215 80.0503C161.215 80.2431 161.217 80.6314 161.217 80.8269C160.872 81.2285 160.5 81.7748 159.884 81.6489C140.138 81.6409 120.392 81.657 100.647 81.6409C99.7953 81.6623 99.1124 80.5377 99.6587 79.8334Z" fill="#00AEEF"/>
<path d="M99.9803 86.2921C100.612 85.9466 101.349 86.0859 102.037 86.0618C112.925 86.0671 123.81 86.0671 134.695 86.0618C135.3 86.0216 135.991 86.2144 136.234 86.8303C136.596 87.6336 135.806 88.6003 134.962 88.4771C123.542 88.4664 112.124 88.4798 100.703 88.4718C99.5546 88.5548 99.0511 86.924 99.9803 86.2921Z" fill="#00AEEF"/>
<path d="M99.6192 93.9477C99.8013 93.2595 100.639 93.2113 101.223 93.1631C115.324 93.1551 129.425 93.1658 143.526 93.1578C143.973 93.1551 144.418 93.2381 144.862 93.3051C145.508 93.8111 145.54 94.6573 145.173 95.3428C144.822 95.4687 144.463 95.5972 144.086 95.5731C129.457 95.5704 114.832 95.5651 100.203 95.5758C99.7986 95.142 99.172 94.5797 99.6192 93.9477Z" fill="#00AEEF"/>
<path d="M100.168 109.198C100.511 109.099 100.848 108.943 101.212 108.962C121.025 108.954 140.838 108.967 160.65 108.954C161.258 109.313 161.641 109.87 161.513 110.606C161.173 111.032 160.728 111.466 160.131 111.369C140.396 111.364 120.664 111.377 100.929 111.364C100.214 111.402 99.7959 110.689 99.7236 110.06C99.8736 109.773 100.024 109.487 100.168 109.198Z" fill="#00AEEF"/>
<path d="M78.4433 109.752C82.2002 109.779 85.9571 109.752 89.714 109.763C91.6018 109.728 93.3048 111.412 93.2941 113.305C93.3798 115.956 93.3022 118.615 93.3289 121.269C93.3129 122.533 93.428 123.818 93.1201 125.061C93.0076 125.358 92.7586 125.634 92.4024 125.559C88.5652 125.569 84.728 125.556 80.8908 125.564C79.2092 125.545 77.8462 123.973 77.8087 122.335C77.7819 118.859 77.8034 115.386 77.798 111.91C77.7819 111.139 78.0069 110.389 78.4433 109.752Z" fill="#00AEEF"/>
<path d="M75.5186 113.241C75.5346 111.899 76.3942 110.443 77.7411 110.097C77.4813 110.844 77.3742 111.634 77.3876 112.424C77.409 115.645 77.3849 118.869 77.3983 122.091C77.3475 123.997 78.8791 125.947 80.8607 125.963C84.8103 125.944 88.7627 126.003 92.7097 125.933C91.9974 126.881 90.9263 127.553 89.7133 127.556C86.1546 127.58 82.5932 127.572 79.0344 127.561C77.2537 127.505 75.5668 126.057 75.5239 124.225C75.5159 120.564 75.5239 116.904 75.5186 113.241Z" fill="#00AEEF"/>
<path d="M100.194 115.999C100.952 115.707 101.766 115.79 102.559 115.788C113.543 115.796 124.527 115.777 135.511 115.796C136.328 115.86 136.684 116.746 136.604 117.472C136.202 117.793 135.83 118.305 135.251 118.2C123.825 118.192 112.397 118.203 100.968 118.195C100.243 118.265 99.865 117.576 99.6855 116.987C99.8569 116.658 100.026 116.329 100.194 115.999Z" fill="#00AEEF"/>
<path d="M99.707 123.973C99.932 123.181 100.711 122.817 101.488 122.881C114.702 122.886 127.914 122.884 141.126 122.884C142.42 122.953 143.748 122.728 145.017 123.02C145.866 123.371 145.786 124.367 145.446 125.061C145.098 125.189 144.736 125.32 144.358 125.296C129.877 125.285 115.396 125.307 100.912 125.285C100.192 125.32 99.8034 124.589 99.707 123.973Z" fill="#00AEEF"/>
<path d="M245.598 144.193L245.66 144.15C246.054 144.592 246.514 145.039 246.597 145.658C247.486 150.392 248.354 155.132 249.195 159.874C246.22 163.963 242.872 167.798 240.13 172.061C239.921 172.336 239.79 172.781 240.165 172.992C240.872 173.573 241.536 174.221 242.334 174.687C241.587 175.785 240.728 177.055 239.335 177.341C238.208 177.633 237.228 178.281 236.272 178.921C234.877 179.719 232.938 179.748 231.958 181.16C232.85 182.571 234.743 182.051 236.041 181.599C236.743 181.267 237.447 181.684 238.13 181.856C237.225 182.678 236.116 183.227 235.118 183.92C233.913 183.877 232.737 183.567 231.546 183.428C231.037 181.609 230.3 179.863 229.77 178.051C229.583 177.234 229.136 176.514 228.884 175.721C227.427 170.644 225.454 165.725 223.922 160.672C223.673 159.601 224.321 158.514 225.194 157.93C226.527 157.017 227.882 156.133 229.229 155.242C229.773 155.252 230.389 155.429 230.841 155.019C233.581 153.043 236.333 151.08 239.07 149.099C239.386 148.885 239.528 148.52 239.723 148.207C241.582 146.732 243.654 145.551 245.598 144.193Z" fill="#00AEEF"/>
<path d="M246.255 144.137C247.481 144.33 248.748 145.05 248.911 146.399C249.573 150.186 250.384 153.956 250.928 157.761L250.936 157.884C250.419 158.393 250.009 158.998 249.516 159.528C248.737 154.971 247.84 150.435 247.045 145.883C246.959 145.232 246.614 144.667 246.255 144.137Z" fill="#00AEEF"/>
<path d="M90.75 150.097C102.479 146.212 115.016 145.018 127.293 146.172C133.696 146.935 140.061 148.199 146.169 150.29C164.361 156.307 180.366 168.523 191.147 184.343C189.923 188.486 188.606 192.601 187.296 196.714C186.678 195.774 186.284 194.685 185.507 193.855C184.013 191.718 182.701 189.444 181.097 187.377C176.058 180.61 169.944 174.639 163.03 169.8C162.013 169.064 160.886 168.483 159.954 167.637C159.209 166.954 158.291 166.517 157.437 166.001C156.489 165.484 155.586 164.865 154.561 164.509C153.302 164.078 152.175 163.366 150.951 162.857C142.498 158.95 133.334 156.583 124.045 155.911C122.781 155.806 121.507 155.836 120.253 155.619C118.21 155.461 116.154 155.598 114.103 155.549L114.089 155.774C105.521 156.248 97.0187 158.08 89.0577 161.301C87.4136 162 85.7159 162.603 84.1869 163.537C84.1521 163.473 84.0798 163.35 84.045 163.288C82.2107 164.215 80.2961 165.055 78.644 166.29C77.763 167.007 76.7454 167.527 75.7975 168.148C67.2019 173.686 59.7016 180.924 53.8935 189.34C53.5401 189.905 53.1223 190.427 52.6564 190.904C51.4354 192.561 50.3295 194.342 49.502 196.23C48.8406 197.828 47.965 199.325 47.2313 200.892C42.963 210.004 40.561 219.955 40.0282 229.996L39.7711 229.999C39.7738 232.047 39.7765 234.096 39.7711 236.144L40.0496 236.147C40.1487 244.962 42.0311 253.724 45.1668 261.947C45.697 263.414 46.4226 264.809 46.8698 266.306C47.5687 268.266 48.53 270.152 49.6788 271.881C50.0885 272.371 50.4205 272.92 50.7338 273.477C55.543 281.661 61.8652 288.947 69.2692 294.883C70.849 296.23 72.6431 297.301 74.2096 298.659C74.9701 299.403 75.9234 299.899 76.8124 300.472C77.6773 301.005 78.5235 301.583 79.4767 301.955C82.1411 303.144 84.6582 304.654 87.3761 305.739C95.8163 309.394 104.921 311.41 114.089 311.975L114.103 312.203C116.124 312.2 118.146 312.195 120.168 312.206L120.227 312.053C129.433 311.726 138.62 309.938 147.178 306.489C148.547 305.996 149.821 305.268 151.219 304.855C153.16 304.159 155.024 303.182 156.73 302.025C157.568 301.339 158.556 300.876 159.461 300.292C167.449 295.322 174.537 288.912 180.259 281.444C181.507 279.856 182.618 278.166 183.791 276.525C183.93 276.471 184.206 276.369 184.343 276.318C184.707 278.651 185.071 280.988 185.457 283.318C185.004 283.495 184.493 283.706 184.519 284.293C184.522 286.505 185.028 288.687 185.384 290.864C172.357 306.39 153.728 317.087 133.771 320.6C130.715 321.09 127.639 321.671 124.53 321.572C119.394 321.551 114.258 321.61 109.122 321.543C99.932 320.557 90.8839 318.198 82.4356 314.439C73.6607 310.551 65.5444 305.203 58.4805 298.71C43.1665 284.708 33.0473 265.131 30.6427 244.504C30.2865 242.051 30.233 239.569 30 237.111V230.636C30.2142 229.193 30.1366 227.725 30.3213 226.277C31.296 214.792 34.5602 203.505 39.8862 193.282C44.4866 184.429 50.6187 176.38 57.8941 169.554C67.2608 160.787 78.5422 154.058 90.75 150.097Z" fill="#00AEEF"/>
<path d="M254.261 177.006C254.374 177.175 254.491 177.341 254.612 177.51C254.893 179.132 255.22 180.747 255.498 182.373C255.683 183.355 255.255 184.448 254.408 184.999C249.84 187.648 245.197 190.167 240.648 192.843C240.503 192.845 240.216 192.853 240.072 192.856C240.066 192.401 240.066 191.946 240.069 191.493C244.096 189.198 248.135 186.919 252.167 184.635C252.976 184.167 253.57 183.302 253.6 182.351C253.621 181.071 253.123 179.855 253.078 178.584C253.444 178.037 253.889 177.55 254.261 177.006Z" fill="#00AEEF"/>
<path d="M246.44 178.115C247.835 179.14 249.152 180.278 250.628 181.197C251.38 180.501 252.06 179.729 252.732 178.956C252.853 180.244 253.375 181.518 253.142 182.822C252.931 183.717 252.125 184.244 251.364 184.64C246.335 187.479 241.315 190.333 236.294 193.188C235.908 193.448 235.442 193.442 235 193.493C234.535 192.095 233.983 190.727 233.552 189.318C234.312 189.468 235.086 189.538 235.852 189.683C237.876 188.719 239.67 187.34 241.465 186.009C242.865 185.021 243.497 183.368 244.504 182.043C245.42 180.884 245.958 179.496 246.44 178.115Z" fill="#00AEEF"/>
<path d="M235.635 193.927C237.008 193.249 238.331 192.478 239.654 191.707C239.67 192.251 239.732 192.797 239.807 193.338C239.065 193.707 238.358 194.189 237.541 194.371C236.861 194.505 236.243 194.168 235.635 193.927Z" fill="#00AEEF"/>
<path d="M205.01 218.728C207.856 234.42 206.164 250.874 200.423 265.744C200.34 265.886 200.171 266.167 200.088 266.309C199.14 258.41 198.516 250.36 195.836 242.804L195.849 242.739C196.315 240.578 196.141 238.343 196.497 236.168C196.666 234.84 196.449 233.496 196.604 232.173C199.44 227.717 202.423 223.339 205.01 218.728Z" fill="#00AEEF"/>
<path d="M258.412 290.778C269.613 290.778 280.817 290.778 292.018 290.778C292.018 293.325 292.015 295.871 292.018 298.421C280.817 298.41 269.613 298.405 258.412 298.421C258.412 295.874 258.412 293.325 258.412 290.778Z" fill="#00AEEF"/>
<path d="M258.411 306.047C269.612 306.036 280.816 306.044 292.017 306.041C292.017 308.588 292.014 311.137 292.017 313.686C280.816 313.67 269.612 313.67 258.411 313.684C258.411 311.137 258.409 308.591 258.411 306.047Z" fill="#00AEEF"/>
<path d="M215.715 79.6165C215.961 79.4211 216.259 79.3193 216.559 79.2256C217.402 81.8096 218.23 84.4017 219.113 86.975C219.657 87.0419 220.192 86.9482 220.709 86.7661C220.993 85.7111 220.332 84.5757 220.982 83.5983C221.545 83.3734 222.144 82.8861 222.766 83.2261C223.971 83.8956 224.565 85.446 224.367 86.7742C224.241 87.6498 223.427 88.1478 222.76 88.6057C223.392 89.9205 223.556 91.4923 223.076 92.8821C222.685 94.2183 222.171 95.5143 221.759 96.8425C221.606 98.4465 221.507 100.066 221.641 101.676C221.705 102.533 222.136 103.282 222.65 103.947C219.89 107.034 217.212 110.199 214.505 113.332C213.57 111.308 212.901 109.168 212.063 107.101C214.009 106.174 215.616 104.672 217.038 103.079C218.374 101.341 219.242 99.2498 219.614 97.0969C216.69 99.1025 213.589 101.365 209.918 101.55C207.58 101.601 205.275 100.591 203.743 98.8213C200.84 95.5304 199.582 91.0345 199.611 86.7072C199.509 85.5103 199.242 84.3026 199.37 83.103C200.042 82.4978 200.953 81.673 201.933 82.0345C204.123 82.4496 206.362 82.6665 208.592 82.5701C211.198 82.3211 213.61 81.1214 215.715 79.6165ZM210.665 84.8649C211.358 84.6882 212.071 84.7257 212.772 84.8515C212.716 84.7471 212.604 84.5409 212.547 84.4365C211.907 84.391 210.868 83.9706 210.665 84.8649ZM201.946 86.7527C202.578 86.6215 203.298 86.1154 203.534 85.5263C202.83 85.6602 202.203 86.0592 201.946 86.7527ZM211.677 86.8732C211.5 87.457 211.498 88.0809 211.787 88.6272C212.044 88.7262 212.304 88.8253 212.563 88.9244C213.179 88.4638 213.08 87.6926 212.812 87.0634C212.679 86.9777 212.408 86.8063 212.274 86.7206C212.124 86.7581 211.827 86.8357 211.677 86.8732ZM203.031 88.3433C202.259 88.8387 202.516 90.3329 203.513 90.29C204.345 89.8375 204.054 88.1853 203.031 88.3433ZM206.624 89.3207C206.774 89.9607 207.01 90.5846 207.034 91.2513C206.68 91.3692 206.335 91.487 205.982 91.5914C205.631 91.8512 205.135 92.1002 205.125 92.5983C204.857 93.5489 205.88 94.1995 206.704 94.2344C207.037 94.2236 207.623 94.3468 207.521 93.8193C206.742 93.8889 205.588 93.8541 205.427 92.8821C205.591 91.9797 206.592 91.803 207.32 91.5593C207.567 90.7158 207.168 89.9018 206.916 89.1145C206.844 89.1654 206.696 89.2698 206.624 89.3207ZM211.763 95.5224C211.259 96.8719 209.762 97.4825 208.41 97.5146C208.394 97.6056 208.362 97.7877 208.346 97.8788C210.301 98.0555 212.483 96.4917 212.368 94.4111C211.867 94.553 211.953 95.1528 211.763 95.5224Z" fill="white"/>
<path d="M84.5641 89.4146C86.9982 86.935 89.4885 84.5117 91.9172 82.0267C92.8089 81.7777 93.8452 82.9345 93.0044 83.6253C90.3829 86.287 87.7132 88.8978 85.097 91.5622C84.6123 91.514 84.0232 91.6773 83.6403 91.2944C82.355 90.0332 81.1152 88.7264 79.7763 87.5241C79.6532 86.8118 80.0013 86.204 80.7189 86.0246C81.4847 86.2763 81.9266 86.9805 82.5291 87.4652C83.2601 88.0597 83.884 88.7666 84.5641 89.4146Z" fill="white"/>
<path d="M223.441 103.58C224.432 104.099 225.43 104.6 226.459 105.036C226.74 105.307 226.301 105.623 226.199 105.88C223.773 109.538 221.283 113.155 218.923 116.853C217.491 115.86 216.112 114.789 214.695 113.774C217.561 110.336 220.57 107.015 223.441 103.58Z" fill="white"/>
<path d="M210.076 105.778C210.365 105.599 210.676 105.467 211.01 105.39C212.036 108.145 213.043 110.908 214.154 113.629C213.195 114.32 212.079 114.74 211.096 115.394C210.263 112.279 209.669 109.007 210.076 105.778Z" fill="white"/>
<path d="M226.742 105.706C226.965 105.087 227.645 105.435 228.089 105.518C232.896 106.579 237.668 107.805 242.412 109.115C240.329 109.238 238.072 109.439 236.385 110.815C233.643 113.311 232.192 117.389 233.41 120.99C233.94 122.383 233.447 123.864 233.504 125.302C233.485 127.883 233.587 130.491 234.176 133.019C234.891 135.544 235.903 138.101 237.716 140.048C237.587 141.713 237.459 143.382 237.266 145.042C234.229 146.967 231.177 148.874 228.156 150.823C227.447 151.474 227.851 152.408 228.17 153.139C228.526 153.562 227.899 153.755 227.658 153.972C226.049 155.057 224.394 156.08 222.83 157.234C221.893 157.884 221.349 159.079 221.655 160.209C222.123 161.663 222.627 163.106 223.101 164.56C220.841 163.896 218.522 163.411 216.326 162.546C215.624 162.177 214.944 161.764 214.216 161.448C215.046 156.473 216.005 151.487 216.13 146.434C216.404 144.49 216.061 142.514 216.361 140.57C216.387 138.069 216.369 135.568 216.366 133.067C216.636 128.916 216.454 124.747 216.5 120.586C217.469 119.601 217.713 118.149 218.002 116.848C218.366 116.998 218.741 117.142 219.146 117.148C221.647 113.311 224.228 109.53 226.742 105.706Z" fill="white"/>
<path d="M196.353 108.903C200.733 107.586 205.213 106.635 209.706 105.797C209.23 108.467 209.789 111.187 210.266 113.819C210.502 114.505 210.338 115.52 211.16 115.825C211.353 115.707 211.742 115.472 211.934 115.354C212.133 116.99 212.162 118.765 213.019 120.219C212.213 126.758 211.442 133.305 210.537 139.831C210.183 142.131 209.937 144.458 209.302 146.702C208.127 150.29 206.884 153.86 205.54 157.386L205.39 157.44C203.371 156.556 201.36 155.63 199.319 154.789C199.986 152.411 200.621 150.028 201.215 147.631C201.296 147.216 201.419 146.782 201.304 146.362C200.541 142.075 199.593 137.82 198.738 133.552C199.215 131.551 199.587 129.5 199.504 127.433C199.635 124.967 198.787 122.594 198.76 120.147C198.69 116.294 197.804 112.467 196.353 108.903Z" fill="white"/>
<path d="M193.278 109.722C194.173 109.433 195.032 109.018 195.978 108.908C197.512 113.035 198.519 117.407 198.387 121.828C197.954 126.541 195.87 130.89 193.75 135.054C191.233 139.74 188.375 144.244 185.291 148.574C183.93 148.346 182.525 148.177 181.167 148.517C180.655 148.662 179.916 148.7 179.769 149.318C181.477 148.718 183.341 148.525 185.109 148.981C189.259 150.976 193.525 152.732 197.753 154.564C200.495 155.785 203.323 156.832 205.974 158.24C205.663 161.065 204.57 163.716 203.724 166.407C203.513 166.825 203.427 167.677 202.771 167.436C200.128 167.039 197.571 166.252 195.005 165.532C194.797 165.502 194.374 165.443 194.165 165.417L194.269 165.409C193.083 164.766 191.717 164.581 190.475 164.075C183.957 161.601 177.153 159.946 170.705 157.279C169.559 156.743 168.142 156.32 167.583 155.067C166.565 152.888 166.766 150.365 167.339 148.094C167.925 146.322 168.986 144.758 169.883 143.132C174.526 135.129 179.426 127.275 184.211 119.354C186.086 116.285 187.864 112.866 191.064 110.975C191.677 110.563 192.421 110.327 192.946 109.795C193.029 109.776 193.195 109.741 193.278 109.722Z" fill="white"/>
<path d="M236.688 111.069C238.493 109.663 240.916 109.425 243.117 109.706C244.82 110.006 246.59 110.78 247.527 112.309C249.894 115.87 251.868 119.676 253.967 123.398C257.893 130.751 261.808 138.115 265.35 145.66C266.689 148.638 268.261 151.573 269.016 154.762C268.585 156.96 267.136 158.779 266.012 160.666C261.952 166.732 257.488 172.516 252.885 178.174C252.117 179.047 251.431 180.013 250.494 180.717C247.016 178.123 243.717 175.29 240.284 172.636C241.502 170.392 243.205 168.467 244.686 166.397C247.982 162.126 251.298 157.863 254.736 153.707C256.184 153.072 257.842 152.995 259.384 153.303C259.339 152.681 258.584 152.797 258.161 152.738C256.969 152.625 255.807 152.89 254.677 153.244C252.963 150.429 251.083 147.712 249.166 145.045C249.083 144.921 249.003 144.801 248.925 144.68C244.761 138.508 240.471 132.414 236.519 126.097C235.183 123.829 233.576 121.555 233.386 118.843C233.228 115.935 234.516 112.997 236.688 111.069Z" fill="white"/>
<path d="M242.739 144.222C243.548 143.614 244.785 143.564 245.599 144.193C243.655 145.55 241.583 146.731 239.724 148.207C239.657 147.602 239.582 147.002 239.513 146.399C240.611 145.706 241.684 144.98 242.739 144.222Z" fill="white"/>
<path d="M223.28 157.37C224.999 156.243 226.692 155.068 228.424 153.959C228.561 154.46 228.855 154.885 229.23 155.242C227.883 156.133 226.528 157.017 225.195 157.93C224.322 158.514 223.674 159.601 223.923 160.672C225.454 165.725 227.428 170.644 228.885 175.721C228.204 174.406 227.696 172.995 226.866 171.763C226.472 171.204 225.69 170.96 225.492 170.264C225.125 169.067 224.635 167.913 224.274 166.716C224.573 166.269 224.892 165.816 224.857 165.248C224.45 165.013 224.027 164.809 223.588 164.646C223.077 163.181 222.603 161.703 222.102 160.236C221.716 159.154 222.343 157.943 223.28 157.37Z" fill="white"/>
<path d="M89.0579 161.301C97.0188 158.08 105.521 156.248 114.089 155.774C114.068 157.397 114.087 159.023 114.076 160.645C114.009 162.075 115.037 163.457 116.454 163.741C118.219 164.236 120.104 162.704 120.216 160.926C120.286 159.159 120.211 157.386 120.254 155.619C121.507 155.836 122.781 155.807 124.045 155.911C133.334 156.583 142.498 158.95 150.951 162.857C152.175 163.366 153.302 164.078 154.561 164.509C153.709 166.266 152.561 167.856 151.629 169.565C150.858 170.955 151.34 172.904 152.759 173.678C154.063 174.404 155.961 174.117 156.8 172.81C157.879 171.105 158.84 169.324 159.954 167.637C160.886 168.483 162.013 169.064 163.031 169.8C169.945 174.639 176.058 180.611 181.097 187.377C182.701 189.444 184.013 191.718 185.508 193.855C184.169 194.521 182.883 195.29 181.534 195.933C180.476 196.54 179.148 196.945 178.556 198.107C177.59 199.74 178.634 202.188 180.53 202.517C182.667 202.897 184.311 201.165 186.164 200.439C183.009 210.754 179.759 221.047 176.942 231.464C176.556 232.931 176.119 234.447 176.414 235.978C177.241 241.545 178.588 247.019 179.812 252.511C181.18 257.976 182.155 263.53 183.143 269.073C181.63 268.103 179.954 266.606 178.029 267.386C175.849 268.178 175.565 271.445 177.437 272.722C179.539 274.018 181.689 275.231 183.791 276.525C182.618 278.166 181.507 279.856 180.259 281.444C174.537 288.912 167.449 295.323 159.461 300.292C158.556 300.876 157.568 301.339 156.73 302.025C155.868 300.536 155.131 298.978 154.309 297.465C153.68 296.348 153.254 294.905 151.964 294.38C150.244 293.507 147.821 294.715 147.687 296.688C147.446 298.268 148.544 299.556 149.192 300.89C149.824 302.231 150.625 303.49 151.219 304.855C149.821 305.268 148.547 305.996 147.178 306.489C138.62 309.938 129.433 311.726 120.227 312.053C120.254 309.863 120.243 307.675 120.235 305.487C120.224 304.17 119.389 302.842 118.082 302.483C116.272 301.787 114.095 303.286 114.084 305.225C114.076 307.474 114.073 309.726 114.089 311.975C104.921 311.41 95.8165 309.394 87.3762 305.739C84.6583 304.655 82.1413 303.144 79.4769 301.955C80.4596 300.134 81.5977 298.402 82.6366 296.613C83.2552 295.526 83.1508 294.061 82.2858 293.135C81.1183 291.675 78.5745 291.737 77.5141 293.293C76.352 295.041 75.3987 296.927 74.2098 298.659C72.6433 297.301 70.8492 296.23 69.2693 294.883C61.8653 288.947 55.5432 281.661 50.734 273.478C50.4207 272.921 50.0886 272.372 49.6789 271.882C51.066 270.982 52.595 270.331 54.0383 269.528C55.2031 269.067 56.0252 267.932 56.0948 266.679C56.143 264.705 54.1481 263.104 52.2281 263.642C50.3751 264.392 48.6989 265.506 46.87 266.306C46.4228 264.81 45.6971 263.415 45.1669 261.947C42.0313 253.724 40.1488 244.962 40.0497 236.147C41.6135 236.15 43.18 236.163 44.7438 236.15C46.4228 236.203 47.9545 234.637 47.8152 232.952C47.8313 231.338 46.3237 230.002 44.7492 229.999C43.1774 229.975 41.6028 229.999 40.0283 229.996C40.5612 219.955 42.9631 210.004 47.2315 200.892C47.9652 199.325 48.8408 197.828 49.5022 196.23C51.0472 196.972 52.4209 198.024 53.958 198.782C55.6182 199.457 57.6184 198.377 58.0362 196.664C58.312 195.555 57.9344 194.297 57.0079 193.603C55.661 192.548 54.0597 191.879 52.6566 190.904C53.1225 190.427 53.5402 189.905 53.8937 189.34C59.7017 180.924 67.2021 173.686 75.7977 168.148C76.7456 167.527 77.7631 167.008 78.6441 166.29C79.6402 167.773 80.1918 169.509 81.2335 170.965C82.3903 172.459 84.9154 172.385 86.0267 170.882C86.6827 169.996 86.8701 168.759 86.3748 167.757C85.708 166.319 84.8913 164.956 84.187 163.537C85.716 162.603 87.4137 162 89.0579 161.301ZM115.798 180.295C114.215 182.496 112.713 184.753 111.144 186.962C110.796 187.396 110.697 187.966 110.721 188.51C111.709 201.615 112.772 214.714 113.747 227.819C112.127 229.014 111.08 230.848 110.742 232.821C110.729 233.52 110.729 234.219 110.74 234.918C111.104 237.082 112.362 239.109 114.261 240.241C116.052 241.296 118.302 241.717 120.299 241.018C120.58 240.879 120.837 240.921 121.068 241.144C133.948 253.212 146.779 265.334 159.681 277.384C160.045 277.789 160.591 277.909 161.097 278.054C163.826 278.188 166.544 278.576 169.27 278.739C170.231 278.785 170.884 277.901 170.992 277.026C170.255 274.34 169.548 271.643 168.815 268.957C168.544 267.696 167.259 267.104 166.346 266.347C152.708 256.061 139.043 245.811 125.44 235.478C126.375 231.903 124.139 227.929 120.639 226.791C120.744 224.196 121.044 221.612 121.194 219.02C122.018 208.764 122.776 198.501 123.593 188.245C123.563 187.385 122.929 186.745 122.5 186.057C121.148 184.156 119.855 182.215 118.489 180.324C117.889 179.403 116.424 179.427 115.798 180.295Z" fill="white"/>
<path d="M206.228 159.336C206.937 159.534 207.636 159.78 208.367 159.893C207.682 160.407 207.208 161.13 207.379 162.022C207.625 162.332 207.853 162.678 208.22 162.865C207.874 163.735 207.907 164.681 207.963 165.599C206.881 165.305 205.743 165.297 204.661 165.005C205.218 163.128 205.987 161.288 206.228 159.336Z" fill="white"/>
<path d="M209.205 160.147C210.483 159.756 212.135 159.909 213.018 161.012C213.38 161.411 212.976 161.866 212.842 162.268C211.87 162.953 210.617 163.245 209.457 162.927C208.739 162.734 207.789 162.316 207.786 161.443C207.907 160.763 208.555 160.286 209.205 160.147Z" fill="white"/>
<path d="M211.308 163.417C212.298 163.254 213.161 162.667 213.643 161.781C215.547 162.413 217.132 163.711 218.693 164.932C219.544 165.562 219.901 166.601 220.557 167.393C222.549 168.871 224.592 170.304 226.429 171.978C227.586 173.782 228.343 175.807 229.246 177.745C228.823 177.756 228.368 177.831 227.998 177.582C226.67 176.8 226.228 175.244 225.5 173.989C225.02 173.081 223.906 172.926 223.157 172.334C222.715 171.571 222.72 170.566 222.075 169.929C222.064 170.09 222.043 170.411 222.032 170.572C222.53 172.157 223.218 173.681 223.649 175.29C223.949 176.814 224.324 178.329 224.434 179.885C223.4 179.676 222.568 178.742 222.321 177.735C222.201 176.717 222.051 175.702 221.823 174.706C221.397 173.311 220.744 172.002 220.2 170.652C220.104 170.692 219.914 170.773 219.82 170.813C220.401 172.433 221.293 173.956 221.566 175.678C221.762 176.878 221.997 178.08 222.008 179.301C220.358 179.216 220.144 177.395 219.809 176.147C219.443 173.978 218.187 172.114 217.145 170.226L216.899 170.184L216.805 170.371C217.126 172.84 217.785 175.293 217.549 177.802C217.434 178.265 217.566 178.857 217.167 179.205C216.738 178.774 216.245 178.343 216.149 177.708C215.825 176.08 215.841 174.355 215.107 172.829C214.309 171.533 213.115 170.55 212.194 169.353C211.602 168.328 211.112 167.249 210.585 166.191C210.491 165.227 210.949 164.292 211.308 163.417Z" fill="white"/>
<path d="M208.319 165.559C208.368 164.79 208.255 163.947 208.6 163.24C209.289 163.25 210.006 163.615 210.745 163.441C210.502 164.252 210.231 165.055 210.057 165.885C209.476 165.77 208.895 165.679 208.319 165.559Z" fill="white"/>
<path d="M217.684 163.639C217.986 163.663 218.289 163.698 218.581 163.799C220.525 164.405 222.53 164.787 224.453 165.452C224.327 165.727 224.204 166.006 224.083 166.284C223.095 167.152 221.791 166.536 220.645 166.48C220.056 166.1 219.869 165.344 219.346 164.892C218.822 164.437 218.249 164.04 217.684 163.639Z" fill="white"/>
<path d="M196.149 166.316C198.62 166.809 201.041 167.904 203.604 167.712C203.681 167.543 203.834 167.2 203.912 167.029C204.439 167.602 204.667 168.36 204.991 169.053C205.617 170.349 206.233 171.65 206.814 172.968C208.29 171.584 209.848 170.279 211.425 169.008C212.483 170.761 214.451 171.908 215.048 173.929C214.149 173.803 213.238 173.576 212.328 173.71C211.101 173.833 209.864 173.667 208.648 173.884C205.773 173.905 202.897 173.897 200.023 173.889C198.227 173.683 196.32 173.801 194.657 172.973C194.855 170.703 195.664 168.536 196.149 166.316Z" fill="white"/>
<path d="M220.709 166.884C221.649 167.056 222.616 167.305 223.577 167.133C223.641 167.792 223.732 168.448 223.759 169.112C222.717 168.405 221.681 167.685 220.709 166.884Z" fill="white"/>
<path d="M217.544 171.892C218.061 172.813 218.527 173.763 218.969 174.722C218.719 174.674 218.219 174.572 217.967 174.524C217.71 173.672 217.632 172.773 217.544 171.892Z" fill="white"/>
<path d="M223.376 172.958C223.596 173.07 224.04 173.3 224.26 173.415C224.217 174.361 224.56 175.309 224.268 176.238C224.12 175.11 223.78 174.015 223.376 172.958Z" fill="white"/>
<path d="M195.003 173.605C196.722 174.122 198.524 174.165 200.299 174.299C202.98 174.288 205.663 174.31 208.346 174.288C209.856 174.058 211.385 174.264 212.896 174.05C213.64 174.12 214.379 174.216 215.124 174.302C215.689 175.766 215.223 177.502 216.181 178.816C216.508 179.304 217.001 179.719 217.633 179.657C218.01 178.136 218.246 176.511 217.954 174.958C218.31 175.003 218.666 175.051 219.025 175.105C219.443 176.436 219.609 177.895 220.407 179.071C220.883 179.596 222.34 180.161 222.444 179.108C223.028 179.799 223.834 180.388 224.782 180.345C225.015 181.805 224.937 183.286 224.932 184.756C224.667 187.535 223.51 190.135 222.209 192.572C222.38 192.816 222.471 193.158 222.758 193.303C223.398 193.432 223.965 193.062 224.541 192.853C226.898 191.919 229.262 191.008 231.618 190.076C232.304 191.102 232.261 192.655 233.426 193.389C234.052 193.93 234.891 193.774 235.635 193.927C236.243 194.168 236.861 194.505 237.542 194.371C238.358 194.189 239.065 193.707 239.807 193.338C239.78 194.495 239.992 195.638 239.949 196.797C240.185 198.115 239.954 199.456 240.163 200.777C240.294 202.306 240.077 203.851 240.316 205.377C240.372 207.511 240.321 209.648 240.334 211.785C240.605 214.979 240.415 218.195 240.471 221.401C240.474 224.442 240.463 227.484 240.476 230.526C240.201 233.732 240.399 236.961 240.334 240.18C240.176 242.33 241.114 244.338 241.462 246.427C242.345 250.087 242.557 253.858 242.777 257.604C243.604 268.392 244.581 279.178 245.43 289.97C240.559 291.383 235.67 292.73 230.81 294.171C228.986 281.695 227.125 269.225 225.253 256.755C224.787 253.271 224.011 249.83 223.757 246.322C223.154 241.717 221.713 237.272 220.101 232.934C218.254 226.756 216.725 220.493 215.113 214.251C212.759 205.181 210.82 196.013 208.705 186.887C208.625 186.689 208.526 186.502 208.41 186.325C208.169 186.764 208.394 187.23 208.475 187.677C209.04 190.02 209.519 192.382 210.092 194.722C210.29 195.681 210.242 196.672 210.103 197.636C210.02 201.111 209.741 204.574 209.65 208.047C209.5 208.767 209.642 209.53 209.449 210.234C204.841 218.822 199.515 226.997 194.154 235.129C193.677 235.673 193.913 236.431 194.039 237.063C194.483 238.835 194.941 240.603 195.305 242.394C197.019 247.289 197.994 252.412 198.661 257.547C199.258 262.807 199.914 268.058 200.591 273.309C195.533 275.901 190.488 278.522 185.443 281.136C185.018 277.36 184.262 273.627 183.679 269.873C182.851 265.117 182.045 260.356 180.969 255.649C179.716 250.331 178.492 245.008 177.437 239.647C177.113 237.43 176.342 235.135 177.014 232.912C178.296 227.688 179.911 222.552 181.416 217.389C185.837 202.761 190.395 188.175 195.003 173.605ZM189.192 234.789C189.112 235.143 189.254 235.585 189.639 235.697C189.326 234.09 190.341 232.639 191.444 231.595C191.76 231.281 192.344 231.075 192.213 230.534C190.705 231.45 189.404 232.987 189.192 234.789ZM238.257 237.293C237.721 239.245 237.576 241.342 238.206 243.291C238.305 243.323 238.508 243.385 238.607 243.417C238.522 242.507 238.139 241.636 238.184 240.713C238.128 239.601 238.407 238.517 238.634 237.44C238.54 237.403 238.35 237.328 238.257 237.293Z" fill="white"/>
<path d="M224.937 176.27C224.736 175.884 224.766 175.448 224.814 175.033C226.003 180.329 227.018 185.663 228.142 190.973C226.919 191.557 225.615 191.945 224.375 192.494C223.81 192.692 223.183 193.118 222.597 192.762C223.818 190.379 224.926 187.878 225.293 185.203C225.537 182.22 225.052 179.245 224.937 176.27Z" fill="white"/>
<path d="M239.435 177.718C240.222 177.552 240.865 177.046 241.451 176.521C242.445 178.104 243.569 179.604 244.662 181.119C243.749 182.38 242.953 183.73 242.035 184.983C240.115 186.595 238.056 188.089 235.836 189.257C233.964 189.061 232.127 188.622 230.29 188.237C229.653 188.215 229.292 187.664 228.871 187.278C229.182 186.975 229.591 186.833 230.012 186.748C229.68 186.343 228.775 185.99 229.206 185.374C230.17 185.149 228.986 184.295 229.225 183.701C231.126 183.596 232.987 184.132 234.867 184.33C235.191 184.37 235.458 184.15 235.726 184.003C236.803 183.32 237.852 182.597 238.915 181.893C238.267 181.414 237.448 181.269 236.717 180.964C235.322 181.387 233.723 182.142 232.355 181.24C233.364 180.169 234.976 180 236.256 179.373C237.263 178.728 238.254 178.013 239.435 177.718Z" fill="white"/>
<path d="M228.15 178.171C228.691 178.182 229.243 178.206 229.77 178.05C230.301 179.863 231.037 181.609 231.546 183.427C230.991 183.304 230.285 183.433 229.824 183.111C229.283 181.459 228.697 179.82 228.15 178.171Z" fill="white"/>
<path d="M231.787 188.997C232.379 189.069 232.965 189.19 233.552 189.318C233.983 190.727 234.534 192.095 235 193.493C234.023 193.488 233.118 192.853 232.783 191.94C232.505 190.938 232.082 189.988 231.787 188.997Z" fill="white"/>
<path d="M265.677 226.738C268.507 225.739 271.79 226.909 273.681 229.156C275.32 231.172 276.144 233.836 275.93 236.426C275.325 240.314 273.52 244.036 273.817 248.042C274.034 248.979 274.251 249.978 274.926 250.711C275.601 251.582 276.693 251.965 277.406 252.797C278.637 254.045 279.084 255.802 279.411 257.47C279.601 258.876 279.599 260.29 279.411 261.698C279.162 262.941 278.878 264.202 278.171 265.281C277.823 266.084 276.921 266.355 276.375 266.984C275.63 267.651 275.092 268.5 274.645 269.386L274.629 269.453C274.581 269.654 274.54 269.86 274.511 270.069C273.815 271.962 274.206 274.222 275.66 275.663C276.873 276.471 277.58 277.864 277.818 279.275C277.906 280.124 277.657 280.959 277.673 281.808C276.34 281.792 275.006 281.838 273.675 281.792C270.331 278.729 268.73 273.668 270.157 269.282C270.526 267.694 271.52 266.347 271.911 264.767C272.441 262.941 272.304 260.898 271.418 259.205C269.994 256.056 267.053 253.976 265.316 251.035C264.539 249.699 264.443 247.977 265.168 246.604C266.344 244.258 267.704 241.797 267.525 239.087C267.559 237.25 266.446 235.671 265.412 234.251C264.37 233.076 263.602 231.595 263.489 230.01C263.401 228.593 264.314 227.177 265.677 226.738Z" fill="white"/>
<path d="M116.192 227.074C118.567 226.317 121.288 227.045 123.087 228.737C124.49 230.076 125.256 231.977 125.272 233.911C125.227 235.686 124.536 237.411 123.36 238.739C121.93 240.217 119.866 241.034 117.815 240.961C115.252 240.782 112.778 239.197 111.731 236.819C111.118 235.55 111.024 234.101 111.187 232.719C111.6 230.09 113.605 227.76 116.192 227.074Z" fill="white"/>
<path d="M290.912 228.221C291.825 227.664 292.963 227.442 294.007 227.712C296.195 228.157 298.259 229.407 299.48 231.303C301.564 234.452 301.574 238.704 299.866 242.019C297.753 245.894 294.259 249.046 293.115 253.426C292.633 255.151 293.193 256.999 294.307 258.356C295.734 260.172 295.654 262.649 295.346 264.815C294.73 267.806 293.429 270.805 291.11 272.872C290.138 273.807 288.692 273.785 287.57 274.452C285.002 275.836 283.079 278.83 283.724 281.808C281.837 281.808 279.952 281.811 278.066 281.805C278.099 278.313 279.694 274.956 282.126 272.489C282.755 271.844 283.422 271.236 284.027 270.567C285.762 268.574 286.563 265.8 286.089 263.195C285.569 259.952 284.048 256.993 283.114 253.866L283.138 253.78C283.001 252.813 282.785 251.825 283.058 250.861C283.285 249.637 284.158 248.711 285.023 247.881C285.095 247.803 285.17 247.731 285.253 247.661C286.633 246.563 287.819 245.233 288.844 243.803C289.902 242.381 290.521 240.605 290.419 238.825C290.438 236.431 288.978 234.281 289.195 231.871C289.174 230.486 289.752 229.029 290.912 228.221Z" fill="white"/>
<path d="M125.378 235.957C139.434 246.58 153.505 257.184 167.58 267.779C167.928 268.071 168.257 268.427 168.383 268.88C169.093 271.563 169.834 274.238 170.536 276.924C170.643 277.765 169.791 278.469 168.975 278.338C166.316 278.113 163.659 277.826 161 277.609C160.01 277.537 159.536 276.56 158.794 276.046C148.444 266.317 138.084 256.6 127.74 246.866C125.579 244.815 123.362 242.82 121.252 240.713C123.215 239.786 124.762 238.048 125.378 235.957Z" fill="white"/>
<path d="M194.256 236.15C195.003 236.15 195.75 236.147 196.497 236.168C196.141 238.343 196.315 240.579 195.849 242.739C195.298 240.552 194.743 238.356 194.256 236.15Z" fill="white"/>
<path d="M194.02 281.84C196.671 281.042 199.268 280.046 201.986 279.481C202.326 281.366 202.249 283.283 202.444 285.182C199.806 286.789 197.137 288.393 194.306 289.64C191.564 290.441 188.721 290.877 185.89 291.215C185.408 288.829 184.913 286.408 184.899 283.969C187.907 283.128 190.986 282.574 194.02 281.84Z" fill="white"/>
<path d="M259.299 284.472C260.19 283.051 261.842 282.218 263.5 282.207C271.354 282.215 279.205 282.204 287.059 282.212C288.352 282.212 289.592 282.788 290.548 283.64C291.327 284.518 291.935 285.581 292.01 286.781C292.039 288.111 292.005 289.445 292.018 290.779C280.817 290.779 269.613 290.779 258.412 290.779C258.519 288.676 258 286.312 259.299 284.472Z" fill="white"/>
<path d="M195.247 289.686C195.865 289.394 196.473 289.075 197.086 288.77C197.113 290.628 197.258 292.516 197.793 294.305C196.677 296.094 196.339 298.222 195.418 300.108C194.154 300.26 192.834 299.934 191.621 300.413C191.163 297.277 190.529 294.171 189.899 291.068C191.685 290.626 193.571 290.494 195.247 289.686Z" fill="white"/>
<path d="M240.096 297.384C242.696 297.24 245.299 296.843 247.902 296.985C247.91 298.225 247.623 299.465 247.479 300.702C247.251 301.993 247.203 303.324 246.823 304.587C244.346 304.775 241.871 304.93 239.394 305.107C236.524 305.061 233.645 305.225 230.786 304.952C230.298 302.638 229.996 300.266 230.028 297.898C233.372 297.51 236.744 297.596 240.096 297.384Z" fill="white"/>
<path d="M258.412 298.421C269.613 298.405 280.817 298.41 292.018 298.421C292.018 300.959 292.018 303.5 292.018 306.042C280.817 306.044 269.613 306.036 258.412 306.047C258.41 303.503 258.412 300.962 258.412 298.421Z" fill="white"/>
<path d="M235.279 305.5C238.131 305.567 240.978 305.458 243.819 305.219C243.819 306.146 243.816 307.078 243.821 308.007C242.175 308.601 240.712 309.611 239.066 310.205C237.756 309.696 237.186 307.605 235.52 307.977C235.512 307.225 235.346 306.486 235.295 305.741C235.293 305.704 235.287 305.626 235.285 305.589L235.279 305.5Z" fill="white"/>
<path d="M258.412 313.684C269.613 313.67 280.817 313.67 292.018 313.686C291.895 315.518 292.404 317.523 291.402 319.192C290.644 320.533 289.204 321.719 287.584 321.578C279.103 321.553 270.62 321.596 262.14 321.559C260.629 321.243 259.395 320.062 258.825 318.653C258.19 317.068 258.471 315.341 258.412 313.684Z" fill="white"/>
</g>
<defs>
<clipPath id="clip0_10684_1251">
<rect width="290" height="257.064" fill="white" transform="translate(30 65.312)"/>
</clipPath>
</defs>
</svg>
