<svg width="20" height="23" viewBox="0 0 20 23" fill="none" xmlns="http://www.w3.org/2000/svg">
<path opacity="0.2" d="M17.5 12.8438C17.5 14.3271 17.0601 15.7772 16.236 17.0105C15.4119 18.2439 14.2406 19.2052 12.8701 19.7728C11.4997 20.3405 9.99168 20.489 8.53683 20.1996C7.08197 19.9102 5.7456 19.1959 4.6967 18.1471C3.64781 17.0982 2.9335 15.7618 2.64411 14.3069C2.35472 12.8521 2.50325 11.3441 3.07091 9.97362C3.63856 8.60318 4.59986 7.43184 5.83323 6.60773C7.0666 5.78362 8.51664 5.34375 10 5.34375C11.9891 5.34375 13.8968 6.13393 15.3033 7.54045C16.7098 8.94697 17.5 10.8546 17.5 12.8438Z" fill="#00AEEF"/>
<path d="M13.5672 10.5266C13.6253 10.5846 13.6714 10.6535 13.7029 10.7294C13.7343 10.8053 13.7505 10.8866 13.7505 10.9688C13.7505 11.0509 13.7343 11.1322 13.7029 11.2081C13.6714 11.284 13.6253 11.3529 13.5672 11.4109L9.19219 15.7859C9.13415 15.844 9.06522 15.8901 8.98934 15.9216C8.91347 15.9531 8.83214 15.9692 8.75 15.9692C8.66787 15.9692 8.58654 15.9531 8.51067 15.9216C8.43479 15.8901 8.36586 15.844 8.30782 15.7859L6.43282 13.9109C6.31554 13.7937 6.24966 13.6346 6.24966 13.4688C6.24966 13.3029 6.31554 13.1438 6.43282 13.0266C6.55009 12.9093 6.70915 12.8434 6.875 12.8434C7.04086 12.8434 7.19992 12.9093 7.31719 13.0266L8.75 14.4602L12.6828 10.5266C12.7409 10.4685 12.8098 10.4224 12.8857 10.3909C12.9615 10.3594 13.0429 10.3433 13.125 10.3433C13.2071 10.3433 13.2885 10.3594 13.3643 10.3909C13.4402 10.4224 13.5091 10.4685 13.5672 10.5266ZM18.125 12.8438C18.125 14.4507 17.6485 16.0216 16.7557 17.3578C15.8629 18.6939 14.594 19.7353 13.1093 20.3503C11.6247 20.9652 9.99099 21.1261 8.4149 20.8126C6.8388 20.4991 5.39106 19.7253 4.25476 18.589C3.11846 17.4527 2.34463 16.005 2.03112 14.4289C1.71762 12.8528 1.87852 11.2191 2.49348 9.73445C3.10844 8.2498 4.14985 6.98085 5.486 6.08806C6.82214 5.19527 8.39303 4.71875 10 4.71875C12.1542 4.72102 14.2195 5.57778 15.7427 7.10102C17.266 8.62426 18.1227 10.6896 18.125 12.8438ZM16.875 12.8438C16.875 11.484 16.4718 10.1548 15.7164 9.0242C14.9609 7.89362 13.8872 7.01243 12.631 6.49208C11.3747 5.97173 9.99238 5.83558 8.65876 6.10085C7.32514 6.36612 6.10013 7.02091 5.13864 7.98239C4.17716 8.94388 3.52238 10.1689 3.2571 11.5025C2.99183 12.8361 3.12798 14.2185 3.64833 15.4747C4.16868 16.7309 5.04987 17.8047 6.18046 18.5601C7.31105 19.3155 8.64026 19.7188 10 19.7188C11.8227 19.7167 13.5702 18.9917 14.8591 17.7028C16.1479 16.414 16.8729 14.6665 16.875 12.8438Z" fill="#00AEEF"/>
</svg>
