<svg width="18" height="19" viewBox="0 0 18 19" fill="none" xmlns="http://www.w3.org/2000/svg">
<path opacity="0.2" d="M14.344 12.6562C14.6357 12.6565 14.9239 12.5919 15.1877 12.4671V15.4687C15.1877 15.6179 15.1284 15.761 15.023 15.8665C14.9175 15.972 14.7744 16.0312 14.6252 16.0312H4.5002C4.35102 16.0312 4.20795 15.972 4.10246 15.8665C3.99697 15.761 3.9377 15.6179 3.9377 15.4687V12.4671C3.63763 12.6091 3.30653 12.6729 2.97519 12.6525C2.64384 12.6322 2.32302 12.5284 2.04254 12.3509C1.76207 12.1733 1.53105 11.9277 1.37097 11.6368C1.2109 11.346 1.12695 11.0194 1.12695 10.6875C1.12695 10.3555 1.2109 10.0289 1.37097 9.73811C1.53105 9.44729 1.76207 9.20167 2.04254 9.02409C2.32302 8.84651 2.64384 8.74273 2.97519 8.72241C3.30653 8.70209 3.63763 8.76589 3.9377 8.90786V5.90622C3.9377 5.75704 3.99697 5.61396 4.10246 5.50847C4.20795 5.40298 4.35102 5.34372 4.5002 5.34372H7.7831C7.64096 5.04364 7.57704 4.71249 7.59726 4.38108C7.61748 4.04966 7.72119 3.72874 7.89875 3.44817C8.07631 3.16759 8.32195 2.93649 8.61281 2.77635C8.90368 2.6162 9.23032 2.53223 9.56235 2.53223C9.89439 2.53223 10.221 2.6162 10.5119 2.77635C10.8028 2.93649 11.0484 3.16759 11.226 3.44817C11.4035 3.72874 11.5072 4.04966 11.5274 4.38108C11.5477 4.71249 11.4837 5.04364 11.3416 5.34372H14.6252C14.7744 5.34372 14.9175 5.40298 15.023 5.50847C15.1284 5.61396 15.1877 5.75704 15.1877 5.90622V8.90786C14.9209 8.78164 14.6292 8.71701 14.3341 8.71876C14.039 8.7205 13.748 8.78857 13.4828 8.91792C13.2175 9.04728 12.9847 9.23462 12.8016 9.46608C12.6185 9.69755 12.4898 9.96721 12.425 10.2551C12.3602 10.543 12.361 10.8419 12.4272 11.1294C12.4935 11.417 12.6235 11.686 12.8078 11.9166C12.992 12.1471 13.2257 12.3333 13.4916 12.4613C13.7575 12.5894 14.0488 12.656 14.344 12.6562Z" fill="#00AEEF"/>
<path d="M15.4878 11.9912C15.4076 11.9406 15.3159 11.9111 15.2212 11.9054C15.1266 11.8998 15.032 11.9182 14.9464 11.9588C14.732 12.0602 14.4956 12.1057 14.2589 12.0912C14.0223 12.0766 13.7931 12.0025 13.5928 11.8757C13.3925 11.7488 13.2275 11.5734 13.1132 11.3657C12.9989 11.1579 12.9389 10.9247 12.9389 10.6876C12.9389 10.4505 12.9989 10.2172 13.1132 10.0095C13.2275 9.80181 13.3925 9.62637 13.5928 9.49953C13.7931 9.37268 14.0223 9.29853 14.2589 9.28399C14.4956 9.26945 14.732 9.31497 14.9464 9.41634C15.0321 9.45704 15.1268 9.47537 15.2215 9.46964C15.3163 9.4639 15.408 9.43429 15.4883 9.38355C15.5685 9.3328 15.6345 9.26259 15.6803 9.17944C15.7261 9.09628 15.7501 9.0029 15.7501 8.90798V5.90634C15.7501 5.60797 15.6315 5.32182 15.4205 5.11085C15.2096 4.89987 14.9234 4.78134 14.6251 4.78134H12.0783C12.0888 4.68796 12.094 4.59406 12.0938 4.50009C12.0932 4.15429 12.0221 3.81224 11.8847 3.49488C11.7474 3.17752 11.5467 2.89152 11.2951 2.65439C10.9464 2.327 10.5122 2.10506 10.0427 2.01428C9.57314 1.9235 9.08748 1.9676 8.64197 2.14147C8.19645 2.31533 7.80931 2.61185 7.52537 2.99668C7.24144 3.3815 7.07233 3.83889 7.03763 4.31587C7.02683 4.47101 7.03012 4.6268 7.04747 4.78134H4.50005C4.20168 4.78134 3.91554 4.89987 3.70456 5.11085C3.49358 5.32182 3.37505 5.60797 3.37505 5.90634V8.17181C3.28167 8.16134 3.18777 8.15618 3.0938 8.15634C2.7481 8.1569 2.40615 8.22803 2.0889 8.36538C1.77165 8.50272 1.48578 8.70339 1.2488 8.95509C1.01013 9.20721 0.826343 9.5061 0.70907 9.83287C0.591797 10.1596 0.543582 10.5072 0.567475 10.8535C0.607784 11.4634 0.866919 12.0382 1.29723 12.4723C1.72754 12.9063 2.30008 13.1704 2.90958 13.216C3.06472 13.2268 3.22051 13.2235 3.37505 13.2062V15.4688C3.37505 15.7672 3.49358 16.0534 3.70456 16.2643C3.91554 16.4753 4.20168 16.5938 4.50005 16.5938H14.6251C14.9234 16.5938 15.2096 16.4753 15.4205 16.2643C15.6315 16.0534 15.7501 15.7672 15.7501 15.4688V12.4672C15.7501 12.3722 15.7261 12.2787 15.6802 12.1954C15.6344 12.1122 15.5682 12.0419 15.4878 11.9912ZM14.6251 15.4688H4.50005V12.4672C4.50008 12.3723 4.47609 12.2789 4.43032 12.1957C4.38454 12.1126 4.31847 12.0424 4.23825 11.9916C4.15803 11.9409 4.06628 11.9113 3.97154 11.9055C3.87679 11.8998 3.78213 11.9181 3.69638 11.9588C3.48204 12.0602 3.24556 12.1057 3.0089 12.0912C2.77225 12.0766 2.54312 12.0025 2.34281 11.8757C2.1425 11.7488 1.97751 11.5734 1.86319 11.3657C1.74886 11.1579 1.68891 10.9247 1.68891 10.6876C1.68891 10.4505 1.74886 10.2172 1.86319 10.0095C1.97751 9.80181 2.1425 9.62637 2.34281 9.49953C2.54312 9.37268 2.77225 9.29853 3.0089 9.28399C3.24556 9.26945 3.48204 9.31497 3.69638 9.41634C3.78213 9.45704 3.87679 9.47537 3.97154 9.46964C4.06628 9.4639 4.15803 9.43429 4.23825 9.38355C4.31847 9.3328 4.38454 9.26259 4.43032 9.17944C4.47609 9.09628 4.50008 9.0029 4.50005 8.90798V5.90634H7.78294C7.87786 5.90637 7.97125 5.88238 8.0544 5.83661C8.13755 5.79083 8.20777 5.72476 8.25851 5.64454C8.30925 5.56432 8.33887 5.47257 8.3446 5.37782C8.35033 5.28308 8.332 5.18842 8.2913 5.10267C8.18994 4.88833 8.14441 4.65184 8.15895 4.41519C8.17349 4.17854 8.24764 3.94941 8.37449 3.7491C8.50134 3.54878 8.67677 3.3838 8.88449 3.26947C9.09221 3.15515 9.32545 3.0952 9.56255 3.0952C9.79965 3.0952 10.0329 3.15515 10.2406 3.26947C10.4483 3.3838 10.6238 3.54878 10.7506 3.7491C10.8775 3.94941 10.9516 4.17854 10.9662 4.41519C10.9807 4.65184 10.9352 4.88833 10.8338 5.10267C10.7931 5.18842 10.7748 5.28308 10.7805 5.37782C10.7862 5.47257 10.8159 5.56432 10.8666 5.64454C10.9173 5.72476 10.9876 5.79083 11.0707 5.83661C11.1539 5.88238 11.2472 5.90637 11.3422 5.90634H14.6251V8.17251C14.4705 8.15481 14.3147 8.15152 14.1596 8.16267C13.5049 8.20903 12.8938 8.50785 12.4553 8.99611C12.0167 9.48437 11.7849 10.1239 11.8088 10.7798C11.8327 11.4356 12.1104 12.0566 12.5834 12.5116C13.0563 12.9667 13.6875 13.2202 14.3438 13.2188C14.4378 13.219 14.5317 13.2138 14.6251 13.2034V15.4688Z" fill="#00AEEF"/>
</svg>
