<svg width="20" height="21" viewBox="0 0 20 21" fill="none" xmlns="http://www.w3.org/2000/svg">
<path opacity="0.2" d="M8.4375 6.46875V12.0938H3.125C2.95924 12.0938 2.80027 12.0279 2.68306 11.9107C2.56585 11.7935 2.5 11.6345 2.5 11.4688V6.46875C2.5 6.30299 2.56585 6.14402 2.68306 6.02681C2.80027 5.9096 2.95924 5.84375 3.125 5.84375H7.8125C7.97826 5.84375 8.13723 5.9096 8.25444 6.02681C8.37165 6.14402 8.4375 6.30299 8.4375 6.46875ZM16.875 5.84375H12.1875C12.0217 5.84375 11.8628 5.9096 11.7456 6.02681C11.6283 6.14402 11.5625 6.30299 11.5625 6.46875V11.4688C11.5625 11.6345 11.6283 11.7935 11.7456 11.9107C11.8628 12.0279 12.0217 12.0938 12.1875 12.0938H17.5V6.46875C17.5 6.30299 17.4342 6.14402 17.3169 6.02681C17.1997 5.9096 17.0408 5.84375 16.875 5.84375Z" fill="#00AEEF"/>
<path d="M7.8125 5.21875H3.125C2.79348 5.21875 2.47554 5.35045 2.24112 5.58487C2.0067 5.81929 1.875 6.13723 1.875 6.46875V11.4688C1.875 11.8003 2.0067 12.1182 2.24112 12.3526C2.47554 12.5871 2.79348 12.7188 3.125 12.7188H7.8125V13.3438C7.8125 14.0068 7.54911 14.6427 7.08027 15.1115C6.61143 15.5804 5.97554 15.8438 5.3125 15.8438C5.14674 15.8438 4.98777 15.9096 4.87056 16.0268C4.75335 16.144 4.6875 16.303 4.6875 16.4688C4.6875 16.6345 4.75335 16.7935 4.87056 16.9107C4.98777 17.0279 5.14674 17.0938 5.3125 17.0938C6.30674 17.0927 7.25997 16.6973 7.96301 15.9943C8.66605 15.2912 9.06147 14.338 9.0625 13.3438V6.46875C9.0625 6.13723 8.9308 5.81929 8.69638 5.58487C8.46196 5.35045 8.14402 5.21875 7.8125 5.21875ZM7.8125 11.4688H3.125V6.46875H7.8125V11.4688ZM16.875 5.21875H12.1875C11.856 5.21875 11.538 5.35045 11.3036 5.58487C11.0692 5.81929 10.9375 6.13723 10.9375 6.46875V11.4688C10.9375 11.8003 11.0692 12.1182 11.3036 12.3526C11.538 12.5871 11.856 12.7188 12.1875 12.7188H16.875V13.3438C16.875 14.0068 16.6116 14.6427 16.1428 15.1115C15.6739 15.5804 15.038 15.8438 14.375 15.8438C14.2092 15.8438 14.0503 15.9096 13.9331 16.0268C13.8158 16.144 13.75 16.303 13.75 16.4688C13.75 16.6345 13.8158 16.7935 13.9331 16.9107C14.0503 17.0279 14.2092 17.0938 14.375 17.0938C15.3692 17.0927 16.3225 16.6973 17.0255 15.9943C17.7285 15.2912 18.124 14.338 18.125 13.3438V6.46875C18.125 6.13723 17.9933 5.81929 17.7589 5.58487C17.5245 5.35045 17.2065 5.21875 16.875 5.21875ZM16.875 11.4688H12.1875V6.46875H16.875V11.4688Z" fill="#00AEEF"/>
</svg>
