<svg width="18" height="19" viewBox="0 0 18 19" fill="none" xmlns="http://www.w3.org/2000/svg">
<path opacity="0.2" d="M11.8125 10.9688C11.8125 11.525 11.6476 12.0688 11.3385 12.5313C11.0295 12.9938 10.5902 13.3543 10.0763 13.5672C9.56238 13.78 8.99688 13.8357 8.45131 13.7272C7.90574 13.6187 7.4046 13.3508 7.01126 12.9575C6.61793 12.5642 6.35006 12.063 6.24154 11.5174C6.13302 10.9719 6.18872 10.4064 6.40159 9.89245C6.61446 9.37854 6.97495 8.93928 7.43746 8.63024C7.89997 8.3212 8.44374 8.15625 9 8.15625C9.74592 8.15625 10.4613 8.45257 10.9887 8.98001C11.5162 9.50746 11.8125 10.2228 11.8125 10.9688ZM4.5 4.78125C4.05499 4.78125 3.61998 4.91321 3.24997 5.16044C2.87996 5.40768 2.59157 5.75908 2.42127 6.17021C2.25097 6.58135 2.20642 7.03375 2.29323 7.4702C2.38005 7.90666 2.59434 8.30757 2.90901 8.62224C3.22368 8.93691 3.62459 9.1512 4.06105 9.23802C4.4975 9.32483 4.94991 9.28028 5.36104 9.10998C5.77217 8.93968 6.12357 8.65129 6.37081 8.28128C6.61804 7.91127 6.75 7.47626 6.75 7.03125C6.75 6.43451 6.51295 5.86222 6.09099 5.44026C5.66903 5.0183 5.09674 4.78125 4.5 4.78125ZM13.5 4.78125C13.055 4.78125 12.62 4.91321 12.25 5.16044C11.88 5.40768 11.5916 5.75908 11.4213 6.17021C11.251 6.58135 11.2064 7.03375 11.2932 7.4702C11.3801 7.90666 11.5943 8.30757 11.909 8.62224C12.2237 8.93691 12.6246 9.1512 13.061 9.23802C13.4975 9.32483 13.9499 9.28028 14.361 9.10998C14.7722 8.93968 15.1236 8.65129 15.3708 8.28128C15.618 7.91127 15.75 7.47626 15.75 7.03125C15.75 6.43451 15.5129 5.86222 15.091 5.44026C14.669 5.0183 14.0967 4.78125 13.5 4.78125Z" fill="#00AEEF"/>
<path d="M17.2127 11.4186C17.1536 11.463 17.0864 11.4952 17.0148 11.5135C16.9433 11.5319 16.8688 11.5359 16.7957 11.5255C16.7225 11.515 16.6522 11.4903 16.5886 11.4526C16.5251 11.415 16.4695 11.3652 16.4252 11.3061C16.0862 10.8504 15.6449 10.4807 15.1368 10.2266C14.6288 9.97262 14.0682 9.84143 13.5002 9.84363C13.351 9.84363 13.208 9.78437 13.1025 9.67888C12.997 9.57339 12.9377 9.43032 12.9377 9.28113C12.9377 9.13195 12.997 8.98887 13.1025 8.88338C13.208 8.77789 13.351 8.71863 13.5002 8.71863C13.8158 8.7186 14.1251 8.63007 14.3929 8.46307C14.6607 8.29608 14.8764 8.05733 15.0153 7.77394C15.1542 7.49055 15.2109 7.17388 15.1789 6.85989C15.1468 6.54591 15.0274 6.2472 14.8341 5.99769C14.6408 5.74819 14.3814 5.55789 14.0854 5.44841C13.7894 5.33893 13.4686 5.31466 13.1595 5.37835C12.8504 5.44205 12.5653 5.59116 12.3367 5.80874C12.1081 6.02633 11.9451 6.30367 11.8662 6.60926C11.8477 6.68082 11.8153 6.74804 11.7709 6.80708C11.7264 6.86613 11.6708 6.91584 11.6071 6.95339C11.5435 6.99093 11.473 7.01556 11.3998 7.02589C11.3267 7.03621 11.2522 7.03202 11.1806 7.01355C11.109 6.99509 11.0418 6.9627 10.9828 6.91826C10.9237 6.87381 10.874 6.81817 10.8365 6.75451C10.7989 6.69085 10.7743 6.62042 10.764 6.54724C10.7536 6.47406 10.7578 6.39957 10.7763 6.32801C10.8858 5.90424 11.0927 5.51189 11.3806 5.18216C11.6684 4.85243 12.0292 4.59443 12.4343 4.42869C12.8394 4.26295 13.2776 4.19404 13.714 4.22744C14.1504 4.26085 14.573 4.39564 14.9481 4.62111C15.3233 4.84657 15.6406 5.15648 15.8749 5.52618C16.1092 5.89587 16.254 6.31514 16.2978 6.75064C16.3415 7.18613 16.283 7.62583 16.1269 8.03474C15.9708 8.44364 15.7215 8.81048 15.3987 9.10605C16.1635 9.43722 16.8284 9.96275 17.3273 10.6304C17.3716 10.6897 17.4038 10.7571 17.4221 10.8288C17.4403 10.9005 17.4442 10.9751 17.4336 11.0483C17.4229 11.1215 17.3979 11.1919 17.36 11.2555C17.3221 11.319 17.2721 11.3745 17.2127 11.4186ZM13.4243 15.7499C13.4635 15.8139 13.4896 15.8852 13.5009 15.9594C13.5122 16.0337 13.5085 16.1095 13.49 16.1823C13.4715 16.2551 13.4387 16.3234 13.3933 16.3834C13.348 16.4433 13.2912 16.4935 13.2261 16.531C13.1611 16.5686 13.0892 16.5928 13.0146 16.6021C12.9401 16.6114 12.8644 16.6057 12.7922 16.5854C12.7199 16.565 12.6524 16.5303 12.5937 16.4834C12.535 16.4366 12.4863 16.3784 12.4504 16.3124C12.0961 15.7125 11.5914 15.2155 10.9863 14.8701C10.3812 14.5248 9.69656 14.3432 8.99986 14.3432C8.30316 14.3432 7.6185 14.5248 7.01339 14.8701C6.40829 15.2155 5.90366 15.7125 5.54928 16.3124C5.51411 16.3796 5.46571 16.439 5.40699 16.487C5.34827 16.5351 5.28044 16.5707 5.20758 16.5919C5.13472 16.613 5.05834 16.6192 4.98303 16.61C4.90772 16.6009 4.83503 16.5766 4.76935 16.5386C4.70367 16.5007 4.64635 16.4498 4.60084 16.3891C4.55532 16.3284 4.52255 16.2592 4.50451 16.1855C4.48646 16.1118 4.4835 16.0352 4.49581 15.9604C4.50812 15.8855 4.53545 15.8139 4.57615 15.7499C5.12149 14.8129 5.95301 14.0755 6.9485 13.6461C6.38834 13.2173 5.97666 12.6236 5.77132 11.9487C5.56599 11.2737 5.57733 10.5514 5.80375 9.88322C6.03016 9.21505 6.46028 8.63463 7.03362 8.22354C7.60697 7.81246 8.29472 7.59138 9.00021 7.59138C9.70571 7.59138 10.3935 7.81246 10.9668 8.22354C11.5402 8.63463 11.9703 9.21505 12.1967 9.88322C12.4231 10.5514 12.4344 11.2737 12.2291 11.9487C12.0238 12.6236 11.6121 13.2173 11.0519 13.6461C12.0474 14.0755 12.8789 14.8129 13.4243 15.7499ZM9.00021 13.2186C9.44522 13.2186 9.88024 13.0867 10.2502 12.8394C10.6203 12.5922 10.9086 12.2408 11.0789 11.8297C11.2492 11.4185 11.2938 10.9661 11.207 10.5297C11.1202 10.0932 10.9059 9.69231 10.5912 9.37764C10.2765 9.06297 9.87562 8.84868 9.43917 8.76186C9.00271 8.67505 8.55031 8.71961 8.13918 8.8899C7.72804 9.0602 7.37664 9.34859 7.12941 9.7186C6.88217 10.0886 6.75021 10.5236 6.75021 10.9686C6.75021 11.5654 6.98727 12.1377 7.40922 12.5596C7.83118 12.9816 8.40348 13.2186 9.00021 13.2186ZM5.06271 9.28113C5.06271 9.13195 5.00345 8.98887 4.89796 8.88338C4.79247 8.77789 4.6494 8.71863 4.50021 8.71863C4.1846 8.7186 3.87532 8.63007 3.6075 8.46307C3.33969 8.29608 3.12407 8.05733 2.98514 7.77394C2.84621 7.49055 2.78955 7.17388 2.82157 6.85989C2.8536 6.54591 2.97304 6.2472 3.16632 5.99769C3.3596 5.74819 3.61899 5.55789 3.915 5.44841C4.21102 5.33893 4.53181 5.31466 4.84092 5.37835C5.15004 5.44205 5.4351 5.59116 5.66373 5.80874C5.89235 6.02633 6.05537 6.30367 6.13428 6.60926C6.17157 6.75378 6.26475 6.87757 6.39332 6.95339C6.52188 7.02921 6.6753 7.05085 6.81982 7.01355C6.96435 6.97626 7.08813 6.88308 7.16395 6.75451C7.23977 6.62595 7.26142 6.47253 7.22412 6.32801C7.1146 5.90424 6.9077 5.51189 6.61986 5.18216C6.33203 4.85243 5.97121 4.59443 5.56612 4.42869C5.16103 4.26295 4.72284 4.19404 4.28643 4.22744C3.85002 4.26085 3.42743 4.39564 3.05229 4.62111C2.67714 4.84657 2.35979 5.15648 2.12549 5.52618C1.8912 5.89587 1.74641 6.31514 1.70267 6.75064C1.65892 7.18613 1.71742 7.62583 1.87351 8.03474C2.0296 8.44364 2.27897 8.81048 2.60178 9.10605C1.83768 9.43754 1.17353 9.96304 0.675213 10.6304C0.58561 10.7498 0.547086 10.8998 0.568118 11.0476C0.58915 11.1953 0.668014 11.3287 0.787362 11.4183C0.906709 11.5079 1.05676 11.5464 1.20451 11.5254C1.35227 11.5043 1.48561 11.4255 1.57521 11.3061C1.91425 10.8504 2.35555 10.4807 2.86359 10.2266C3.37163 9.97262 3.93221 9.84143 4.50021 9.84363C4.6494 9.84363 4.79247 9.78437 4.89796 9.67888C5.00345 9.57339 5.06271 9.43032 5.06271 9.28113Z" fill="#00AEEF"/>
</svg>
