<svg width="18" height="19" viewBox="0 0 18 19" fill="none" xmlns="http://www.w3.org/2000/svg">
<path opacity="0.2" d="M14.625 10.9688C14.625 12.4606 14.0324 13.8913 12.9775 14.9462C11.9226 16.0011 10.4918 16.5938 9 16.5938C7.50816 16.5938 6.07742 16.0011 5.02252 14.9462C3.96763 13.8913 3.375 12.4606 3.375 10.9688C3.375 8.8193 4.38891 6.87234 5.55469 5.34375L7.875 7.59375L9.72211 2.53125C11.2402 3.79125 14.625 7.0418 14.625 10.9688Z" fill="#202D61"/>
<path d="M12.9298 11.6254C12.7839 12.4401 12.3919 13.1905 11.8066 13.7757C11.2213 14.3609 10.4708 14.7527 9.65602 14.8984C9.62509 14.9034 9.59382 14.9059 9.5625 14.9061C9.4214 14.9061 9.28547 14.853 9.18166 14.7575C9.07786 14.6619 9.01376 14.5308 9.00208 14.3902C8.9904 14.2496 9.03199 14.1097 9.1186 13.9983C9.20522 13.887 9.33053 13.8122 9.46969 13.7889C10.6348 13.5927 11.6234 12.6041 11.8209 11.4369C11.8459 11.2898 11.9283 11.1586 12.05 11.0722C12.1718 10.9859 12.3228 10.9514 12.4699 10.9764C12.6171 11.0014 12.7482 11.0838 12.8346 11.2055C12.921 11.3272 12.9555 11.4782 12.9305 11.6254H12.9298ZM15.1875 10.9686C15.1875 12.6097 14.5356 14.1835 13.3752 15.3439C12.2148 16.5042 10.641 17.1561 9 17.1561C7.35897 17.1561 5.78516 16.5042 4.62478 15.3439C3.4644 14.1835 2.8125 12.6097 2.8125 10.9686C2.8125 9.00551 3.58594 6.99809 5.10891 5.00262C5.15711 4.93944 5.21816 4.88718 5.28803 4.84931C5.3579 4.81143 5.43501 4.78879 5.51426 4.78288C5.59352 4.77696 5.67313 4.78791 5.74784 4.815C5.82256 4.84209 5.89068 4.88471 5.94773 4.94004L7.64367 6.58606L9.19055 2.33848C9.22145 2.25376 9.27227 2.17772 9.33872 2.11676C9.40517 2.05579 9.4853 2.0117 9.57236 1.9882C9.65942 1.96469 9.75086 1.96246 9.83896 1.98169C9.92706 2.00093 10.0093 2.04106 10.0786 2.09871C11.6163 3.37489 15.1875 6.78856 15.1875 10.9686ZM14.0625 10.9686C14.0625 7.72793 11.546 4.92739 9.96961 3.49231L8.40375 7.78629C8.37161 7.87448 8.31792 7.95323 8.24755 8.01536C8.17719 8.07749 8.0924 8.12102 8.0009 8.14199C7.90941 8.16296 7.81412 8.1607 7.72373 8.13541C7.63333 8.11013 7.5507 8.06262 7.48336 7.99723L5.62922 6.19864C4.50633 7.81934 3.9375 9.42176 3.9375 10.9686C3.9375 12.3113 4.47087 13.599 5.42027 14.5484C6.36967 15.4978 7.65734 16.0311 9 16.0311C10.3427 16.0311 11.6303 15.4978 12.5797 14.5484C13.5291 13.599 14.0625 12.3113 14.0625 10.9686Z" fill="#202D61"/>
</svg>
