<svg width="24" height="25" viewBox="0 0 24 25" fill="none" xmlns="http://www.w3.org/2000/svg">
<path opacity="0.2" d="M15.5454 9.84375L14.4541 15.8438H8.4541L9.54535 9.84375H15.5454Z" fill="#00AEEF"/>
<path d="M21 9.094H16.4437L17.2378 4.72807C17.2697 4.53395 17.2241 4.33507 17.1107 4.17429C16.9974 4.01351 16.8254 3.9037 16.6318 3.86853C16.4383 3.83336 16.2386 3.87565 16.076 3.98627C15.9133 4.0969 15.8006 4.26701 15.7622 4.45994L14.9184 9.094H10.4438L11.2378 4.72807C11.2697 4.53395 11.2241 4.33507 11.1107 4.17429C10.9974 4.01351 10.8254 3.9037 10.6318 3.86853C10.4383 3.83336 10.2386 3.87565 10.076 3.98627C9.91331 4.0969 9.80062 4.26701 9.76219 4.45994L8.91937 9.094H4.5C4.30109 9.094 4.11032 9.17302 3.96967 9.31367C3.82902 9.45433 3.75 9.64509 3.75 9.844C3.75 10.0429 3.82902 10.2337 3.96967 10.3743C4.11032 10.515 4.30109 10.594 4.5 10.594H8.64656L7.82812 15.094H3C2.80109 15.094 2.61032 15.173 2.46967 15.3137C2.32902 15.4543 2.25 15.6451 2.25 15.844C2.25 16.0429 2.32902 16.2337 2.46967 16.3743C2.61032 16.515 2.80109 16.594 3 16.594H7.55625L6.76219 20.9599C6.72666 21.1556 6.77031 21.3574 6.88353 21.5209C6.99675 21.6844 7.17027 21.7962 7.36594 21.8318C7.41015 21.84 7.45503 21.8441 7.5 21.844C7.67548 21.8438 7.84532 21.782 7.97996 21.6695C8.11459 21.5569 8.20551 21.4007 8.23688 21.2281L9.08063 16.594H13.5563L12.7622 20.9599C12.7267 21.1556 12.7703 21.3574 12.8835 21.5209C12.9967 21.6844 13.1703 21.7962 13.3659 21.8318C13.4102 21.84 13.455 21.8441 13.5 21.844C13.6755 21.8438 13.8453 21.782 13.98 21.6695C14.1146 21.5569 14.2055 21.4007 14.2369 21.2281L15.0806 16.594H19.5C19.6989 16.594 19.8897 16.515 20.0303 16.3743C20.171 16.2337 20.25 16.0429 20.25 15.844C20.25 15.6451 20.171 15.4543 20.0303 15.3137C19.8897 15.173 19.6989 15.094 19.5 15.094H15.3534L16.1719 10.594H21C21.1989 10.594 21.3897 10.515 21.5303 10.3743C21.671 10.2337 21.75 10.0429 21.75 9.844C21.75 9.64509 21.671 9.45433 21.5303 9.31367C21.3897 9.17302 21.1989 9.094 21 9.094ZM13.8281 15.094H9.35344L10.1719 10.594H14.6466L13.8281 15.094Z" fill="#00AEEF"/>
</svg>
