<svg width="48" height="49" viewBox="0 0 48 49" fill="none" xmlns="http://www.w3.org/2000/svg">
<path opacity="0.2" d="M42 19.8435V28.8435C42 29.2413 41.842 29.6229 41.5607 29.9042C41.2794 30.1855 40.8978 30.3435 40.5 30.3435H30V40.8435C30 41.2413 29.842 41.6229 29.5607 41.9042C29.2794 42.1855 28.8978 42.3435 28.5 42.3435H19.5C19.1022 42.3435 18.7206 42.1855 18.4393 41.9042C18.158 41.6229 18 41.2413 18 40.8435V30.3435H7.5C7.10218 30.3435 6.72064 30.1855 6.43934 29.9042C6.15804 29.6229 6 29.2413 6 28.8435V19.8435C6 19.4457 6.15804 19.0642 6.43934 18.7828C6.72064 18.5015 7.10218 18.3435 7.5 18.3435H18V7.84351C18 7.44568 18.158 7.06415 18.4393 6.78285C18.7206 6.50154 19.1022 6.34351 19.5 6.34351H28.5C28.8978 6.34351 29.2794 6.50154 29.5607 6.78285C29.842 7.06415 30 7.44568 30 7.84351V18.3435H40.5C40.8978 18.3435 41.2794 18.5015 41.5607 18.7828C41.842 19.0642 42 19.4457 42 19.8435Z" fill="white"/>
<path d="M40.5 16.8435H31.5V7.84351C31.5 7.04786 31.1839 6.28479 30.6213 5.72219C30.0587 5.15958 29.2956 4.84351 28.5 4.84351H19.5C18.7044 4.84351 17.9413 5.15958 17.3787 5.72219C16.8161 6.28479 16.5 7.04786 16.5 7.84351V16.8435H7.5C6.70435 16.8435 5.94129 17.1596 5.37868 17.7222C4.81607 18.2848 4.5 19.0479 4.5 19.8435V28.8435C4.5 29.6392 4.81607 30.4022 5.37868 30.9648C5.94129 31.5274 6.70435 31.8435 7.5 31.8435H16.5V40.8435C16.5 41.6392 16.8161 42.4022 17.3787 42.9648C17.9413 43.5274 18.7044 43.8435 19.5 43.8435H28.5C29.2956 43.8435 30.0587 43.5274 30.6213 42.9648C31.1839 42.4022 31.5 41.6392 31.5 40.8435V31.8435H40.5C41.2957 31.8435 42.0587 31.5274 42.6213 30.9648C43.1839 30.4022 43.5 29.6392 43.5 28.8435V19.8435C43.5 19.0479 43.1839 18.2848 42.6213 17.7222C42.0587 17.1596 41.2957 16.8435 40.5 16.8435ZM40.5 28.8435H30C29.6022 28.8435 29.2206 29.0015 28.9393 29.2828C28.658 29.5641 28.5 29.9457 28.5 30.3435V40.8435H19.5V30.3435C19.5 29.9457 19.342 29.5641 19.0607 29.2828C18.7794 29.0015 18.3978 28.8435 18 28.8435H7.5V19.8435H18C18.3978 19.8435 18.7794 19.6855 19.0607 19.4042C19.342 19.1229 19.5 18.7413 19.5 18.3435V7.84351H28.5V18.3435C28.5 18.7413 28.658 19.1229 28.9393 19.4042C29.2206 19.6855 29.6022 19.8435 30 19.8435H40.5V28.8435Z" fill="white"/>
</svg>
