<svg width="48" height="49" viewBox="0 0 48 49" fill="none" xmlns="http://www.w3.org/2000/svg">
<path opacity="0.2" d="M33.6824 30.3435H14.3174L23.9999 13.9597L33.6824 30.3435Z" fill="white"/>
<path d="M12.0637 37.1066L10.2919 40.1066C10.1917 40.2763 10.059 40.4245 9.9015 40.5429C9.74399 40.6613 9.56471 40.7475 9.37388 40.7966C8.9885 40.8958 8.5795 40.8378 8.23688 40.6354C7.89425 40.433 7.64606 40.1028 7.5469 39.7174C7.44774 39.332 7.50573 38.923 7.70813 38.5804L9.48187 35.5804C9.57968 35.4062 9.71132 35.2532 9.86904 35.1306C10.0268 35.0079 10.2074 34.918 10.4003 34.8661C10.5933 34.8143 10.7947 34.8015 10.9926 34.8285C11.1906 34.8555 11.3812 34.9218 11.5532 35.0234C11.7252 35.1251 11.8751 35.2601 11.9942 35.4205C12.1133 35.581 12.1992 35.7636 12.2467 35.9576C12.2943 36.1517 12.3026 36.3533 12.2712 36.5506C12.2398 36.7479 12.1692 36.937 12.0637 37.1066ZM43.5 28.8435H34.5375L28.7756 19.0935C28.6778 18.9193 28.5462 18.7664 28.3885 18.6437C28.2307 18.5211 28.0501 18.4312 27.8572 18.3793C27.6642 18.3274 27.4628 18.3146 27.2649 18.3416C27.0669 18.3686 26.8763 18.4349 26.7043 18.5366C26.5323 18.6382 26.3824 18.7732 26.2633 18.9337C26.1442 19.0941 26.0583 19.2767 26.0108 19.4707C25.9632 19.6648 25.9549 19.8664 25.9863 20.0637C26.0177 20.261 26.0883 20.4501 26.1937 20.6198L37.7081 40.1066C37.9105 40.4493 38.2407 40.6975 38.6261 40.7966C39.0115 40.8958 39.4205 40.8378 39.7631 40.6354C40.1058 40.433 40.3539 40.1028 40.4531 39.7174C40.5523 39.332 40.4943 38.923 40.2919 38.5804L36.3112 31.8435H43.5C43.8978 31.8435 44.2794 31.6855 44.5607 31.4042C44.842 31.1229 45 30.7413 45 30.3435C45 29.9457 44.842 29.5642 44.5607 29.2828C44.2794 29.0015 43.8978 28.8435 43.5 28.8435ZM26.7131 28.8435H16.9462L29.7919 7.10663C29.9943 6.76401 30.0523 6.35501 29.9531 5.96963C29.8539 5.58424 29.6058 5.25403 29.2631 5.05163C28.9205 4.84924 28.5115 4.79124 28.1261 4.8904C27.7407 4.98956 27.4105 5.23776 27.2081 5.58038L24 11.0104L20.7919 5.57288C20.6917 5.40323 20.559 5.25498 20.4015 5.13659C20.244 5.01821 20.0647 4.932 19.8739 4.8829C19.4885 4.78374 19.0795 4.84174 18.7369 5.04413C18.3942 5.24653 18.1461 5.57674 18.0469 5.96213C17.9477 6.34751 18.0057 6.75651 18.2081 7.09913L22.2581 13.9523L13.4625 28.8435H4.5C4.10218 28.8435 3.72064 29.0015 3.43934 29.2828C3.15804 29.5642 3 29.9457 3 30.3435C3 30.7413 3.15804 31.1229 3.43934 31.4042C3.72064 31.6855 4.10218 31.8435 4.5 31.8435H26.7131C27.111 31.8435 27.4925 31.6855 27.7738 31.4042C28.0551 31.1229 28.2131 30.7413 28.2131 30.3435C28.2131 29.9457 28.0551 29.5642 27.7738 29.2828C27.4925 29.0015 27.111 28.8435 26.7131 28.8435Z" fill="white"/>
</svg>
