<svg width="48" height="49" viewBox="0 0 48 49" fill="none" xmlns="http://www.w3.org/2000/svg">
<path opacity="0.2" d="M42 12.3435V39.3435H6V9.34351H39C39.7957 9.34351 40.5587 9.65958 41.1213 10.2222C41.6839 10.7848 42 11.5479 42 12.3435Z" fill="white"/>
<path d="M43.5 39.3435C43.5 39.7413 43.342 40.1229 43.0607 40.4042C42.7794 40.6855 42.3978 40.8435 42 40.8435H6C5.60218 40.8435 5.22064 40.6855 4.93934 40.4042C4.65804 40.1229 4.5 39.7413 4.5 39.3435V9.34351C4.5 8.94568 4.65804 8.56415 4.93934 8.28285C5.22064 8.00154 5.60218 7.84351 6 7.84351C6.39782 7.84351 6.77936 8.00154 7.06066 8.28285C7.34196 8.56415 7.5 8.94568 7.5 9.34351V29.7229L16.9387 20.2823C17.0781 20.1428 17.2435 20.0322 17.4256 19.9567C17.6077 19.8812 17.8029 19.8423 18 19.8423C18.1971 19.8423 18.3923 19.8812 18.5744 19.9567C18.7565 20.0322 18.9219 20.1428 19.0613 20.2823L24 25.2229L33.8794 15.3435H30C29.6022 15.3435 29.2206 15.1855 28.9393 14.9042C28.658 14.6229 28.5 14.2413 28.5 13.8435C28.5 13.4457 28.658 13.0642 28.9393 12.7828C29.2206 12.5015 29.6022 12.3435 30 12.3435H37.5C37.8978 12.3435 38.2794 12.5015 38.5607 12.7828C38.842 13.0642 39 13.4457 39 13.8435V21.3435C39 21.7413 38.842 22.1229 38.5607 22.4042C38.2794 22.6855 37.8978 22.8435 37.5 22.8435C37.1022 22.8435 36.7206 22.6855 36.4393 22.4042C36.158 22.1229 36 21.7413 36 21.3435V17.4641L25.0613 28.4048C24.9219 28.5442 24.7565 28.6549 24.5744 28.7303C24.3923 28.8058 24.1971 28.8447 24 28.8447C23.8029 28.8447 23.6077 28.8058 23.4256 28.7303C23.2435 28.6549 23.0781 28.5442 22.9387 28.4048L18 23.4641L7.5 33.9641V37.8435H42C42.3978 37.8435 42.7794 38.0015 43.0607 38.2828C43.342 38.5641 43.5 38.9457 43.5 39.3435Z" fill="white"/>
</svg>
