<svg width="48" height="49" viewBox="0 0 48 49" fill="none" xmlns="http://www.w3.org/2000/svg">
<path opacity="0.2" d="M16.5 9.34351V10.8435C16.5 12.4348 15.8679 13.9609 14.7426 15.0861C13.6174 16.2114 12.0913 16.8435 10.5 16.8435H6V15.3435C6 13.7522 6.63214 12.2261 7.75736 11.1009C8.88258 9.97565 10.4087 9.34351 12 9.34351H16.5Z" fill="white"/>
<path d="M40.5 15.156V15.3435C40.5 17.3326 39.7098 19.2403 38.3033 20.6468C36.8968 22.0533 34.9891 22.8435 33 22.8435H25.5V37.8435H27C27.6078 37.8438 28.2014 37.6595 28.7021 37.315C29.2028 36.9704 29.5871 36.4819 29.804 35.9141C30.0209 35.3463 30.0602 34.7261 29.9168 34.1354C29.7733 33.5448 29.4538 33.0117 29.0006 32.6066C28.7192 32.3377 28.5533 31.9699 28.538 31.581C28.5227 31.192 28.6593 30.8123 28.9187 30.5222C29.1782 30.232 29.5404 30.0541 29.9286 30.026C30.3169 29.9979 30.7008 30.1218 30.9994 30.3716C31.905 31.1817 32.5433 32.2477 32.8298 33.4284C33.1164 34.6092 33.0377 35.8491 32.6042 36.9842C32.1707 38.1193 31.4028 39.096 30.4021 39.7851C29.4014 40.4742 28.215 40.8433 27 40.8435H25.5V43.8435C25.5 44.2413 25.342 44.6229 25.0607 44.9042C24.7794 45.1855 24.3978 45.3435 24 45.3435C23.6022 45.3435 23.2206 45.1855 22.9393 44.9042C22.658 44.6229 22.5 44.2413 22.5 43.8435V40.8435H18C17.6022 40.8435 17.2206 40.6855 16.9393 40.4042C16.658 40.1229 16.5 39.7413 16.5 39.3435C16.5 38.9457 16.658 38.5641 16.9393 38.2828C17.2206 38.0015 17.6022 37.8435 18 37.8435H22.5V22.8435H18C17.2044 22.8435 16.4413 23.1596 15.8787 23.7222C15.3161 24.2848 15 25.0479 15 25.8435C15 26.6392 15.3161 27.4022 15.8787 27.9648C16.4413 28.5274 17.2044 28.8435 18 28.8435C18.3978 28.8435 18.7794 29.0015 19.0607 29.2828C19.342 29.5641 19.5 29.9457 19.5 30.3435C19.5 30.7413 19.342 31.1229 19.0607 31.4042C18.7794 31.6855 18.3978 31.8435 18 31.8435C16.4087 31.8435 14.8826 31.2114 13.7574 30.0861C12.6321 28.9609 12 27.4348 12 25.8435C12 24.2522 12.6321 22.7261 13.7574 21.6009C14.8826 20.4756 16.4087 19.8435 18 19.8435H22.5V4.84351C22.5 4.44568 22.658 4.06415 22.9393 3.78285C23.2206 3.50154 23.6022 3.34351 24 3.34351C24.3978 3.34351 24.7794 3.50154 25.0607 3.78285C25.342 4.06415 25.5 4.44568 25.5 4.84351V19.8435H33C34.1935 19.8435 35.3381 19.3694 36.182 18.5255C37.0259 17.6816 37.5 16.537 37.5 15.3435V15.156C37.5 14.0123 37.0457 12.9154 36.2369 12.1066C35.4281 11.2979 34.3312 10.8435 33.1875 10.8435H30C29.6022 10.8435 29.2206 10.6855 28.9393 10.4042C28.658 10.1229 28.5 9.74133 28.5 9.34351C28.5 8.94568 28.658 8.56415 28.9393 8.28285C29.2206 8.00154 29.6022 7.84351 30 7.84351H33.1875C35.1269 7.84351 36.9869 8.61393 38.3582 9.98529C39.7296 11.3566 40.5 13.2166 40.5 15.156ZM10.5 18.3435H6C5.60218 18.3435 5.22064 18.1855 4.93934 17.9042C4.65804 17.6229 4.5 17.2413 4.5 16.8435V15.3435C4.5 13.3544 5.29018 11.4467 6.6967 10.0402C8.10322 8.63368 10.0109 7.84351 12 7.84351H18C18.3978 7.84351 18.7794 8.00154 19.0607 8.28285C19.342 8.56415 19.5 8.94568 19.5 9.34351C19.5 9.74133 19.342 10.1229 19.0607 10.4042C18.7794 10.6855 18.3978 10.8435 18 10.8435C18 11.8284 17.806 12.8037 17.4291 13.7136C17.0522 14.6236 16.4997 15.4504 15.8033 16.1468C15.1069 16.8432 14.2801 17.3957 13.3701 17.7726C12.4602 18.1495 11.4849 18.3435 10.5 18.3435ZM15 10.8435H12C10.8065 10.8435 9.66193 11.3176 8.81802 12.1615C7.97411 13.0054 7.5 14.15 7.5 15.3435H10.5C11.6935 15.3435 12.8381 14.8694 13.682 14.0255C14.5259 13.1816 15 12.037 15 10.8435Z" fill="white"/>
</svg>
