<svg width="20" height="21" viewBox="0 0 20 21" fill="none" xmlns="http://www.w3.org/2000/svg">
<path opacity="0.2" d="M16.25 3.96851V17.0935H11.875V3.96851H16.25Z" fill="white"/>
<path d="M17.5 16.4685H16.875V3.96851C16.875 3.80275 16.8092 3.64377 16.6919 3.52656C16.5747 3.40935 16.4158 3.34351 16.25 3.34351H11.875C11.7092 3.34351 11.5503 3.40935 11.4331 3.52656C11.3158 3.64377 11.25 3.80275 11.25 3.96851V7.09351H7.5C7.33424 7.09351 7.17527 7.15935 7.05806 7.27656C6.94085 7.39377 6.875 7.55275 6.875 7.71851V10.8435H3.75C3.58424 10.8435 3.42527 10.9094 3.30806 11.0266C3.19085 11.1438 3.125 11.3027 3.125 11.4685V16.4685H2.5C2.33424 16.4685 2.17527 16.5344 2.05806 16.6516C1.94085 16.7688 1.875 16.9277 1.875 17.0935C1.875 17.2593 1.94085 17.4182 2.05806 17.5354C2.17527 17.6527 2.33424 17.7185 2.5 17.7185H17.5C17.6658 17.7185 17.8247 17.6527 17.9419 17.5354C18.0592 17.4182 18.125 17.2593 18.125 17.0935C18.125 16.9277 18.0592 16.7688 17.9419 16.6516C17.8247 16.5344 17.6658 16.4685 17.5 16.4685ZM12.5 4.59351H15.625V16.4685H12.5V4.59351ZM8.125 8.34351H11.25V16.4685H8.125V8.34351ZM4.375 12.0935H6.875V16.4685H4.375V12.0935Z" fill="white"/>
</svg>
