<svg width="20" height="23" viewBox="0 0 20 23" fill="none" xmlns="http://www.w3.org/2000/svg">
<path opacity="0.2" d="M17.5 12.8435C17.5 14.3269 17.0601 15.7769 16.236 17.0103C15.4119 18.2437 14.2406 19.2049 12.8701 19.7726C11.4997 20.3403 9.99168 20.4888 8.53683 20.1994C7.08197 19.91 5.7456 19.1957 4.6967 18.1468C3.64781 17.0979 2.9335 15.7615 2.64411 14.3067C2.35472 12.8518 2.50325 11.3438 3.07091 9.97338C3.63856 8.60293 4.59986 7.43159 5.83323 6.60748C7.0666 5.78337 8.51664 5.34351 10 5.34351C11.9891 5.34351 13.8968 6.13368 15.3033 7.54021C16.7098 8.94673 17.5 10.8544 17.5 12.8435Z" fill="#202D61"/>
<path d="M13.5672 10.5263C13.6253 10.5844 13.6714 10.6533 13.7029 10.7292C13.7343 10.805 13.7505 10.8864 13.7505 10.9685C13.7505 11.0506 13.7343 11.132 13.7029 11.2078C13.6714 11.2837 13.6253 11.3526 13.5672 11.4107L9.19219 15.7857C9.13415 15.8438 9.06522 15.8899 8.98934 15.9214C8.91347 15.9528 8.83214 15.969 8.75 15.969C8.66787 15.969 8.58654 15.9528 8.51067 15.9214C8.43479 15.8899 8.36586 15.8438 8.30782 15.7857L6.43282 13.9107C6.31554 13.7934 6.24966 13.6344 6.24966 13.4685C6.24966 13.3027 6.31554 13.1436 6.43282 13.0263C6.55009 12.909 6.70915 12.8432 6.875 12.8432C7.04086 12.8432 7.19992 12.909 7.31719 13.0263L8.75 14.4599L12.6828 10.5263C12.7409 10.4682 12.8098 10.4221 12.8857 10.3907C12.9615 10.3592 13.0429 10.343 13.125 10.343C13.2071 10.343 13.2885 10.3592 13.3643 10.3907C13.4402 10.4221 13.5091 10.4682 13.5672 10.5263ZM18.125 12.8435C18.125 14.4505 17.6485 16.0214 16.7557 17.3575C15.8629 18.6937 14.594 19.7351 13.1093 20.35C11.6247 20.965 9.99099 21.1259 8.4149 20.8124C6.8388 20.4989 5.39106 19.725 4.25476 18.5887C3.11846 17.4524 2.34463 16.0047 2.03112 14.4286C1.71762 12.8525 1.87852 11.2189 2.49348 9.7342C3.10844 8.24955 4.14985 6.9806 5.486 6.08782C6.82214 5.19503 8.39303 4.71851 10 4.71851C12.1542 4.72078 14.2195 5.57754 15.7427 7.10078C17.266 8.62402 18.1227 10.6893 18.125 12.8435ZM16.875 12.8435C16.875 11.4838 16.4718 10.1545 15.7164 9.02396C14.9609 7.89337 13.8872 7.01219 12.631 6.49183C11.3747 5.97148 9.99238 5.83533 8.65876 6.10061C7.32514 6.36588 6.10013 7.02066 5.13864 7.98215C4.17716 8.94363 3.52238 10.1686 3.2571 11.5023C2.99183 12.8359 3.12798 14.2182 3.64833 15.4745C4.16868 16.7307 5.04987 17.8044 6.18046 18.5599C7.31105 19.3153 8.64026 19.7185 10 19.7185C11.8227 19.7164 13.5702 18.9914 14.8591 17.7026C16.1479 16.4137 16.8729 14.6662 16.875 12.8435Z" fill="#202D61"/>
</svg>
