<svg width="18" height="19" viewBox="0 0 18 19" fill="none" xmlns="http://www.w3.org/2000/svg">
<path opacity="0.2" d="M14.6251 8.15601C14.6258 9.00831 14.4326 9.8496 14.0599 10.6161C13.6872 11.3826 13.145 12.0542 12.4742 12.5801C12.2694 12.7388 12.1034 12.9421 11.9887 13.1746C11.8741 13.407 11.8139 13.6625 11.8126 13.9216V14.3435C11.8126 14.4927 11.7533 14.6358 11.6478 14.7413C11.5423 14.8467 11.3993 14.906 11.2501 14.906H6.75009C6.6009 14.906 6.45783 14.8467 6.35234 14.7413C6.24685 14.6358 6.18759 14.4927 6.18759 14.3435V13.9216C6.18732 13.6639 6.12828 13.4096 6.01497 13.1781C5.90166 12.9466 5.73706 12.744 5.53368 12.5857C4.86499 12.0633 4.32337 11.3962 3.9495 10.6345C3.57563 9.87274 3.37924 9.03618 3.37509 8.18765C3.35821 5.1389 5.81634 2.60132 8.86438 2.53101C9.61441 2.51291 10.3605 2.64503 11.0587 2.9196C11.7569 3.19417 12.3931 3.60563 12.9299 4.12978C13.4667 4.65392 13.8932 5.28015 14.1843 5.9716C14.4754 6.66306 14.6253 7.40577 14.6251 8.15601Z" fill="#00AEEF"/>
<path d="M12.3751 17.156C12.3751 17.3052 12.3158 17.4483 12.2103 17.5537C12.1049 17.6592 11.9618 17.7185 11.8126 17.7185H6.18759C6.03841 17.7185 5.89533 17.6592 5.78984 17.5537C5.68436 17.4483 5.62509 17.3052 5.62509 17.156C5.62509 17.0068 5.68436 16.8637 5.78984 16.7583C5.89533 16.6528 6.03841 16.5935 6.18759 16.5935H11.8126C11.9618 16.5935 12.1049 16.6528 12.2103 16.7583C12.3158 16.8637 12.3751 17.0068 12.3751 17.156ZM15.1876 8.156C15.19 9.09372 14.9782 10.0196 14.5683 10.863C14.1583 11.7063 13.5611 12.4449 12.8223 13.0223C12.6841 13.1282 12.572 13.2643 12.4945 13.4202C12.417 13.576 12.3762 13.7476 12.3751 13.9216V14.3435C12.3751 14.6419 12.2566 14.928 12.0456 15.139C11.8346 15.35 11.5485 15.4685 11.2501 15.4685H6.75009C6.45172 15.4685 6.16558 15.35 5.9546 15.139C5.74362 14.928 5.62509 14.6419 5.62509 14.3435V13.9216C5.62498 13.7496 5.58543 13.58 5.50949 13.4257C5.43355 13.2713 5.32325 13.1365 5.18704 13.0315C4.45003 12.4575 3.85325 11.7233 3.44187 10.8846C3.0305 10.0459 2.81531 9.12461 2.81259 8.19045C2.79431 4.83936 5.50275 2.04866 8.85103 1.9685C9.67604 1.94862 10.4967 2.09398 11.2647 2.39601C12.0327 2.69805 12.7325 3.15067 13.3229 3.72722C13.9134 4.30378 14.3825 4.99262 14.7028 5.7532C15.023 6.51379 15.1878 7.33075 15.1876 8.156ZM14.0626 8.156C14.0628 7.48076 13.9279 6.81231 13.6659 6.18999C13.4038 5.56766 13.02 5.00405 12.5368 4.53231C12.0537 4.06058 11.4811 3.69027 10.8527 3.44317C10.2243 3.19607 9.55279 3.07718 8.87775 3.0935C6.13556 3.15819 3.92283 5.44124 3.93759 8.18342C3.94016 8.94743 4.11646 9.70084 4.45316 10.3867C4.78986 11.0725 5.27813 11.6727 5.88103 12.142C6.15204 12.3527 6.37126 12.6226 6.52189 12.9311C6.67253 13.2395 6.75059 13.5784 6.75009 13.9216V14.3435H11.2501V13.9216C11.2509 13.5774 11.3303 13.2378 11.4822 12.9289C11.6342 12.62 11.8547 12.3499 12.1269 12.1392C12.7316 11.6666 13.2204 11.062 13.5559 10.3717C13.8914 9.68138 14.0647 8.92353 14.0626 8.156ZM12.9299 7.49928C12.784 6.68457 12.392 5.9341 11.8067 5.34891C11.2214 4.76373 10.4709 4.37192 9.65611 4.22624C9.58326 4.21396 9.5087 4.21614 9.43669 4.23268C9.36468 4.24921 9.29664 4.27977 9.23644 4.3226C9.17624 4.36543 9.12507 4.4197 9.08584 4.4823C9.04662 4.54491 9.02011 4.61463 9.00783 4.68749C8.99555 4.76034 8.99773 4.8349 9.01427 4.9069C9.0308 4.97891 9.06136 5.04696 9.10419 5.10715C9.14702 5.16735 9.20129 5.21853 9.2639 5.25775C9.3265 5.29698 9.39622 5.32349 9.46908 5.33577C10.6342 5.53194 11.6227 6.52053 11.8203 7.68772C11.8426 7.81873 11.9105 7.93762 12.012 8.02334C12.1136 8.10905 12.2422 8.15605 12.3751 8.156C12.4069 8.15581 12.4386 8.15323 12.47 8.14827C12.617 8.12317 12.7481 8.0407 12.8343 7.91899C12.9206 7.79729 12.9549 7.64632 12.9299 7.49928Z" fill="#00AEEF"/>
</svg>
