<svg width="152" height="152" viewBox="0 0 152 152" fill="none" xmlns="http://www.w3.org/2000/svg">
<g filter="url(#filter0_dd_10594_3160)">
<rect x="44" y="32" width="64" height="64" rx="8" fill="white"/>
<rect x="44.5" y="32.5" width="63" height="63" rx="7.5" stroke="#B3E7FB"/>
<path d="M60.3273 45.2892C60.4695 45.2571 60.6148 45.2517 60.7601 45.2493C64.7187 45.2509 68.6765 45.2501 72.6351 45.2501C72.9687 45.2501 73.3163 45.2274 73.6327 45.3548C74.2359 45.5735 74.6734 46.179 74.6859 46.8212C74.6913 47.4165 74.6945 48.0118 74.6843 48.6071C74.657 49.422 73.9296 50.1329 73.1132 50.1392C68.9695 50.1431 64.8257 50.1399 60.6812 50.1399C59.8523 50.1603 59.0898 49.4493 59.0577 48.6196C59.0468 48.0149 59.0507 47.4095 59.0562 46.8048C59.0734 46.0884 59.6281 45.4353 60.3273 45.2892Z" fill="#00AEEF"/>
<path d="M60.6802 51.2353C64.8075 51.2337 68.9341 51.2345 73.0607 51.2353C73.063 56.2993 73.0599 61.3634 73.063 66.4275C73.0724 66.5251 73.0497 66.615 72.9958 66.697C71.97 68.3986 71.4115 70.3767 71.3872 72.3634C71.3583 74.3618 71.8693 76.3673 72.8615 78.1032C72.5474 79.3548 71.8193 80.4978 70.8247 81.3196C69.8247 82.1548 68.5544 82.6595 67.2536 82.7376C65.8247 82.829 64.3685 82.4048 63.2154 81.5548C61.6466 80.4204 60.6708 78.5165 60.681 76.5782C60.6794 68.1306 60.6794 59.6829 60.6802 51.2353ZM63.2294 54.3118C63.2099 55.1931 63.4021 56.0736 63.7411 56.8853C64.2411 58.1111 65.1216 59.1298 66.0865 60.0157C65.1943 60.8376 64.3685 61.7634 63.8607 62.8775C63.099 64.4579 63.0146 66.3486 63.6591 67.9829C64.1482 69.2868 65.0544 70.3837 66.0841 71.3017C65.7263 71.6868 65.3224 72.0282 64.9904 72.4368C63.9154 73.6876 63.213 75.3009 63.2271 76.9665C63.2169 77.2446 63.456 77.4939 63.731 77.5087C64.0333 77.5384 64.3216 77.2743 64.3146 76.9697C64.3247 76.1845 64.4927 75.4001 64.8255 74.6876C66.188 74.6868 67.5513 74.6892 68.9138 74.6868C69.2349 75.3743 69.4075 76.1298 69.4216 76.8892C69.4083 77.1165 69.5154 77.3564 69.7302 77.4548C70.0435 77.6251 70.4747 77.397 70.5091 77.0431C70.5357 76.1556 70.3419 75.2673 70.0021 74.4493C69.5013 73.222 68.6232 72.2009 67.6552 71.315C68.6888 70.3728 69.6154 69.2642 70.099 67.9337C70.7505 66.2501 70.6232 64.3032 69.7966 62.7032C69.2888 61.6618 68.4966 60.8001 67.6575 60.0157C68.3841 59.3337 69.081 58.6032 69.5771 57.7314C70.17 56.7212 70.5161 55.5587 70.5154 54.3845C70.5325 54.0907 70.2771 53.8165 69.9818 53.8204C69.6755 53.804 69.4052 54.0861 69.4247 54.3907C69.4154 55.1665 69.238 55.9353 68.9208 56.6423C67.556 56.6509 66.1911 56.6431 64.8271 56.6462C64.499 55.9407 64.3263 55.1665 64.3169 54.3892C64.3271 54.1345 64.1466 53.8868 63.895 53.8345C63.5888 53.7517 63.2458 53.9931 63.2294 54.3118Z" fill="#00AEEF"/>
<path d="M65.4707 57.7408C66.4043 57.7392 67.3371 57.7392 68.2707 57.74C67.8676 58.3002 67.3691 58.7806 66.8707 59.2541C66.3715 58.7814 65.8746 58.3002 65.4707 57.7408Z" fill="#00AEEF"/>
<path d="M65.4707 62.2915C65.8754 61.7321 66.3707 61.2485 66.8723 60.7766C67.3699 61.25 67.8699 61.7282 68.2691 62.2899C67.3363 62.293 66.4035 62.2915 65.4707 62.2915Z" fill="#00AEEF"/>
<path d="M81.5856 62.3463C83.6426 62.1143 85.7676 62.526 87.5856 63.5174C89.2903 64.4377 90.7223 65.8541 91.6598 67.5494C93.0309 69.994 93.3231 73.0088 92.4465 75.6713C91.6379 78.2041 89.7926 80.3815 87.4286 81.5979C84.9551 82.8947 81.9434 83.1088 79.3129 82.1674C77.8754 81.6612 76.5536 80.8307 75.477 79.7518C74.0051 78.2846 72.9981 76.358 72.6387 74.3104C72.2387 72.0916 72.6036 69.744 73.6583 67.751C74.7489 65.6666 76.5833 63.9838 78.7559 63.0815C79.6575 62.7033 80.6137 62.4533 81.5856 62.3463ZM82.9637 67.9252C82.7778 68.5955 82.5989 69.2674 82.4231 69.9408C81.4098 69.2799 80.1356 69.0143 78.9528 69.301C77.7926 69.5643 76.7567 70.3221 76.1567 71.3494C75.5208 72.4166 75.3708 73.758 75.7606 74.9377C76.1301 76.0987 77.009 77.0838 78.12 77.5838C79.1028 78.0362 80.252 78.1002 81.2825 77.7713C81.8458 78.851 82.9864 79.6049 84.2067 79.6627C85.4559 79.7494 86.7184 79.1057 87.384 78.0455C87.8137 77.3971 87.9208 76.6112 88.1379 75.8799C88.6809 73.8455 89.2309 71.8119 89.77 69.7768C90.0473 68.7182 89.7942 67.5408 89.1059 66.6908C88.3309 65.701 86.995 65.1822 85.7559 65.4151C84.4536 65.6401 83.3176 66.6471 82.9637 67.9252Z" fill="#00AEEF"/>
<path d="M64.8281 63.3859C66.1945 63.3914 67.5609 63.3726 68.9258 63.3953C69.157 63.9461 69.3313 64.5234 69.3953 65.1195C67.7125 65.1195 66.0305 65.1203 64.3477 65.1187C64.4156 64.5203 64.5781 63.9336 64.8281 63.3859Z" fill="#00AEEF"/>
<path d="M64.3477 66.2142C66.0305 66.2142 67.7133 66.2119 69.3961 66.215C69.3242 66.8111 69.1633 67.3963 68.9133 67.9431C67.5516 67.9423 66.1898 67.9431 64.8281 67.9423C64.5781 67.3963 64.4156 66.8111 64.3477 66.2142Z" fill="#00AEEF"/>
<path d="M84.0635 68.0727C84.4564 66.8907 85.8463 66.179 87.0354 66.5587C88.2275 66.8758 89.0229 68.1962 88.7377 69.3985C88.4643 70.4743 88.1658 71.5446 87.8807 72.618C86.5322 72.2587 85.1846 71.8954 83.8354 71.536C83.6861 71.2712 83.5189 71.0165 83.3291 70.779C83.5744 69.8774 83.7994 68.9688 84.0635 68.0727Z" fill="#00AEEF"/>
<path d="M65.4688 69.0367C66.4031 69.0367 67.3375 69.0359 68.2727 69.0367C67.868 69.5977 67.3703 70.0797 66.8703 70.5547C66.3719 70.0789 65.8734 69.5969 65.4688 69.0367Z" fill="#00AEEF"/>
<path d="M78.0215 70.8907C78.7418 70.3797 79.6684 70.1688 80.5371 70.3352C81.6426 70.5282 82.6129 71.3313 83.0129 72.3789C83.4223 73.3977 83.2668 74.6079 82.6309 75.5C81.0934 73.9649 79.5574 72.4282 78.0215 70.8907Z" fill="#00AEEF"/>
<path d="M76.82 74.6712C76.4645 73.6767 76.6325 72.5228 77.2458 71.6658C78.7833 73.2009 80.32 74.7376 81.8559 76.2751C81.0958 76.8119 80.109 77.0158 79.2012 76.8009C78.1114 76.5619 77.1801 75.7259 76.82 74.6712Z" fill="#00AEEF"/>
<path d="M65.4678 73.5939C65.8725 73.0322 66.3701 72.5494 66.8709 72.0752C67.3709 72.5502 67.8693 73.0322 68.274 73.5939C67.3389 73.5939 66.4029 73.5939 65.4678 73.5939Z" fill="#00AEEF"/>
<path d="M84.2652 72.7822C85.3762 73.0791 86.4871 73.376 87.598 73.6752C87.3199 74.715 87.0426 75.7549 86.7621 76.7939C86.5809 77.4564 86.1051 78.0307 85.4871 78.3291C84.6637 78.7447 83.6113 78.6275 82.898 78.0447C82.6426 77.8471 82.4441 77.5885 82.2754 77.3166C83.1527 76.7471 83.8387 75.8799 84.1395 74.8736C84.3504 74.1994 84.384 73.4775 84.2652 72.7822Z" fill="#00AEEF"/>
</g>
<defs>
<filter id="filter0_dd_10594_3160" x="0" y="0" width="152" height="152" filterUnits="userSpaceOnUse" color-interpolation-filters="sRGB">
<feFlood flood-opacity="0" result="BackgroundImageFix"/>
<feColorMatrix in="SourceAlpha" type="matrix" values="0 0 0 0 0 0 0 0 0 0 0 0 0 0 0 0 0 0 127 0" result="hardAlpha"/>
<feMorphology radius="4" operator="erode" in="SourceAlpha" result="effect1_dropShadow_10594_3160"/>
<feOffset dy="12"/>
<feGaussianBlur stdDeviation="24"/>
<feColorMatrix type="matrix" values="0 0 0 0 0 0 0 0 0 0.682353 0 0 0 0 0.937255 0 0 0 0.05 0"/>
<feBlend mode="normal" in2="BackgroundImageFix" result="effect1_dropShadow_10594_3160"/>
<feColorMatrix in="SourceAlpha" type="matrix" values="0 0 0 0 0 0 0 0 0 0 0 0 0 0 0 0 0 0 127 0" result="hardAlpha"/>
<feMorphology radius="6" operator="erode" in="SourceAlpha" result="effect2_dropShadow_10594_3160"/>
<feOffset dy="8"/>
<feGaussianBlur stdDeviation="9"/>
<feColorMatrix type="matrix" values="0 0 0 0 0 0 0 0 0 0.682353 0 0 0 0 0.937255 0 0 0 0.08 0"/>
<feBlend mode="normal" in2="effect1_dropShadow_10594_3160" result="effect2_dropShadow_10594_3160"/>
<feBlend mode="normal" in="SourceGraphic" in2="effect2_dropShadow_10594_3160" result="shape"/>
</filter>
</defs>
</svg>
