<svg width="152" height="152" viewBox="0 0 152 152" fill="none" xmlns="http://www.w3.org/2000/svg">
<g filter="url(#filter0_dd_10594_3152)">
<rect x="44" y="32" width="64" height="64" rx="8" fill="white"/>
<rect x="44.5" y="32.5" width="63" height="63" rx="7.5" stroke="#B3E7FB"/>
<path d="M70.8136 51.1134C70.823 50.6548 71.2409 50.2563 71.6995 50.2681C74.5667 50.2642 77.4347 50.2642 80.3026 50.2681C80.7909 50.2556 81.2183 50.7063 81.1909 51.1931C81.1659 51.6399 81.2683 52.1134 81.1019 52.5399C80.9581 52.8438 80.6331 53.0501 80.2972 53.0454C79.6605 53.0509 79.0245 53.0446 78.3878 53.047C78.3878 53.4813 78.3862 53.9157 78.3878 54.3501C77.7503 54.4009 77.1097 54.3462 76.4714 54.3774C76.13 54.397 75.9058 54.811 76.0612 55.1118C76.144 55.297 76.3425 55.4196 76.5448 55.4142C77.1581 55.4298 77.7722 55.397 78.3847 55.4298C78.3909 55.9618 78.3839 56.4946 78.3886 57.0267C77.9058 57.0712 77.419 57.0368 76.9347 57.0462C76.6581 57.0517 76.3097 56.9884 76.123 57.2478C75.8698 57.5423 76.08 58.0603 76.4706 58.0845C77.1065 58.1126 77.7448 58.0767 78.3815 58.1017C78.3909 58.6071 78.3901 59.1126 78.3847 59.6173C78.4011 59.7751 78.2026 59.7079 78.1128 59.7259C77.5675 59.7282 77.0214 59.7142 76.4769 59.7306C76.187 59.747 75.9628 60.0501 76.0198 60.3329C76.0558 60.5813 76.2933 60.7767 76.544 60.7681C77.1519 60.7751 77.7605 60.7704 78.369 60.7688C78.4034 61.0657 78.3745 61.3665 78.4245 61.6626C78.4917 62.1407 78.6894 62.5962 78.9745 62.9845C79.5042 63.6954 80.0565 64.3899 80.5815 65.1048C80.4105 65.1782 80.2237 65.1931 80.0433 65.2313C79.3347 65.3923 78.6815 65.7454 78.1128 66.1923C77.6378 66.5853 77.1737 67.029 76.5706 67.2142C76.0722 67.3829 75.5159 67.3056 75.0565 67.0603C74.548 66.8103 74.1636 66.3821 73.7034 66.061C73.2214 65.7212 72.6886 65.4478 72.1214 65.2798C71.8917 65.2079 71.648 65.1884 71.423 65.1017C71.948 64.3868 72.5003 63.6923 73.0292 62.9806C73.505 62.3603 73.6573 61.561 73.6136 60.7938C73.6128 58.2118 73.6144 55.6298 73.6128 53.047C72.9753 53.0438 72.3386 53.0517 71.7011 53.0446C71.2417 53.0563 70.8222 52.6579 70.8136 52.1978C70.8026 51.836 70.8034 51.4743 70.8136 51.1134Z" fill="#00AEEF"/>
<path d="M70.2899 66.7161C70.393 66.588 70.4766 66.438 70.6071 66.3349C71.6485 66.174 72.6618 66.6724 73.4407 67.3271C74.0227 67.8302 74.679 68.2943 75.4493 68.4404C76.2501 68.6099 77.0883 68.3732 77.7641 67.9341C78.3032 67.6036 78.7243 67.1138 79.2758 66.8013C79.9173 66.406 80.6962 66.2247 81.4415 66.3677C83.1235 68.5622 84.7962 70.7638 86.4758 72.9607C86.7141 73.2646 86.9016 73.6138 86.9821 73.9943C87.0883 74.5568 87.0227 75.1333 87.0407 75.7021C87.0227 76.1372 87.1048 76.5982 86.9235 77.0091C86.7079 77.5232 86.1719 77.8849 85.6133 77.8763C79.2055 77.8779 72.7977 77.8771 66.3899 77.8771C65.8508 77.8849 65.3313 77.5521 65.1024 77.0669C64.8798 76.62 64.9821 76.1068 64.9594 75.6279C64.9844 74.9685 64.8727 74.2779 65.1219 73.6482C65.254 73.2919 65.4962 72.995 65.7258 72.6982C67.2469 70.7036 68.7688 68.7107 70.2899 66.7161ZM71.3438 69.8154C70.8587 69.9935 70.511 70.5044 70.5571 71.0247C70.5868 71.67 71.2126 72.2138 71.8579 72.1419C72.5485 72.0997 73.0962 71.3771 72.9329 70.6997C72.8048 70.0075 72.0032 69.5474 71.3438 69.8154ZM76.9594 70.7341C76.1258 70.8271 75.4313 71.5779 75.4071 72.4169C75.368 73.0411 75.6891 73.6685 76.2149 74.0052C76.7188 74.3411 77.3977 74.3904 77.9454 74.131C78.4915 73.8825 78.893 73.3411 78.9665 72.7443C79.0446 72.1943 78.8446 71.6161 78.4462 71.2302C78.0618 70.8474 77.4969 70.6607 76.9594 70.7341ZM81.8891 72.7857C81.361 72.9482 80.9837 73.5029 81.0524 74.056C81.1048 74.6779 81.7079 75.1904 82.3313 75.1318C83.0055 75.1005 83.5579 74.42 83.4368 73.7529C83.3469 73.0521 82.5618 72.5497 81.8891 72.7857ZM68.686 73.4021C68.0985 73.506 67.6415 74.0919 67.7079 74.6888C67.7508 75.3435 68.4063 75.8786 69.0579 75.7779C69.6829 75.7091 70.1829 75.0872 70.1008 74.4599C70.0454 73.788 69.3493 73.2607 68.686 73.4021Z" fill="#00AEEF"/>
</g>
<defs>
<filter id="filter0_dd_10594_3152" x="0" y="0" width="152" height="152" filterUnits="userSpaceOnUse" color-interpolation-filters="sRGB">
<feFlood flood-opacity="0" result="BackgroundImageFix"/>
<feColorMatrix in="SourceAlpha" type="matrix" values="0 0 0 0 0 0 0 0 0 0 0 0 0 0 0 0 0 0 127 0" result="hardAlpha"/>
<feMorphology radius="4" operator="erode" in="SourceAlpha" result="effect1_dropShadow_10594_3152"/>
<feOffset dy="12"/>
<feGaussianBlur stdDeviation="24"/>
<feColorMatrix type="matrix" values="0 0 0 0 0 0 0 0 0 0.682353 0 0 0 0 0.937255 0 0 0 0.05 0"/>
<feBlend mode="normal" in2="BackgroundImageFix" result="effect1_dropShadow_10594_3152"/>
<feColorMatrix in="SourceAlpha" type="matrix" values="0 0 0 0 0 0 0 0 0 0 0 0 0 0 0 0 0 0 127 0" result="hardAlpha"/>
<feMorphology radius="6" operator="erode" in="SourceAlpha" result="effect2_dropShadow_10594_3152"/>
<feOffset dy="8"/>
<feGaussianBlur stdDeviation="9"/>
<feColorMatrix type="matrix" values="0 0 0 0 0 0 0 0 0 0.682353 0 0 0 0 0.937255 0 0 0 0.08 0"/>
<feBlend mode="normal" in2="effect1_dropShadow_10594_3152" result="effect2_dropShadow_10594_3152"/>
<feBlend mode="normal" in="SourceGraphic" in2="effect2_dropShadow_10594_3152" result="shape"/>
</filter>
</defs>
</svg>
