<svg width="152" height="152" viewBox="0 0 152 152" fill="none" xmlns="http://www.w3.org/2000/svg">
<g filter="url(#filter0_dd_10594_3145)">
<rect x="44" y="32" width="64" height="64" rx="8" fill="white"/>
<rect x="44.5" y="32.5" width="63" height="63" rx="7.5" stroke="#B3E7FB"/>
<path d="M72.6701 48.1078C75.1888 47.9734 77.7466 48.5656 79.9357 49.8242C82.3693 51.2031 84.3435 53.3742 85.4865 55.9273C86.5677 58.3172 86.9029 61.0312 86.4599 63.6148C86.0959 65.7726 85.1802 67.8328 83.8287 69.5539C82.4146 71.3633 80.5232 72.7961 78.3982 73.6656C76.2404 74.5539 73.8459 74.843 71.5365 74.5242C68.8302 74.1531 66.2521 72.918 64.2677 71.0406C62.3951 69.2828 61.0466 66.9711 60.4537 64.4703C59.8193 61.8226 60.0162 58.9781 61.031 56.45C62.0154 53.9664 63.7771 51.8023 65.999 50.3211C67.9685 49 70.3013 48.2273 72.6701 48.1078ZM72.9771 49.8062C72.8138 49.9711 72.8638 50.2211 72.817 50.4289C72.7365 50.5117 72.5881 50.4719 72.4826 50.4992C69.9076 50.6906 67.424 51.8555 65.6146 53.6953C63.967 55.3492 62.8771 57.5476 62.5631 59.8617C62.5146 60.1703 62.5123 60.4836 62.4599 60.7914C62.2763 60.8898 62.0224 60.8 61.849 60.9422C61.5959 61.118 61.5615 61.518 61.7795 61.7351C61.9513 61.9305 62.231 61.8914 62.4631 61.9148C62.5107 62.432 62.556 62.9515 62.6607 63.4617C63.1248 65.8922 64.4576 68.1414 66.356 69.7273C68.1584 71.2531 70.4677 72.1476 72.8232 72.2726C72.8474 72.5023 72.8091 72.7758 72.9943 72.9508C73.1951 73.1617 73.5693 73.1547 73.7607 72.9336C73.9302 72.7594 73.8896 72.4961 73.9162 72.275C74.5123 72.2242 75.1099 72.1633 75.6943 72.0305C78.1224 71.5117 80.3474 70.1219 81.8927 68.1805C83.3216 66.4109 84.1482 64.1836 84.2748 61.9156C84.4951 61.889 84.7568 61.9312 84.9318 61.7625C85.1552 61.5711 85.1631 61.1937 84.9482 60.993C84.7756 60.8039 84.499 60.8719 84.2771 60.8047C84.2216 60.357 84.1998 59.9047 84.1123 59.4617C83.6685 56.8969 82.2591 54.5195 80.2334 52.8883C78.4545 51.4344 76.2068 50.5898 73.9162 50.4648C73.8904 50.2476 73.9295 49.9937 73.7716 49.818C73.5779 49.5797 73.1771 49.5734 72.9771 49.8062Z" fill="#00AEEF"/>
<path d="M66.4877 54.3273C68.1674 52.6695 70.4627 51.6632 72.8182 51.5359C72.8486 51.7515 72.8166 52.0062 72.9807 52.1757C73.1822 52.4062 73.5807 52.3984 73.7729 52.1593C73.9252 51.9937 73.89 51.7523 73.9135 51.546C76.2807 51.646 78.583 52.6804 80.2674 54.3406C82.0072 56.0359 83.076 58.3945 83.2041 60.8203C82.9775 60.8476 82.7049 60.8156 82.5393 61.0054C82.3432 61.2023 82.3486 61.5539 82.5502 61.7453C82.7158 61.925 82.9807 61.8898 83.201 61.9179C83.0768 64.4054 81.951 66.8195 80.1377 68.5234C78.4682 70.114 76.2221 71.0851 73.9182 71.1992C73.8908 70.9781 73.9252 70.7125 73.7424 70.5476C73.551 70.3484 73.2018 70.3437 73.0057 70.539C72.8158 70.7046 72.8479 70.9781 72.8197 71.2046C70.5041 71.0796 68.2494 70.1031 66.576 68.4976C64.7791 66.7953 63.6549 64.3914 63.5439 61.9148C63.7518 61.889 63.9963 61.9257 64.1627 61.7703C64.3822 61.589 64.4072 61.2281 64.2135 61.0195C64.0502 60.8171 63.7674 60.8484 63.5361 60.8164C63.6658 58.3851 64.7377 56.021 66.4877 54.3273ZM67.5791 55.7312C69.1135 57.2968 70.6729 58.8375 72.2244 60.3859C72.4908 60.3531 72.758 60.3273 73.0268 60.3273C74.108 60.3273 75.1893 60.3296 76.2705 60.3265C76.4307 58.7335 75.79 57.0968 74.6275 56.0031C73.6049 55.0257 72.1822 54.482 70.7682 54.5429C69.6119 54.5765 68.4783 55.0062 67.5791 55.7312ZM65.9525 61.7828C66.4361 63.0515 67.4119 64.1468 68.658 64.7023C68.6822 64.2031 68.7346 63.6992 68.9064 63.2265C69.2619 62.1671 70.0596 61.2882 71.0439 60.7718C70.9096 60.6156 70.7689 60.4648 70.6213 60.3195C69.3393 59.0578 68.0885 57.7648 66.7955 56.5148C65.6104 57.9601 65.2713 60.0406 65.9525 61.7828ZM71.8135 61.6304C70.6799 62.0562 69.8455 63.1718 69.7697 64.382C69.6971 65.2789 70.0338 66.1937 70.6604 66.8367C71.2518 67.4546 72.0971 67.8187 72.9525 67.821C73.576 67.8234 74.1994 67.8281 74.8221 67.8164C74.8354 65.6828 74.8361 63.5492 74.8213 61.4156C74.251 61.4078 73.6814 61.4125 73.1111 61.4109C72.6697 61.407 72.2244 61.4632 71.8135 61.6304ZM75.9252 61.4156C75.9104 63.5492 75.908 65.6843 75.926 67.8179C76.551 67.8265 77.176 67.825 77.801 67.821C78.4705 67.8156 79.1369 67.5968 79.6744 67.196C80.4604 66.6242 80.9635 65.6804 80.9838 64.7078C81.0119 63.8812 80.6963 63.0531 80.1338 62.4484C79.5572 61.8195 78.7236 61.4328 77.8697 61.4164C77.2213 61.4054 76.5729 61.4101 75.9252 61.4156Z" fill="#00AEEF"/>
<path d="M83.9818 70.9329C84.5279 71.4563 85.0568 71.9977 85.5904 72.5336C85.2498 72.8969 84.8982 73.25 84.5342 73.5899C83.9982 73.0563 83.4553 72.5282 82.9326 71.9813C83.2928 71.6422 83.6404 71.2907 83.9818 70.9329Z" fill="#00AEEF"/>
<path d="M86.8912 72.8672C87.1763 72.7836 87.3779 73.0445 87.5568 73.2187C88.9349 74.6031 90.3177 75.9812 91.6998 77.3617C91.7998 77.4695 91.9154 77.5914 91.9107 77.75C91.9248 77.9539 91.7584 78.0976 91.631 78.2312C91.1021 78.7445 90.5943 79.2789 90.0623 79.7883C89.8779 79.9789 89.5615 79.932 89.4013 79.7351C87.9412 78.2758 86.481 76.8156 85.0217 75.3554C84.8295 75.1929 84.7888 74.8789 84.9802 74.6992C85.4795 74.182 86.0006 73.6851 86.5013 73.1687C86.6201 73.0562 86.7302 72.9187 86.8912 72.8672Z" fill="#00AEEF"/>
</g>
<defs>
<filter id="filter0_dd_10594_3145" x="0" y="0" width="152" height="152" filterUnits="userSpaceOnUse" color-interpolation-filters="sRGB">
<feFlood flood-opacity="0" result="BackgroundImageFix"/>
<feColorMatrix in="SourceAlpha" type="matrix" values="0 0 0 0 0 0 0 0 0 0 0 0 0 0 0 0 0 0 127 0" result="hardAlpha"/>
<feMorphology radius="4" operator="erode" in="SourceAlpha" result="effect1_dropShadow_10594_3145"/>
<feOffset dy="12"/>
<feGaussianBlur stdDeviation="24"/>
<feColorMatrix type="matrix" values="0 0 0 0 0 0 0 0 0 0.682353 0 0 0 0 0.937255 0 0 0 0.05 0"/>
<feBlend mode="normal" in2="BackgroundImageFix" result="effect1_dropShadow_10594_3145"/>
<feColorMatrix in="SourceAlpha" type="matrix" values="0 0 0 0 0 0 0 0 0 0 0 0 0 0 0 0 0 0 127 0" result="hardAlpha"/>
<feMorphology radius="6" operator="erode" in="SourceAlpha" result="effect2_dropShadow_10594_3145"/>
<feOffset dy="8"/>
<feGaussianBlur stdDeviation="9"/>
<feColorMatrix type="matrix" values="0 0 0 0 0 0 0 0 0 0.682353 0 0 0 0 0.937255 0 0 0 0.08 0"/>
<feBlend mode="normal" in2="effect1_dropShadow_10594_3145" result="effect2_dropShadow_10594_3145"/>
<feBlend mode="normal" in="SourceGraphic" in2="effect2_dropShadow_10594_3145" result="shape"/>
</filter>
</defs>
</svg>
