<svg width="152" height="152" viewBox="0 0 152 152" fill="none" xmlns="http://www.w3.org/2000/svg">
<g filter="url(#filter0_dd_10594_3177)">
<rect x="44" y="32" width="64" height="64" rx="8" fill="white"/>
<rect x="44.5" y="32.5" width="63" height="63" rx="7.5" stroke="#B3E7FB"/>
<path d="M85.2602 46.7844C86.3673 46.5696 87.5501 46.7665 88.5227 47.3399C89.5931 47.9743 90.4204 49.0297 90.722 50.243C91.1204 51.743 90.686 53.4399 89.5821 54.5376C87.4876 56.636 85.3892 58.7313 83.2931 60.829C82.8884 61.2297 82.4993 61.6579 82.0079 61.9571C81.0063 62.6047 79.7493 62.8391 78.5806 62.6047C77.5649 62.4079 76.6181 61.8641 75.9454 61.0774C75.1751 60.1907 74.7712 59.0008 74.8251 57.829C74.8704 56.6743 75.3595 55.5407 76.1821 54.7274C78.3165 52.5915 80.4524 50.4579 82.5868 48.3219C83.2876 47.543 84.2251 46.9774 85.2602 46.7844ZM79.9392 52.7297C79.0962 53.5727 78.2517 54.4133 77.4095 55.2571C77.054 55.6071 76.6884 55.9602 76.4493 56.4032C75.879 57.3954 75.8649 58.6727 76.4001 59.6821C76.8712 60.6055 77.7806 61.2883 78.8009 61.4766C79.911 61.7001 81.1259 61.3571 81.9298 60.5524C82.9048 59.5829 83.8774 58.6102 84.847 57.636C83.211 56 81.5774 54.3626 79.9392 52.7297Z" fill="#00AEEF"/>
<path d="M65.4107 52.014C67.7685 51.9805 70.1294 52.0109 72.488 51.9992C72.8114 51.9625 73.1364 52.193 73.1997 52.5125C73.2216 52.6953 73.2114 52.8789 73.2122 53.0625C73.2107 56.0055 73.2146 58.9492 73.2107 61.8922C73.1849 62.1008 73.338 62.2625 73.4278 62.4351C75.795 66.5234 78.1591 70.6133 80.5255 74.7023C80.8294 75.2422 81.1888 75.7633 81.3474 76.3711C81.7138 77.618 81.3669 79.0273 80.5052 79.9922C79.7786 80.8359 78.6794 81.3437 77.5638 81.3328C72.0443 81.3344 66.5247 81.3328 61.0044 81.3336C60.5841 81.3328 60.1583 81.3476 59.7435 81.2609C58.3122 80.9945 57.1013 79.8515 56.7075 78.4562C56.4341 77.507 56.5622 76.4508 57.0552 75.5945C58.7935 72.5969 60.5333 69.6 62.2732 66.6023C63.145 65.0836 64.0458 63.5789 64.9005 62.0515C64.92 58.9234 64.9028 55.7937 64.9091 52.6656C64.8896 52.3648 65.1208 52.0781 65.4107 52.014ZM66.1216 53.214C66.12 56.2109 66.1208 59.207 66.1208 62.2039C66.1505 62.4719 65.9724 62.6875 65.8482 62.9062C64.5864 65.0484 63.3224 67.189 62.0622 69.3328C66.7075 69.3344 71.3528 69.3336 75.9989 69.3328C74.6943 67.0594 73.3849 64.7898 72.0794 62.5164C72.006 62.4 71.9982 62.2609 71.9989 62.1273C71.9997 59.1562 71.9997 56.1851 71.9989 53.214C70.0403 53.2133 68.081 53.2133 66.1216 53.214Z" fill="#00AEEF"/>
<path d="M90.1597 56.7648C91.18 56.6523 92.2347 56.8875 93.1097 57.4257C94.1925 58.082 95.0175 59.1703 95.294 60.4117C95.6448 61.8734 95.2112 63.5023 94.1518 64.5742C91.8878 66.8414 89.6214 69.1062 87.355 71.3711C86.5683 72.1687 85.487 72.6671 84.369 72.7414C83.0331 72.8437 81.6628 72.339 80.7206 71.3859C79.8651 70.5382 79.3761 69.3429 79.3667 68.1414C79.3487 66.9086 79.8386 65.6742 80.7128 64.8023C82.9651 62.5492 85.2167 60.2968 87.4698 58.046C88.1854 57.3273 89.1526 56.8757 90.1597 56.7648ZM88.9995 58.4046C88.6354 58.5976 88.3276 58.8757 88.0425 59.1695C87.1401 60.0726 86.2362 60.9742 85.3347 61.8773C86.9683 63.5164 88.6065 65.15 90.2425 66.7867C91.1714 65.8601 92.0979 64.9312 93.0261 64.0039C93.2643 63.7687 93.4956 63.5234 93.6722 63.2375C94.1847 62.4296 94.33 61.4007 94.0612 60.4828C93.8042 59.5601 93.1284 58.7765 92.2792 58.3429C91.2628 57.8281 89.9956 57.8507 88.9995 58.4046Z" fill="#00AEEF"/>
<path d="M69.9298 57.3181C70.1853 57.2212 70.5205 57.2775 70.6806 57.5142C70.7955 57.672 70.7861 57.8759 70.7892 58.0618C70.7853 58.8954 70.7877 59.729 70.7884 60.5626C70.7892 60.7407 70.772 60.9368 70.6463 61.0759C70.4134 61.3446 69.9455 61.3329 69.7213 61.0587C69.5947 60.9251 69.572 60.7337 69.5744 60.5587C69.5767 59.6751 69.5728 58.7915 69.5759 57.9079C69.5619 57.6634 69.69 57.404 69.9298 57.3181Z" fill="#00AEEF"/>
<path d="M67.51 64.1921C67.8553 64.0015 68.3803 64.1953 68.4131 64.6171C68.4404 65.4781 68.4146 66.3406 68.4256 67.2023C68.4186 67.4281 68.4553 67.6796 68.3186 67.8773C68.0928 68.2085 67.5217 68.2015 67.3061 67.8625C67.1951 67.6906 67.2139 67.4773 67.21 67.2828C67.2162 66.425 67.2061 65.5671 67.2146 64.7093C67.2131 64.5007 67.3193 64.2867 67.51 64.1921Z" fill="#00AEEF"/>
</g>
<defs>
<filter id="filter0_dd_10594_3177" x="0" y="0" width="152" height="152" filterUnits="userSpaceOnUse" color-interpolation-filters="sRGB">
<feFlood flood-opacity="0" result="BackgroundImageFix"/>
<feColorMatrix in="SourceAlpha" type="matrix" values="0 0 0 0 0 0 0 0 0 0 0 0 0 0 0 0 0 0 127 0" result="hardAlpha"/>
<feMorphology radius="4" operator="erode" in="SourceAlpha" result="effect1_dropShadow_10594_3177"/>
<feOffset dy="12"/>
<feGaussianBlur stdDeviation="24"/>
<feColorMatrix type="matrix" values="0 0 0 0 0 0 0 0 0 0.682353 0 0 0 0 0.937255 0 0 0 0.05 0"/>
<feBlend mode="normal" in2="BackgroundImageFix" result="effect1_dropShadow_10594_3177"/>
<feColorMatrix in="SourceAlpha" type="matrix" values="0 0 0 0 0 0 0 0 0 0 0 0 0 0 0 0 0 0 127 0" result="hardAlpha"/>
<feMorphology radius="6" operator="erode" in="SourceAlpha" result="effect2_dropShadow_10594_3177"/>
<feOffset dy="8"/>
<feGaussianBlur stdDeviation="9"/>
<feColorMatrix type="matrix" values="0 0 0 0 0 0 0 0 0 0.682353 0 0 0 0 0.937255 0 0 0 0.08 0"/>
<feBlend mode="normal" in2="effect1_dropShadow_10594_3177" result="effect2_dropShadow_10594_3177"/>
<feBlend mode="normal" in="SourceGraphic" in2="effect2_dropShadow_10594_3177" result="shape"/>
</filter>
</defs>
</svg>
