<svg width="1440" height="873" viewBox="0 0 1440 873" fill="none" xmlns="http://www.w3.org/2000/svg">
<path opacity="0.8" d="M797 615.5H820C821 615.5 823.9 614.7 827.5 611.5C831.1 608.3 857.667 581.167 870.5 568C873.167 565.667 879.7 561 884.5 561H926C928 561.167 933.3 560.4 938.5 556C943.7 551.6 998.333 496.5 1025 469.5C1027.33 466.833 1032 460.4 1032 456V416C1032 413.667 1032.9 408.1 1036.5 404.5C1040.1 400.9 1340.17 100.167 1429.5 10.5M721.5 615.5H1014C1016.17 616 1021.2 617.7 1024 620.5L1060 656.5C1062.33 658.5 1068.3 662.5 1073.5 662.5H1182C1184 662.667 1189.6 664.6 1196 671C1202.4 677.4 1362.33 837 1392 866.5M927 615.5H944.5C945.5 615.667 948.6 615 953 611C957.4 607 1068.17 495.667 1123 440.5C1125.17 438.167 1130.7 433.5 1135.5 433.5C1140.3 433.5 1161.17 432.833 1171 432.5C1172.33 432 1175.8 430.3 1179 427.5C1182.2 424.7 1413.5 194.833 1450 159M722.5 615.5H1015C1017.17 615 1022.2 613.3 1025 610.5L1061 574.5C1063.33 572.5 1069.3 568.5 1074.5 568.5H1183C1185 568.333 1190.6 566.4 1197 560C1203.4 553.6 1421.33 336 1451 306.5M642.5 615.5H619.5C618.5 615.5 615.6 614.7 612 611.5C608.4 608.3 581.833 581.167 569 568C566.333 565.667 559.8 561 555 561H513.5C511.5 561.167 506.2 560.4 501 556C495.8 551.6 441.167 496.5 414.5 469.5C412.167 466.833 407.5 460.4 407.5 456V416C407.5 413.667 406.6 408.1 403 404.5C399.4 400.9 89.8333 90.6667 0.5 1M718 615.5H425.5C423.333 616 418.3 617.7 415.5 620.5L379.5 656.5C377.167 658.5 371.2 662.5 366 662.5H257.5C255.5 662.667 249.9 664.6 243.5 671C237.1 677.4 71.1667 843 41.5 872.5M512.5 615.5H495C494 615.667 490.9 615 486.5 611C482.1 607 371.333 495.667 316.5 440.5C314.333 438.167 308.8 433.5 304 433.5C299.2 433.5 278.333 432.833 268.5 432.5C267.167 432 263.7 430.3 260.5 427.5C257.3 424.7 19 187.833 -17.5 152M717 615.5H424.5C422.333 615 417.3 613.3 414.5 610.5L378.5 574.5C376.167 572.5 370.2 568.5 365 568.5H256.5C254.5 568.333 248.9 566.4 242.5 560C236.1 553.6 -2.33331 315.5 -32 286" stroke="url(#paint0_radial_10779_1549)"/>
<defs>
<radialGradient id="paint0_radial_10779_1549" cx="0" cy="0" r="1" gradientUnits="userSpaceOnUse" gradientTransform="translate(709.5 611) rotate(90) scale(863.5 741)">
<stop stop-color="#00AEEF"/>
<stop offset="1" stop-color="#00AEEF" stop-opacity="0"/>
</radialGradient>
</defs>
</svg>
