<svg width="1331" height="152" viewBox="0 0 1331 152" fill="none" xmlns="http://www.w3.org/2000/svg">
<g filter="url(#filter0_dd_10598_3187)">
<rect x="44" y="32" width="64" height="64" rx="8" fill="white"/>
<rect x="44.5" y="32.5" width="63" height="63" rx="7.5" stroke="#B3E7FB"/>
<path d="M70.8136 51.1134C70.823 50.6548 71.2409 50.2563 71.6995 50.2681C74.5667 50.2642 77.4347 50.2642 80.3026 50.2681C80.7909 50.2556 81.2183 50.7063 81.1909 51.1931C81.1659 51.6399 81.2683 52.1134 81.1019 52.5399C80.9581 52.8438 80.6331 53.0501 80.2972 53.0454C79.6605 53.0509 79.0245 53.0446 78.3878 53.047C78.3878 53.4813 78.3862 53.9157 78.3878 54.3501C77.7503 54.4009 77.1097 54.3462 76.4714 54.3774C76.13 54.397 75.9058 54.811 76.0612 55.1118C76.144 55.297 76.3425 55.4196 76.5448 55.4142C77.1581 55.4298 77.7722 55.397 78.3847 55.4298C78.3909 55.9618 78.3839 56.4946 78.3886 57.0267C77.9058 57.0712 77.419 57.0368 76.9347 57.0462C76.6581 57.0517 76.3097 56.9884 76.123 57.2478C75.8698 57.5423 76.08 58.0603 76.4706 58.0845C77.1065 58.1126 77.7448 58.0767 78.3815 58.1017C78.3909 58.6071 78.3901 59.1126 78.3847 59.6173C78.4011 59.7751 78.2026 59.7079 78.1128 59.7259C77.5675 59.7282 77.0214 59.7142 76.4769 59.7306C76.187 59.747 75.9628 60.0501 76.0198 60.3329C76.0558 60.5813 76.2933 60.7767 76.544 60.7681C77.1519 60.7751 77.7605 60.7704 78.369 60.7688C78.4034 61.0657 78.3745 61.3665 78.4245 61.6626C78.4917 62.1407 78.6894 62.5962 78.9745 62.9845C79.5042 63.6954 80.0565 64.3899 80.5815 65.1048C80.4105 65.1782 80.2237 65.1931 80.0433 65.2313C79.3347 65.3923 78.6815 65.7454 78.1128 66.1923C77.6378 66.5853 77.1737 67.029 76.5706 67.2142C76.0722 67.3829 75.5159 67.3056 75.0565 67.0603C74.548 66.8103 74.1636 66.3821 73.7034 66.061C73.2214 65.7212 72.6886 65.4478 72.1214 65.2798C71.8917 65.2079 71.648 65.1884 71.423 65.1017C71.948 64.3868 72.5003 63.6923 73.0292 62.9806C73.505 62.3603 73.6573 61.561 73.6136 60.7938C73.6128 58.2118 73.6144 55.6298 73.6128 53.047C72.9753 53.0438 72.3386 53.0517 71.7011 53.0446C71.2417 53.0563 70.8222 52.6579 70.8136 52.1978C70.8026 51.836 70.8034 51.4743 70.8136 51.1134Z" fill="#00AEEF"/>
<path d="M70.2899 66.7161C70.393 66.588 70.4766 66.438 70.6071 66.3349C71.6485 66.174 72.6618 66.6724 73.4407 67.3271C74.0227 67.8302 74.679 68.2943 75.4493 68.4404C76.2501 68.6099 77.0883 68.3732 77.7641 67.9341C78.3032 67.6036 78.7243 67.1138 79.2758 66.8013C79.9173 66.406 80.6962 66.2247 81.4415 66.3677C83.1235 68.5622 84.7962 70.7638 86.4758 72.9607C86.7141 73.2646 86.9016 73.6138 86.9821 73.9943C87.0883 74.5568 87.0227 75.1333 87.0407 75.7021C87.0227 76.1372 87.1048 76.5982 86.9235 77.0091C86.7079 77.5232 86.1719 77.8849 85.6133 77.8763C79.2055 77.8779 72.7977 77.8771 66.3899 77.8771C65.8508 77.8849 65.3313 77.5521 65.1024 77.0669C64.8798 76.62 64.9821 76.1068 64.9594 75.6279C64.9844 74.9685 64.8727 74.2779 65.1219 73.6482C65.254 73.2919 65.4962 72.995 65.7258 72.6982C67.2469 70.7036 68.7688 68.7107 70.2899 66.7161ZM71.3438 69.8154C70.8587 69.9935 70.511 70.5044 70.5571 71.0247C70.5868 71.67 71.2126 72.2138 71.8579 72.1419C72.5485 72.0997 73.0962 71.3771 72.9329 70.6997C72.8048 70.0075 72.0032 69.5474 71.3438 69.8154ZM76.9594 70.7341C76.1258 70.8271 75.4313 71.5779 75.4071 72.4169C75.368 73.0411 75.6891 73.6685 76.2149 74.0052C76.7188 74.3411 77.3977 74.3904 77.9454 74.131C78.4915 73.8825 78.893 73.3411 78.9665 72.7443C79.0446 72.1943 78.8446 71.6161 78.4462 71.2302C78.0618 70.8474 77.4969 70.6607 76.9594 70.7341ZM81.8891 72.7857C81.361 72.9482 80.9837 73.5029 81.0524 74.056C81.1048 74.6779 81.7079 75.1904 82.3313 75.1318C83.0055 75.1005 83.5579 74.42 83.4368 73.7529C83.3469 73.0521 82.5618 72.5497 81.8891 72.7857ZM68.686 73.4021C68.0985 73.506 67.6415 74.0919 67.7079 74.6888C67.7508 75.3435 68.4063 75.8786 69.0579 75.7779C69.6829 75.7091 70.1829 75.0872 70.1008 74.4599C70.0454 73.788 69.3493 73.2607 68.686 73.4021Z" fill="#00AEEF"/>
</g>
<g filter="url(#filter1_dd_10598_3187)">
<rect x="1223" y="32" width="64" height="64" rx="8" fill="white"/>
<rect x="1223.5" y="32.5" width="63" height="63" rx="7.5" stroke="#B3E7FB"/>
<path d="M1251.67 48.1078C1254.19 47.9734 1256.75 48.5656 1258.94 49.8242C1261.37 51.2031 1263.34 53.3742 1264.49 55.9273C1265.57 58.3172 1265.9 61.0312 1265.46 63.6148C1265.1 65.7726 1264.18 67.8328 1262.83 69.5539C1261.41 71.3633 1259.52 72.7961 1257.4 73.6656C1255.24 74.5539 1252.85 74.843 1250.54 74.5242C1247.83 74.1531 1245.25 72.918 1243.27 71.0406C1241.4 69.2828 1240.05 66.9711 1239.45 64.4703C1238.82 61.8226 1239.02 58.9781 1240.03 56.45C1241.02 53.9664 1242.78 51.8023 1245 50.3211C1246.97 49 1249.3 48.2273 1251.67 48.1078ZM1251.98 49.8062C1251.81 49.9711 1251.86 50.2211 1251.82 50.4289C1251.74 50.5117 1251.59 50.4719 1251.48 50.4992C1248.91 50.6906 1246.42 51.8555 1244.61 53.6953C1242.97 55.3492 1241.88 57.5476 1241.56 59.8617C1241.51 60.1703 1241.51 60.4836 1241.46 60.7914C1241.28 60.8898 1241.02 60.8 1240.85 60.9422C1240.6 61.118 1240.56 61.518 1240.78 61.7351C1240.95 61.9305 1241.23 61.8914 1241.46 61.9148C1241.51 62.432 1241.56 62.9515 1241.66 63.4617C1242.12 65.8922 1243.46 68.1414 1245.36 69.7273C1247.16 71.2531 1249.47 72.1476 1251.82 72.2726C1251.85 72.5023 1251.81 72.7758 1251.99 72.9508C1252.2 73.1617 1252.57 73.1547 1252.76 72.9336C1252.93 72.7594 1252.89 72.4961 1252.92 72.275C1253.51 72.2242 1254.11 72.1633 1254.69 72.0305C1257.12 71.5117 1259.35 70.1219 1260.89 68.1805C1262.32 66.4109 1263.15 64.1836 1263.27 61.9156C1263.5 61.889 1263.76 61.9312 1263.93 61.7625C1264.16 61.5711 1264.16 61.1937 1263.95 60.993C1263.78 60.8039 1263.5 60.8719 1263.28 60.8047C1263.22 60.357 1263.2 59.9047 1263.11 59.4617C1262.67 56.8969 1261.26 54.5195 1259.23 52.8883C1257.45 51.4344 1255.21 50.5898 1252.92 50.4648C1252.89 50.2476 1252.93 49.9937 1252.77 49.818C1252.58 49.5797 1252.18 49.5734 1251.98 49.8062Z" fill="#00AEEF"/>
<path d="M1245.49 54.3273C1247.17 52.6695 1249.46 51.6632 1251.82 51.5359C1251.85 51.7515 1251.82 52.0062 1251.98 52.1757C1252.18 52.4062 1252.58 52.3984 1252.77 52.1593C1252.93 51.9937 1252.89 51.7523 1252.91 51.546C1255.28 51.646 1257.58 52.6804 1259.27 54.3406C1261.01 56.0359 1262.08 58.3945 1262.2 60.8203C1261.98 60.8476 1261.7 60.8156 1261.54 61.0054C1261.34 61.2023 1261.35 61.5539 1261.55 61.7453C1261.72 61.925 1261.98 61.8898 1262.2 61.9179C1262.08 64.4054 1260.95 66.8195 1259.14 68.5234C1257.47 70.114 1255.22 71.0851 1252.92 71.1992C1252.89 70.9781 1252.93 70.7125 1252.74 70.5476C1252.55 70.3484 1252.2 70.3437 1252.01 70.539C1251.82 70.7046 1251.85 70.9781 1251.82 71.2046C1249.5 71.0796 1247.25 70.1031 1245.58 68.4976C1243.78 66.7953 1242.65 64.3914 1242.54 61.9148C1242.75 61.889 1243 61.9257 1243.16 61.7703C1243.38 61.589 1243.41 61.2281 1243.21 61.0195C1243.05 60.8171 1242.77 60.8484 1242.54 60.8164C1242.67 58.3851 1243.74 56.021 1245.49 54.3273ZM1246.58 55.7312C1248.11 57.2968 1249.67 58.8375 1251.22 60.3859C1251.49 60.3531 1251.76 60.3273 1252.03 60.3273C1253.11 60.3273 1254.19 60.3296 1255.27 60.3265C1255.43 58.7335 1254.79 57.0968 1253.63 56.0031C1252.6 55.0257 1251.18 54.482 1249.77 54.5429C1248.61 54.5765 1247.48 55.0062 1246.58 55.7312ZM1244.95 61.7828C1245.44 63.0515 1246.41 64.1468 1247.66 64.7023C1247.68 64.2031 1247.73 63.6992 1247.91 63.2265C1248.26 62.1671 1249.06 61.2882 1250.04 60.7718C1249.91 60.6156 1249.77 60.4648 1249.62 60.3195C1248.34 59.0578 1247.09 57.7648 1245.8 56.5148C1244.61 57.9601 1244.27 60.0406 1244.95 61.7828ZM1250.81 61.6304C1249.68 62.0562 1248.85 63.1718 1248.77 64.382C1248.7 65.2789 1249.03 66.1937 1249.66 66.8367C1250.25 67.4546 1251.1 67.8187 1251.95 67.821C1252.58 67.8234 1253.2 67.8281 1253.82 67.8164C1253.84 65.6828 1253.84 63.5492 1253.82 61.4156C1253.25 61.4078 1252.68 61.4125 1252.11 61.4109C1251.67 61.407 1251.22 61.4632 1250.81 61.6304ZM1254.93 61.4156C1254.91 63.5492 1254.91 65.6843 1254.93 67.8179C1255.55 67.8265 1256.18 67.825 1256.8 67.821C1257.47 67.8156 1258.14 67.5968 1258.67 67.196C1259.46 66.6242 1259.96 65.6804 1259.98 64.7078C1260.01 63.8812 1259.7 63.0531 1259.13 62.4484C1258.56 61.8195 1257.72 61.4328 1256.87 61.4164C1256.22 61.4054 1255.57 61.4101 1254.93 61.4156Z" fill="#00AEEF"/>
<path d="M1262.98 70.9329C1263.53 71.4563 1264.06 71.9977 1264.59 72.5336C1264.25 72.8969 1263.9 73.25 1263.53 73.5899C1263 73.0563 1262.46 72.5282 1261.93 71.9813C1262.29 71.6422 1262.64 71.2907 1262.98 70.9329Z" fill="#00AEEF"/>
<path d="M1265.89 72.8672C1266.18 72.7836 1266.38 73.0445 1266.56 73.2187C1267.93 74.6031 1269.32 75.9812 1270.7 77.3617C1270.8 77.4695 1270.92 77.5914 1270.91 77.75C1270.92 77.9539 1270.76 78.0976 1270.63 78.2312C1270.1 78.7445 1269.59 79.2789 1269.06 79.7883C1268.88 79.9789 1268.56 79.932 1268.4 79.7351C1266.94 78.2758 1265.48 76.8156 1264.02 75.3554C1263.83 75.1929 1263.79 74.8789 1263.98 74.6992C1264.48 74.182 1265 73.6851 1265.5 73.1687C1265.62 73.0562 1265.73 72.9187 1265.89 72.8672Z" fill="#00AEEF"/>
</g>
<defs>
<filter id="filter0_dd_10598_3187" x="0" y="0" width="152" height="152" filterUnits="userSpaceOnUse" color-interpolation-filters="sRGB">
<feFlood flood-opacity="0" result="BackgroundImageFix"/>
<feColorMatrix in="SourceAlpha" type="matrix" values="0 0 0 0 0 0 0 0 0 0 0 0 0 0 0 0 0 0 127 0" result="hardAlpha"/>
<feMorphology radius="4" operator="erode" in="SourceAlpha" result="effect1_dropShadow_10598_3187"/>
<feOffset dy="12"/>
<feGaussianBlur stdDeviation="24"/>
<feColorMatrix type="matrix" values="0 0 0 0 0 0 0 0 0 0.682353 0 0 0 0 0.937255 0 0 0 0.05 0"/>
<feBlend mode="normal" in2="BackgroundImageFix" result="effect1_dropShadow_10598_3187"/>
<feColorMatrix in="SourceAlpha" type="matrix" values="0 0 0 0 0 0 0 0 0 0 0 0 0 0 0 0 0 0 127 0" result="hardAlpha"/>
<feMorphology radius="6" operator="erode" in="SourceAlpha" result="effect2_dropShadow_10598_3187"/>
<feOffset dy="8"/>
<feGaussianBlur stdDeviation="9"/>
<feColorMatrix type="matrix" values="0 0 0 0 0 0 0 0 0 0.682353 0 0 0 0 0.937255 0 0 0 0.08 0"/>
<feBlend mode="normal" in2="effect1_dropShadow_10598_3187" result="effect2_dropShadow_10598_3187"/>
<feBlend mode="normal" in="SourceGraphic" in2="effect2_dropShadow_10598_3187" result="shape"/>
</filter>
<filter id="filter1_dd_10598_3187" x="1179" y="0" width="152" height="152" filterUnits="userSpaceOnUse" color-interpolation-filters="sRGB">
<feFlood flood-opacity="0" result="BackgroundImageFix"/>
<feColorMatrix in="SourceAlpha" type="matrix" values="0 0 0 0 0 0 0 0 0 0 0 0 0 0 0 0 0 0 127 0" result="hardAlpha"/>
<feMorphology radius="4" operator="erode" in="SourceAlpha" result="effect1_dropShadow_10598_3187"/>
<feOffset dy="12"/>
<feGaussianBlur stdDeviation="24"/>
<feColorMatrix type="matrix" values="0 0 0 0 0 0 0 0 0 0.682353 0 0 0 0 0.937255 0 0 0 0.05 0"/>
<feBlend mode="normal" in2="BackgroundImageFix" result="effect1_dropShadow_10598_3187"/>
<feColorMatrix in="SourceAlpha" type="matrix" values="0 0 0 0 0 0 0 0 0 0 0 0 0 0 0 0 0 0 127 0" result="hardAlpha"/>
<feMorphology radius="6" operator="erode" in="SourceAlpha" result="effect2_dropShadow_10598_3187"/>
<feOffset dy="8"/>
<feGaussianBlur stdDeviation="9"/>
<feColorMatrix type="matrix" values="0 0 0 0 0 0 0 0 0 0.682353 0 0 0 0 0.937255 0 0 0 0.08 0"/>
<feBlend mode="normal" in2="effect1_dropShadow_10598_3187" result="effect2_dropShadow_10598_3187"/>
<feBlend mode="normal" in="SourceGraphic" in2="effect2_dropShadow_10598_3187" result="shape"/>
</filter>
</defs>
</svg>
